<svg xmlns="http://www.w3.org/2000/svg" xmlns:xlink="http://www.w3.org/1999/xlink" contentStyleType="text/css" data-diagram-type="ACTIVITY" height="1271px" preserveAspectRatio="none" style="width:962px;height:1271px;background:#FFFFFF;" version="1.1" viewBox="0 0 962 1271" width="962px" zoomAndPan="magnify"><title>Iscrizioni alle gare da parte dei concorrenti</title><defs/><g><g class="title" data-source-line="1"><text fill="#000000" font-family="sans-serif" font-size="14" font-weight="bold" lengthAdjust="spacing" textLength="341.4346" x="308.897" y="32.9951">Iscrizioni alle gare da parte dei concorrenti</text></g><ellipse cx="488.8853" cy="57.2969" fill="#222222" rx="10" ry="10" style="stroke:#222222;stroke-width:1;"/><rect fill="none" height="190.2031" style="stroke:#000000;stroke-width:1.5;" width="151.8203" x="412.9751" y="77.2969"/><path d="M509.5522,77.2969 L509.5522,86.5938 L499.5522,96.5938 L412.9751,96.5938" fill="none" style="stroke:#000000;stroke-width:1.5;"/><text fill="#000000" font-family="sans-serif" font-size="14" lengthAdjust="spacing" textLength="86.5771" x="415.9751" y="91.292">Concorrente</text><rect fill="#F1F1F1" height="33.9688" rx="12.5" ry="12.5" style="stroke:#181818;stroke-width:0.5;" width="100.8301" x="438.4702" y="113.5938"/><text fill="#000000" font-family="sans-serif" font-size="12" lengthAdjust="spacing" textLength="80.8301" x="448.4702" y="134.7324">Effettua login</text><rect fill="#F1F1F1" height="33.9688" rx="12.5" ry="12.5" style="stroke:#181818;stroke-width:0.5;" width="108.7227" x="434.5239" y="167.5625"/><text fill="#000000" font-family="sans-serif" font-size="12" lengthAdjust="spacing" textLength="88.7227" x="444.5239" y="188.7012">Seleziona gara</text><rect fill="#F1F1F1" height="33.9688" rx="12.5" ry="12.5" style="stroke:#181818;stroke-width:0.5;" width="131.8203" x="422.9751" y="221.5313"/><text fill="#000000" font-family="sans-serif" font-size="12" lengthAdjust="spacing" textLength="111.8203" x="432.9751" y="242.6699">Richiede iscrizione</text><rect fill="none" height="940.668" style="stroke:#000000;stroke-width:1.5;" width="940.2285" x="11" y="277.5"/><path d="M77.3896,277.5 L77.3896,286.7969 L67.3896,296.7969 L11,296.7969" fill="none" style="stroke:#000000;stroke-width:1.5;"/><text fill="#000000" font-family="sans-serif" font-size="14" lengthAdjust="spacing" textLength="56.3896" x="14" y="291.4951">Sistema</text><rect fill="#F1F1F1" height="47.9375" rx="12.5" ry="12.5" style="stroke:#181818;stroke-width:0.5;" width="133.6953" x="422.0376" y="363.8086"/><text fill="#000000" font-family="sans-serif" font-size="12" lengthAdjust="spacing" textLength="85.1602" x="432.0376" y="384.9473">Notifica rifiuto</text><text fill="#000000" font-family="sans-serif" font-size="12" lengthAdjust="spacing" textLength="113.6953" x="432.0376" y="398.916">(es. dati mancanti)</text><ellipse cx="488.8853" cy="441.875" fill="none" rx="10" ry="10" style="stroke:#222222;stroke-width:1.5;"/><line style="stroke:#222222;stroke-width:2.5;" x1="482.6981" x2="495.0724" y1="435.6878" y2="448.0622"/><line style="stroke:#222222;stroke-width:2.5;" x1="495.0724" x2="482.6981" y1="435.6878" y2="448.0622"/><polygon fill="#F1F1F1" points="421.2686,313.7969,556.502,313.7969,568.502,326.6016,556.502,339.4063,421.2686,339.4063,409.2686,326.6016,421.2686,313.7969" style="stroke:#181818;stroke-width:0.5;"/><text fill="#000000" font-family="sans-serif" font-size="11" lengthAdjust="spacing" textLength="13.7017" x="492.8853" y="349.6167">no</text><text fill="#000000" font-family="sans-serif" font-size="11" lengthAdjust="spacing" textLength="114.8608" x="421.2686" y="324.0073">Concorrente valido e</text><text fill="#000000" font-family="sans-serif" font-size="11" lengthAdjust="spacing" textLength="135.2334" x="421.2686" y="336.812">appartenenza a societ&#224;?</text><text fill="#000000" font-family="sans-serif" font-size="11" lengthAdjust="spacing" textLength="8.7871" x="568.502" y="324.0073">s&#236;</text><rect fill="#F1F1F1" height="47.9375" rx="12.5" ry="12.5" style="stroke:#181818;stroke-width:0.5;" width="168.7109" x="404.5298" y="543.8867"/><text fill="#000000" font-family="sans-serif" font-size="12" lengthAdjust="spacing" textLength="85.1602" x="414.5298" y="565.0254">Notifica rifiuto</text><text fill="#000000" font-family="sans-serif" font-size="12" lengthAdjust="spacing" textLength="148.7109" x="414.5298" y="578.9941">(es. gara chiusa o piena)</text><ellipse cx="488.8853" cy="621.9531" fill="none" rx="10" ry="10" style="stroke:#222222;stroke-width:1.5;"/><line style="stroke:#222222;stroke-width:2.5;" x1="482.6981" x2="495.0724" y1="615.7659" y2="628.1403"/><line style="stroke:#222222;stroke-width:2.5;" x1="495.0724" x2="482.6981" y1="615.7659" y2="628.1403"/><polygon fill="#F1F1F1" points="430.0154,493.875,547.7551,493.875,559.7551,506.6797,547.7551,519.4844,430.0154,519.4844,418.0154,506.6797,430.0154,493.875" style="stroke:#181818;stroke-width:0.5;"/><text fill="#000000" font-family="sans-serif" font-size="11" lengthAdjust="spacing" textLength="13.7017" x="492.8853" y="529.6948">no</text><text fill="#000000" font-family="sans-serif" font-size="11" lengthAdjust="spacing" textLength="98.0439" x="430.0154" y="504.0854">Iscrizioni aperte e</text><text fill="#000000" font-family="sans-serif" font-size="11" lengthAdjust="spacing" textLength="117.7397" x="430.0154" y="516.8901">limite non raggiunto?</text><text fill="#000000" font-family="sans-serif" font-size="11" lengthAdjust="spacing" textLength="8.7871" x="559.7551" y="504.0854">s&#236;</text><polygon fill="#F1F1F1" points="443.4995,673.9531,534.271,673.9531,546.271,685.9531,534.271,697.9531,443.4995,697.9531,431.4995,685.9531,443.4995,673.9531" style="stroke:#181818;stroke-width:0.5;"/><text fill="#000000" font-family="sans-serif" font-size="11" lengthAdjust="spacing" textLength="90.7715" x="443.4995" y="689.7612">Gara a squadra?</text><text fill="#000000" font-family="sans-serif" font-size="11" lengthAdjust="spacing" textLength="8.7871" x="422.7124" y="683.3589">s&#236;</text><text fill="#000000" font-family="sans-serif" font-size="11" lengthAdjust="spacing" textLength="13.7017" x="546.271" y="683.3589">no</text><rect fill="none" height="151.9375" style="stroke:#000000;stroke-width:1.5;" width="211.6855" x="143.4854" y="707.9531"/><path d="M205.2061,707.9531 L205.2061,717.25 L195.2061,727.25 L143.4854,727.25" fill="none" style="stroke:#000000;stroke-width:1.5;"/><text fill="#000000" font-family="sans-serif" font-size="14" lengthAdjust="spacing" textLength="51.7207" x="146.4854" y="721.9482">Societ&#224;</text><rect fill="#F1F1F1" height="47.9375" rx="12.5" ry="12.5" style="stroke:#181818;stroke-width:0.5;" width="180.6582" x="158.999" y="744.25"/><text fill="#000000" font-family="sans-serif" font-size="12" lengthAdjust="spacing" textLength="160.6582" x="168.999" y="765.3887">Seleziona membri squadra</text><text fill="#000000" font-family="sans-serif" font-size="12" lengthAdjust="spacing" textLength="117.8145" x="168.999" y="779.3574">della stessa societ&#224;</text><rect fill="#F1F1F1" height="33.9688" rx="12.5" ry="12.5" style="stroke:#181818;stroke-width:0.5;" width="191.6855" x="153.4854" y="813.9219"/><text fill="#000000" font-family="sans-serif" font-size="12" lengthAdjust="spacing" textLength="171.6855" x="163.4854" y="835.0605">Conferma iscrizione squadra</text><rect fill="#F1F1F1" height="33.9688" rx="12.5" ry="12.5" style="stroke:#181818;stroke-width:0.5;" width="237.459" x="130.5986" y="879.8906"/><text fill="#000000" font-family="sans-serif" font-size="12" lengthAdjust="spacing" textLength="217.459" x="140.5986" y="901.0293">Verifica membri della stessa societ&#224;</text><rect fill="#F1F1F1" height="33.9688" rx="12.5" ry="12.5" style="stroke:#181818;stroke-width:0.5;" width="242.8965" x="127.8799" y="933.8594"/><text fill="#000000" font-family="sans-serif" font-size="12" lengthAdjust="spacing" textLength="222.8965" x="137.8799" y="954.998">Calcola eventuale sconto (&gt;5 iscritti)</text><rect fill="#555555" height="6" rx="2.5" ry="2.5" style="stroke:#555555;stroke-width:1;" width="454.6563" x="23" y="987.8281"/><rect fill="#F1F1F1" height="33.9688" rx="12.5" ry="12.5" style="stroke:#181818;stroke-width:0.5;" width="178.9121" x="35" y="1013.8281"/><text fill="#000000" font-family="sans-serif" font-size="12" lengthAdjust="spacing" textLength="158.9121" x="45" y="1034.9668">Registra iscrizioni multiple</text><rect fill="#F1F1F1" height="33.9688" rx="12.5" ry="12.5" style="stroke:#181818;stroke-width:0.5;" width="221.7441" x="241.9121" y="1013.8281"/><text fill="#000000" font-family="sans-serif" font-size="12" lengthAdjust="spacing" textLength="201.7441" x="251.9121" y="1034.9668">Gestisce pagamento complessivo</text><rect fill="#555555" height="6" rx="2.5" ry="2.5" style="stroke:#555555;stroke-width:1;" width="454.6563" x="23" y="1067.7969"/><rect fill="#555555" height="6" rx="2.5" ry="2.5" style="stroke:#555555;stroke-width:1;" width="441.5723" x="497.6563" y="707.9531"/><rect fill="#F1F1F1" height="33.9688" rx="12.5" ry="12.5" style="stroke:#181818;stroke-width:0.5;" width="176.7969" x="511.6563" y="733.9531"/><text fill="#000000" font-family="sans-serif" font-size="12" lengthAdjust="spacing" textLength="156.7969" x="521.6563" y="755.0918">Registra iscrizione singola</text><rect fill="#F1F1F1" height="33.9688" rx="12.5" ry="12.5" style="stroke:#181818;stroke-width:0.5;" width="228.7754" x="698.4531" y="733.9531"/><text fill="#000000" font-family="sans-serif" font-size="12" lengthAdjust="spacing" textLength="208.7754" x="708.4531" y="755.0918">Gestisce pagamento quota singola</text><rect fill="#555555" height="6" rx="2.5" ry="2.5" style="stroke:#555555;stroke-width:1;" width="441.5723" x="497.6563" y="787.9219"/><polygon fill="#F1F1F1" points="488.8853,1079.7969,500.8853,1091.7969,488.8853,1103.7969,476.8853,1091.7969,488.8853,1079.7969" style="stroke:#181818;stroke-width:0.5;"/><rect fill="#F1F1F1" height="33.9688" rx="12.5" ry="12.5" style="stroke:#181818;stroke-width:0.5;" width="139.1387" x="419.3159" y="1172.1992"/><text fill="#000000" font-family="sans-serif" font-size="12" lengthAdjust="spacing" textLength="119.1387" x="429.3159" y="1193.3379">Conferma iscrizione</text><polygon fill="#F1F1F1" points="427.064,1123.7969,550.7065,1123.7969,562.7065,1135.7969,550.7065,1147.7969,427.064,1147.7969,415.064,1135.7969,427.064,1123.7969" style="stroke:#181818;stroke-width:0.5;"/><text fill="#000000" font-family="sans-serif" font-size="11" lengthAdjust="spacing" textLength="8.7871" x="492.8853" y="1158.0073">s&#236;</text><text fill="#000000" font-family="sans-serif" font-size="11" lengthAdjust="spacing" textLength="123.6426" x="427.064" y="1139.605">Iscrizione completata?</text><text fill="#000000" font-family="sans-serif" font-size="11" lengthAdjust="spacing" textLength="13.7017" x="562.7065" y="1133.2026">no</text><ellipse cx="596.4082" cy="1135.7969" fill="none" rx="10" ry="10" style="stroke:#222222;stroke-width:1.5;"/><line style="stroke:#222222;stroke-width:2.5;" x1="590.221" x2="602.5954" y1="1129.6097" y2="1141.9841"/><line style="stroke:#222222;stroke-width:2.5;" x1="602.5954" x2="590.221" y1="1129.6097" y2="1141.9841"/><ellipse cx="488.8853" cy="1249.168" fill="none" rx="11" ry="11" style="stroke:#222222;stroke-width:1;"/><ellipse cx="488.8853" cy="1249.168" fill="#222222" rx="6" ry="6" style="stroke:#222222;stroke-width:1;"/><line style="stroke:#181818;stroke-width:1;" x1="488.8853" x2="488.8853" y1="147.5625" y2="167.5625"/><polygon fill="#181818" points="484.8853,157.5625,488.8853,167.5625,492.8853,157.5625,488.8853,161.5625" style="stroke:#181818;stroke-width:1;"/><line style="stroke:#181818;stroke-width:1;" x1="488.8853" x2="488.8853" y1="201.5313" y2="221.5313"/><polygon fill="#181818" points="484.8853,211.5313,488.8853,221.5313,492.8853,211.5313,488.8853,215.5313" style="stroke:#181818;stroke-width:1;"/><line style="stroke:#181818;stroke-width:1;" x1="488.8853" x2="488.8853" y1="67.2969" y2="113.5938"/><polygon fill="#181818" points="484.8853,103.5938,488.8853,113.5938,492.8853,103.5938,488.8853,107.5938" style="stroke:#181818;stroke-width:1;"/><line style="stroke:#181818;stroke-width:1;" x1="488.8853" x2="488.8853" y1="411.7461" y2="431.875"/><polygon fill="#181818" points="484.8853,421.875,488.8853,431.875,492.8853,421.875,488.8853,425.875" style="stroke:#181818;stroke-width:1;"/><line style="stroke:#181818;stroke-width:1;" x1="488.8853" x2="488.8853" y1="339.4063" y2="363.8086"/><polygon fill="#181818" points="484.8853,353.8086,488.8853,363.8086,492.8853,353.8086,488.8853,357.8086" style="stroke:#181818;stroke-width:1;"/><line style="stroke:#181818;stroke-width:1;" x1="568.502" x2="580.502" y1="326.6016" y2="326.6016"/><polygon fill="#181818" points="576.502,401.875,580.502,411.875,584.502,401.875,580.502,405.875" style="stroke:#181818;stroke-width:1;"/><line style="stroke:#181818;stroke-width:1;" x1="580.502" x2="580.502" y1="326.6016" y2="473.875"/><line style="stroke:#181818;stroke-width:1;" x1="580.502" x2="488.8853" y1="473.875" y2="473.875"/><line style="stroke:#181818;stroke-width:1;" x1="488.8853" x2="488.8853" y1="473.875" y2="493.875"/><polygon fill="#181818" points="484.8853,483.875,488.8853,493.875,492.8853,483.875,488.8853,487.875" style="stroke:#181818;stroke-width:1;"/><line style="stroke:#181818;stroke-width:1;" x1="488.8853" x2="488.8853" y1="591.8242" y2="611.9531"/><polygon fill="#181818" points="484.8853,601.9531,488.8853,611.9531,492.8853,601.9531,488.8853,605.9531" style="stroke:#181818;stroke-width:1;"/><line style="stroke:#181818;stroke-width:1;" x1="488.8853" x2="488.8853" y1="519.4844" y2="543.8867"/><polygon fill="#181818" points="484.8853,533.8867,488.8853,543.8867,492.8853,533.8867,488.8853,537.8867" style="stroke:#181818;stroke-width:1;"/><line style="stroke:#181818;stroke-width:1;" x1="559.7551" x2="583.2407" y1="506.6797" y2="506.6797"/><polygon fill="#181818" points="579.2407,581.9531,583.2407,591.9531,587.2407,581.9531,583.2407,585.9531" style="stroke:#181818;stroke-width:1;"/><line style="stroke:#181818;stroke-width:1;" x1="583.2407" x2="583.2407" y1="506.6797" y2="653.9531"/><line style="stroke:#181818;stroke-width:1;" x1="583.2407" x2="488.8853" y1="653.9531" y2="653.9531"/><line style="stroke:#181818;stroke-width:1;" x1="488.8853" x2="488.8853" y1="653.9531" y2="673.9531"/><polygon fill="#181818" points="484.8853,663.9531,488.8853,673.9531,492.8853,663.9531,488.8853,667.9531" style="stroke:#181818;stroke-width:1;"/><line style="stroke:#181818;stroke-width:1;" x1="249.3281" x2="249.3281" y1="792.1875" y2="813.9219"/><polygon fill="#181818" points="245.3281,803.9219,249.3281,813.9219,253.3281,803.9219,249.3281,807.9219" style="stroke:#181818;stroke-width:1;"/><line style="stroke:#181818;stroke-width:1;" x1="249.3281" x2="249.3281" y1="847.8906" y2="879.8906"/><polygon fill="#181818" points="245.3281,869.8906,249.3281,879.8906,253.3281,869.8906,249.3281,873.8906" style="stroke:#181818;stroke-width:1;"/><line style="stroke:#181818;stroke-width:1;" x1="249.3281" x2="249.3281" y1="913.8594" y2="933.8594"/><polygon fill="#181818" points="245.3281,923.8594,249.3281,933.8594,253.3281,923.8594,249.3281,927.8594" style="stroke:#181818;stroke-width:1;"/><line style="stroke:#181818;stroke-width:1;" x1="124.4561" x2="124.4561" y1="993.8281" y2="1013.8281"/><polygon fill="#181818" points="120.4561,1003.8281,124.4561,1013.8281,128.4561,1003.8281,124.4561,1007.8281" style="stroke:#181818;stroke-width:1;"/><line style="stroke:#181818;stroke-width:1;" x1="352.7842" x2="352.7842" y1="993.8281" y2="1013.8281"/><polygon fill="#181818" points="348.7842,1003.8281,352.7842,1013.8281,356.7842,1003.8281,352.7842,1007.8281" style="stroke:#181818;stroke-width:1;"/><line style="stroke:#181818;stroke-width:1;" x1="124.4561" x2="124.4561" y1="1047.7969" y2="1067.7969"/><polygon fill="#181818" points="120.4561,1057.7969,124.4561,1067.7969,128.4561,1057.7969,124.4561,1061.7969" style="stroke:#181818;stroke-width:1;"/><line style="stroke:#181818;stroke-width:1;" x1="352.7842" x2="352.7842" y1="1047.7969" y2="1067.7969"/><polygon fill="#181818" points="348.7842,1057.7969,352.7842,1067.7969,356.7842,1057.7969,352.7842,1061.7969" style="stroke:#181818;stroke-width:1;"/><line style="stroke:#181818;stroke-width:1;" x1="249.3281" x2="249.3281" y1="967.8281" y2="987.8281"/><polygon fill="#181818" points="245.3281,977.8281,249.3281,987.8281,253.3281,977.8281,249.3281,981.8281" style="stroke:#181818;stroke-width:1;"/><line style="stroke:#181818;stroke-width:1;" x1="600.0547" x2="600.0547" y1="713.9531" y2="733.9531"/><polygon fill="#181818" points="596.0547,723.9531,600.0547,733.9531,604.0547,723.9531,600.0547,727.9531" style="stroke:#181818;stroke-width:1;"/><line style="stroke:#181818;stroke-width:1;" x1="812.8408" x2="812.8408" y1="713.9531" y2="733.9531"/><polygon fill="#181818" points="808.8408,723.9531,812.8408,733.9531,816.8408,723.9531,812.8408,727.9531" style="stroke:#181818;stroke-width:1;"/><line style="stroke:#181818;stroke-width:1;" x1="600.0547" x2="600.0547" y1="767.9219" y2="787.9219"/><polygon fill="#181818" points="596.0547,777.9219,600.0547,787.9219,604.0547,777.9219,600.0547,781.9219" style="stroke:#181818;stroke-width:1;"/><line style="stroke:#181818;stroke-width:1;" x1="812.8408" x2="812.8408" y1="767.9219" y2="787.9219"/><polygon fill="#181818" points="808.8408,777.9219,812.8408,787.9219,816.8408,777.9219,812.8408,781.9219" style="stroke:#181818;stroke-width:1;"/><line style="stroke:#181818;stroke-width:1;" x1="431.4995" x2="249.3281" y1="685.9531" y2="685.9531"/><line style="stroke:#181818;stroke-width:1;" x1="249.3281" x2="249.3281" y1="685.9531" y2="744.25"/><polygon fill="#181818" points="245.3281,734.25,249.3281,744.25,253.3281,734.25,249.3281,738.25" style="stroke:#181818;stroke-width:1;"/><line style="stroke:#181818;stroke-width:1;" x1="546.271" x2="710.4424" y1="685.9531" y2="685.9531"/><line style="stroke:#181818;stroke-width:1;" x1="710.4424" x2="710.4424" y1="685.9531" y2="707.9531"/><polygon fill="#181818" points="706.4424,697.9531,710.4424,707.9531,714.4424,697.9531,710.4424,701.9531" style="stroke:#181818;stroke-width:1;"/><line style="stroke:#181818;stroke-width:1;" x1="249.3281" x2="249.3281" y1="1073.7969" y2="1091.7969"/><line style="stroke:#181818;stroke-width:1;" x1="249.3281" x2="476.8853" y1="1091.7969" y2="1091.7969"/><polygon fill="#181818" points="466.8853,1087.7969,476.8853,1091.7969,466.8853,1095.7969,470.8853,1091.7969" style="stroke:#181818;stroke-width:1;"/><line style="stroke:#181818;stroke-width:1;" x1="710.4424" x2="710.4424" y1="793.9219" y2="1091.7969"/><line style="stroke:#181818;stroke-width:1;" x1="710.4424" x2="500.8853" y1="1091.7969" y2="1091.7969"/><polygon fill="#181818" points="510.8853,1087.7969,500.8853,1091.7969,510.8853,1095.7969,506.8853,1091.7969" style="stroke:#181818;stroke-width:1;"/><line style="stroke:#181818;stroke-width:1;" x1="488.8853" x2="488.8853" y1="1147.7969" y2="1172.1992"/><polygon fill="#181818" points="484.8853,1162.1992,488.8853,1172.1992,492.8853,1162.1992,488.8853,1166.1992" style="stroke:#181818;stroke-width:1;"/><line style="stroke:#181818;stroke-width:1;" x1="562.7065" x2="586.4082" y1="1135.7969" y2="1135.7969"/><polygon fill="#181818" points="576.4082,1131.7969,586.4082,1135.7969,576.4082,1139.7969,580.4082,1135.7969" style="stroke:#181818;stroke-width:1;"/><line style="stroke:#181818;stroke-width:1;" x1="488.8853" x2="488.8853" y1="1206.168" y2="1238.168"/><polygon fill="#181818" points="484.8853,1228.168,488.8853,1238.168,492.8853,1228.168,488.8853,1232.168" style="stroke:#181818;stroke-width:1;"/><line style="stroke:#181818;stroke-width:1;" x1="488.8853" x2="488.8853" y1="1103.7969" y2="1123.7969"/><polygon fill="#181818" points="484.8853,1113.7969,488.8853,1123.7969,492.8853,1113.7969,488.8853,1117.7969" style="stroke:#181818;stroke-width:1;"/><line style="stroke:#181818;stroke-width:1;" x1="488.8853" x2="488.8853" y1="255.5" y2="313.7969"/><polygon fill="#181818" points="484.8853,303.7969,488.8853,313.7969,492.8853,303.7969,488.8853,307.7969" style="stroke:#181818;stroke-width:1;"/><!--SRC=[dLInRjim4Dtr5OSiaGTtws81xH0KGOTsY85ENYxKIJcK8XNov265_wKVqB_8Z_KeMhQK6a6JHQB8ktUFxzv9M2p1rsW2Fx5t36ZrkyL0K2Fq64GNn62yCpu4Si954KNtYoATicWMNDsSZkaAVXK0cozDGo83WlKjkofjRSbIAe897yUjEpOFJ3K1JmoeAWuBw2r7eGuJh6PSmtgz1YqdmLlhbQJCoL4wrZ1ke9nnWZrQhZtGpc4_NigHUq90YDumoVFlpokG1t9GnkS_AmKW6mbAvzDQUNxtmWqRXA2lGVpEbHG_vEeTEeEgoweQOydLnVZavY9XZhtgVC-MjUoen8ppl14z9V6LikMETULKZO1jouCJ_pw-OpLLV8W87decXw-ntXgoWY3S9zulkTwcJrNmSS0wu9BGY3blub7cR8wHujaD7NNtWIUWdQl9MiKLYl7Se6hAKoaR2XtEB3EbvfX3hhxvGI5hSCH_1NPpWzPuFQMzscL07O6efX8FvQUFkP2C3HwZh-6EMdLbm5oTzAOjTfJYsQLhfo7INfVjGgBScyQ7dzDT9fppNTHEWrN1BLMdQ51qTbFEBKNHy7bHupjDY97t_jJDN6VXZFUGZ-nQ5UP_gDCK_0RcZuCNNEOjk2_z-8r2gunZRzcmPlU1rGUvhsQonOLXegD2We8l1-Uoewf_Hce-88Vq2_JzNm00]--></g></svg>