<svg xmlns="http://www.w3.org/2000/svg" xmlns:xlink="http://www.w3.org/1999/xlink" contentStyleType="text/css" data-diagram-type="DESCRIPTION" height="359px" preserveAspectRatio="none" style="width:5584px;height:359px;background:#FFFFFF;" version="1.1" viewBox="0 0 5584 359" width="5584px" zoomAndPan="magnify"><title>Iscrizione gara - Communication diagram</title><defs/><g><g class="title" data-source-line="1"><text fill="#000000" font-family="sans-serif" font-size="14" font-weight="bold" lengthAdjust="spacing" textLength="324.5498" x="2622.9364" y="22.9951">Iscrizione gara - Communication diagram</text></g><!--entity Concorrente--><g class="entity" data-entity="Concorrente" data-source-line="5" data-uid="ent0002" id="entity_Concorrente"><rect fill="#F1F1F1" height="36.2969" rx="2.5" ry="2.5" style="stroke:#181818;stroke-width:0.5;" width="106.5771" x="3808" y="317.4528"/><text fill="#000000" font-family="sans-serif" font-size="14" lengthAdjust="spacing" textLength="86.5771" x="3818" y="340.4479">Concorrente</text></g><!--entity Pagina--><g class="entity" data-entity="Pagina" data-source-line="6" data-uid="ent0003" id="entity_Pagina"><rect fill="#F1F1F1" height="36.2969" rx="2.5" ry="2.5" style="stroke:#181818;stroke-width:0.5;" width="167.0684" x="3777.75" y="204.1628"/><text fill="#000000" font-family="sans-serif" font-size="14" lengthAdjust="spacing" textLength="147.0684" x="3787.75" y="227.1579">PaginaIscrizioneGara</text></g><!--entity Main--><g class="entity" data-entity="Main" data-source-line="7" data-uid="ent0004" id="entity_Main"><rect fill="#F1F1F1" height="36.2969" rx="2.5" ry="2.5" style="stroke:#181818;stroke-width:0.5;" width="139.998" x="2243.29" y="90.8628"/><text fill="#000000" font-family="sans-serif" font-size="14" lengthAdjust="spacing" textLength="119.998" x="2253.29" y="113.8579">MainConcorrente</text></g><!--entity Gara--><g class="entity" data-entity="Gara" data-source-line="8" data-uid="ent0005" id="entity_Gara"><rect fill="#F1F1F1" height="36.2969" rx="2.5" ry="2.5" style="stroke:#181818;stroke-width:0.5;" width="53.7627" x="885.4" y="204.1628"/><text fill="#000000" font-family="sans-serif" font-size="14" lengthAdjust="spacing" textLength="33.7627" x="895.4" y="227.1579">Gara</text></g><!--entity Contratto--><g class="entity" data-entity="Contratto" data-source-line="9" data-uid="ent0006" id="entity_Contratto"><rect fill="#F1F1F1" height="36.2969" rx="2.5" ry="2.5" style="stroke:#181818;stroke-width:0.5;" width="86.582" x="2590.99" y="90.8628"/><text fill="#000000" font-family="sans-serif" font-size="14" lengthAdjust="spacing" textLength="66.582" x="2600.99" y="113.8579">Contratto</text></g><!--entity Sponsor--><g class="entity" data-entity="Sponsor" data-source-line="10" data-uid="ent0007" id="entity_Sponsor"><rect fill="#F1F1F1" height="36.2969" rx="2.5" ry="2.5" style="stroke:#181818;stroke-width:0.5;" width="76.8271" x="2110.87" y="204.1628"/><text fill="#000000" font-family="sans-serif" font-size="14" lengthAdjust="spacing" textLength="56.8271" x="2120.87" y="227.1579">Sponsor</text></g><!--entity Meteo--><g class="entity" data-entity="Meteo" data-source-line="11" data-uid="ent0008" id="entity_Meteo"><rect fill="#F1F1F1" height="36.2969" rx="2.5" ry="2.5" style="stroke:#181818;stroke-width:0.5;" width="117.002" x="2719.78" y="90.8628"/><text fill="#000000" font-family="sans-serif" font-size="14" lengthAdjust="spacing" textLength="97.002" x="2729.78" y="113.8579">servizioMeteo</text></g><!--entity Pag--><g class="entity" data-entity="Pag" data-source-line="12" data-uid="ent0009" id="entity_Pag"><rect fill="#F1F1F1" height="36.2969" rx="2.5" ry="2.5" style="stroke:#181818;stroke-width:0.5;" width="149.7871" x="5284.39" y="204.1628"/><text fill="#000000" font-family="sans-serif" font-size="14" lengthAdjust="spacing" textLength="129.7871" x="5294.39" y="227.1579">sistemaPagamenti</text></g><!--link Concorrente to Pagina--><g class="link" data-entity-1="Concorrente" data-entity-2="Pagina" data-source-line="18" data-uid="lnk10" id="link_Concorrente_Pagina"><path d="M3807.59,330.1328 C3751.7,324.2228 3669.65,311.6228 3650.28,287.4528 C3612.16,239.8728 3697.1255,226.9197 3771.3255,223.7397" fill="none" id="Concorrente-to-Pagina" style="stroke:#181818;stroke-width:1;"/><polygon fill="#181818" points="3777.32,223.4828,3768.157,219.8718,3772.3246,223.6969,3768.4995,227.8645,3777.32,223.4828" style="stroke:#181818;stroke-width:1;"/><text fill="#000000" font-family="sans-serif" font-size="13" lengthAdjust="spacing" textLength="157.314" x="3651.28" y="283.5197">1: apriPaginaIscrizione()</text></g><!--reverse link Pagina to Concorrente--><g class="link" data-entity-1="Pagina" data-entity-2="Concorrente" data-source-line="28" data-uid="lnk17" id="link_Pagina_Concorrente"><path d="M3771.2706,224.0544 C3618.3706,226.1344 3313.26,234.7028 3280.28,270.4528 C3275.16,276.0128 3275.16,281.9028 3280.28,287.4528 C3315.66,325.8128 3671.16,332.9728 3807.99,334.3028" fill="none" id="Pagina-backto-Concorrente" style="stroke:#181818;stroke-width:1;"/><polygon fill="#181818" points="3777.27,223.9728,3768.2164,220.0956,3772.2705,224.0408,3768.3252,228.0948,3777.27,223.9728" style="stroke:#181818;stroke-width:1;"/><text fill="#000000" font-family="sans-serif" font-size="13" lengthAdjust="spacing" textLength="119.2534" x="3281.28" y="283.5197">2: selezionaGara()</text></g><!--reverse link Pagina to Concorrente--><g class="link" data-entity-1="Pagina" data-entity-2="Concorrente" data-source-line="45" data-uid="lnk27" id="link_Pagina_Concorrente"><path d="M3771.4724,224.7907 C3646.4824,228.2907 3436.08,240.8828 3477.28,287.4528 C3498.81,311.7928 3707.18,326.2728 3807.65,331.8928" fill="none" id="Pagina-backto-Concorrente-1" style="stroke:#181818;stroke-width:1;"/><polygon fill="#181818" points="3777.47,224.6228,3768.3616,220.8763,3772.472,224.7627,3768.5855,228.8731,3777.47,224.6228" style="stroke:#181818;stroke-width:1;"/><text fill="#000000" font-family="sans-serif" font-size="13" lengthAdjust="spacing" textLength="153.0737" x="3478.28" y="283.5197">4.1: selezionaSponsor()</text></g><!--reverse link Concorrente to Pagina--><g class="link" data-entity-1="Concorrente" data-entity-2="Pagina" data-source-line="66" data-uid="lnk45" id="link_Concorrente_Pagina"><path d="M3857.9464,311.2391 C3856.3364,298.3491 3855.45,286.2928 3856.28,270.4528 C3856.81,260.5928 3857.94,249.6128 3858.99,240.7328" fill="none" id="Concorrente-backto-Pagina" style="stroke:#181818;stroke-width:1;"/><polygon fill="#181818" points="3858.69,317.1928,3861.5437,307.7664,3858.0703,312.2313,3853.6054,308.7579,3858.69,317.1928" style="stroke:#181818;stroke-width:1;"/><text fill="#000000" font-family="sans-serif" font-size="13" lengthAdjust="spacing" textLength="163.7568" x="3857.28" y="283.5197">6.1.7: notificaConferma()</text></g><!--reverse link Concorrente to Pagina--><g class="link" data-entity-1="Concorrente" data-entity-2="Pagina" data-source-line="71" data-uid="lnk48" id="link_Concorrente_Pagina"><path d="M3920.7455,325.4419 C3963.8855,317.6919 4013.6,305.5628 4027.28,287.4528 C4053.96,252.1428 3998.81,236.2628 3945.05,229.1228" fill="none" id="Concorrente-backto-Pagina-1" style="stroke:#181818;stroke-width:1;"/><polygon fill="#181818" points="3914.84,326.5028,3924.4055,328.8484,3919.7612,325.6187,3922.9909,320.9745,3914.84,326.5028" style="stroke:#181818;stroke-width:1;"/><text fill="#000000" font-family="sans-serif" font-size="13" lengthAdjust="spacing" textLength="140.1372" x="4035.28" y="283.5197">6.2.1: notificaErrore()</text></g><!--reverse link Concorrente to Pagina--><g class="link" data-entity-1="Concorrente" data-entity-2="Pagina" data-source-line="78" data-uid="lnk51" id="link_Concorrente_Pagina"><path d="M3920.7898,334.8786 C4003.8298,334.1286 4151.82,327.2828 4186.28,287.4528 C4219.54,249.0228 4051.95,233.0828 3945,226.8928" fill="none" id="Concorrente-backto-Pagina-2" style="stroke:#181818;stroke-width:1;"/><polygon fill="#181818" points="3914.79,334.9328,3923.8258,338.8513,3919.7898,334.8876,3923.7535,330.8517,3914.79,334.9328" style="stroke:#181818;stroke-width:1;"/><text fill="#000000" font-family="sans-serif" font-size="13" lengthAdjust="spacing" textLength="140.1372" x="4192.28" y="283.5197">3.2.1: notificaErrore()</text></g><!--reverse link Concorrente to Pagina--><g class="link" data-entity-1="Concorrente" data-entity-2="Pagina" data-source-line="81" data-uid="lnk54" id="link_Concorrente_Pagina"><path d="M3920.9776,333.1629 C4040.6476,329.7729 4314.94,318.7128 4343.28,287.4528 C4348.36,281.8628 4348.36,276.0528 4343.28,270.4528 C4317.11,241.5928 4076.1,229.8128 3945.12,225.5028" fill="none" id="Concorrente-backto-Pagina-3" style="stroke:#181818;stroke-width:1;"/><polygon fill="#181818" points="3914.98,333.3328,3924.0897,337.0763,3919.978,333.1912,3923.8631,329.0795,3914.98,333.3328" style="stroke:#181818;stroke-width:1;"/><text fill="#000000" font-family="sans-serif" font-size="13" lengthAdjust="spacing" textLength="140.1372" x="4348.28" y="283.5197">3.3.1: notificaErrore()</text></g><!--link Pagina to Main--><g class="link" data-entity-1="Pagina" data-entity-2="Main" data-source-line="19" data-uid="lnk11" id="link_Pagina_Main"><path d="M3777.31,206.3728 C3737.47,198.3828 3689.47,187.4428 3647.28,174.1628 C3628.47,168.2328 3625.57,161.2928 3606.28,157.1628 C3381.07,108.9228 2800.34,138.1628 2570.28,127.1628 C2507.08,124.1328 2441.2139,119.6521 2389.5839,115.8621" fill="none" id="Pagina-to-Main" style="stroke:#181818;stroke-width:1;"/><polygon fill="#181818" points="2383.6,115.4228,2392.283,120.0709,2388.5866,115.7888,2392.8687,112.0924,2383.6,115.4228" style="stroke:#181818;stroke-width:1;"/><text fill="#000000" font-family="sans-serif" font-size="13" lengthAdjust="spacing" textLength="160.9258" x="3648.28" y="170.2297">1.1: richiediGareFuture()</text></g><!--reverse link Pagina to Main--><g class="link" data-entity-1="Pagina" data-entity-2="Main" data-source-line="22" data-uid="lnk15" id="link_Pagina_Main"><path d="M3851.656,198.4482 C3844.396,183.0882 3834.06,167.0928 3815.28,157.1628 C3754.12,124.8228 2639.4,130.2928 2570.28,127.1628 C2507.07,124.2928 2435.22,119.3528 2383.6,115.5128" fill="none" id="Pagina-backto-Main" style="stroke:#181818;stroke-width:1;"/><polygon fill="#181818" points="3854.22,203.8728,3853.9904,194.0266,3852.0834,199.3523,3846.7577,197.4452,3854.22,203.8728" style="stroke:#181818;stroke-width:1;"/><text fill="#000000" font-family="sans-serif" font-size="13" lengthAdjust="spacing" textLength="177.3916" x="3836.28" y="170.2297">1.1.3: mostraGareEMeteo()</text></g><!--link Pagina to Main--><g class="link" data-entity-1="Pagina" data-entity-2="Main" data-source-line="29" data-uid="lnk18" id="link_Pagina_Main"><path d="M3945.18,213.1828 C3999.52,204.8328 4054.93,188.4428 4024.28,157.1628 C3996.01,128.3028 2610.64,128.9228 2570.28,127.1628 C2507.07,124.4028 2441.2031,119.9024 2389.5731,116.0224" fill="none" id="Pagina-to-Main-1" style="stroke:#181818;stroke-width:1;"/><polygon fill="#181818" points="2383.59,115.5728,2392.2649,120.236,2388.5759,115.9475,2392.8644,112.2585,2383.59,115.5728" style="stroke:#181818;stroke-width:1;"/><text fill="#000000" font-family="sans-serif" font-size="13" lengthAdjust="spacing" textLength="148.4844" x="4034.28" y="170.2297">2.1: richiediIscrizione()</text></g><!--reverse link Pagina to Main--><g class="link" data-entity-1="Pagina" data-entity-2="Main" data-source-line="44" data-uid="lnk25" id="link_Pagina_Main"><path d="M3951.1493,217.0954 C4061.0693,210.5354 4229.89,194.4428 4193.28,157.1628 C4161.7,124.9828 2615.33,129.0728 2570.28,127.1628 C2507.07,124.4628 2435.22,119.5128 2383.59,115.6228" fill="none" id="Pagina-backto-Main-1" style="stroke:#181818;stroke-width:1;"/><polygon fill="#181818" points="3945.16,217.4528,3954.3823,220.9095,3950.1511,217.1549,3953.9057,212.9237,3945.16,217.4528" style="stroke:#181818;stroke-width:1;"/><text fill="#000000" font-family="sans-serif" font-size="13" lengthAdjust="spacing" textLength="391.3076" x="4199.28" y="170.2297">4 [esistono contratti disponibili]: mostraSponsorDisponibili()</text></g><!--link Pagina to Main--><g class="link" data-entity-1="Pagina" data-entity-2="Main" data-source-line="46" data-uid="lnk28" id="link_Pagina_Main"><path d="M3945.31,219.0028 C4134.48,213.4028 4579.12,197.7728 4601.28,174.1628 C4606.45,168.6528 4606.59,162.5428 4601.28,157.1628 C4581.48,137.0628 2598.47,128.3028 2570.28,127.1628 C2507.06,124.5828 2441.1928,120.0671 2389.5728,116.1471" fill="none" id="Pagina-to-Main-2" style="stroke:#181818;stroke-width:1;"/><polygon fill="#181818" points="2383.59,115.6928,2392.2613,120.3628,2388.5756,116.0714,2392.867,112.3858,2383.59,115.6928" style="stroke:#181818;stroke-width:1;"/><text fill="#000000" font-family="sans-serif" font-size="13" lengthAdjust="spacing" textLength="153.9878" x="4606.28" y="170.2297">4.2: confermaSponsor()</text></g><!--reverse link Pagina to Main--><g class="link" data-entity-1="Pagina" data-entity-2="Main" data-source-line="65" data-uid="lnk43" id="link_Pagina_Main"><path d="M3950.9491,219.9517 C4170.4791,216.2517 4742.11,203.8328 4770.28,174.1628 C4775.49,168.6828 4775.59,162.5428 4770.28,157.1628 C4748.82,135.4028 2600.82,128.3828 2570.28,127.1628 C2507.06,124.6228 2435.21,119.6528 2383.59,115.7128" fill="none" id="Pagina-backto-Main-2" style="stroke:#181818;stroke-width:1;"/><polygon fill="#181818" points="3944.95,220.0528,3954.0161,223.9006,3949.9493,219.9685,3953.8813,215.9017,3944.95,220.0528" style="stroke:#181818;stroke-width:1;"/><text fill="#000000" font-family="sans-serif" font-size="13" lengthAdjust="spacing" textLength="222.6885" x="4775.28" y="170.2297">6.1.6: mostraConfermaIscrizione()</text></g><!--link Main to Pagina--><g class="link" data-entity-1="Main" data-entity-2="Pagina" data-source-line="70" data-uid="lnk46" id="link_Main_Pagina"><path d="M2328.25,127.6128 C2342.62,143.0828 2365.85,164.5828 2391.28,174.1628 C2520.77,222.9228 3478.78,222.9364 3771.35,221.7864" fill="none" id="Main-to-Pagina" style="stroke:#181818;stroke-width:1;"/><polygon fill="#181818" points="3777.35,221.7628,3768.3343,217.7982,3772.35,221.7824,3768.3658,225.7981,3777.35,221.7628" style="stroke:#181818;stroke-width:1;"/><text fill="#000000" font-family="sans-serif" font-size="13" lengthAdjust="spacing" textLength="403.292" x="2392.28" y="170.2297">6.2 [pagamento KO]: mostraErrore("Pagamento non riuscito")</text></g><!--link Main to Pagina--><g class="link" data-entity-1="Main" data-entity-2="Pagina" data-source-line="77" data-uid="lnk49" id="link_Main_Pagina"><path d="M2383.38,114.2028 C2499.05,121.5528 2724.81,137.8228 2802.28,157.1628 C2821.42,161.9328 2824.03,169.8628 2843.28,174.1628 C3020.38,213.7028 3561.2601,220.1143 3771.6301,221.1143" fill="none" id="Main-to-Pagina-1" style="stroke:#181818;stroke-width:1;"/><polygon fill="#181818" points="3777.63,221.1428,3768.6491,217.1001,3772.6301,221.119,3768.6111,225.1,3777.63,221.1428" style="stroke:#181818;stroke-width:1;"/><text fill="#000000" font-family="sans-serif" font-size="13" lengthAdjust="spacing" textLength="386.8579" x="2844.28" y="170.2297">3.2 [data non valida]: mostraErrore("Gara non disponibile")</text></g><!--link Main to Pagina--><g class="link" data-entity-1="Main" data-entity-2="Pagina" data-source-line="80" data-uid="lnk52" id="link_Main_Pagina"><path d="M2383.62,115.1128 C2435.25,118.7628 2507.11,123.6328 2570.28,127.1628 C2718.43,135.4328 3092.46,124.9228 3237.28,157.1628 C3256.54,161.4428 3259.11,169.5328 3278.28,174.1628 C3370.64,196.4528 3633.4864,211.0648 3771.4564,217.4648" fill="none" id="Main-to-Pagina-2" style="stroke:#181818;stroke-width:1;"/><polygon fill="#181818" points="3777.45,217.7428,3768.645,213.3301,3772.4554,217.5111,3768.2743,221.3215,3777.45,217.7428" style="stroke:#181818;stroke-width:1;"/><text fill="#000000" font-family="sans-serif" font-size="13" lengthAdjust="spacing" textLength="320.0742" x="3279.28" y="170.2297">3.3 [posti esauriti]: mostraErrore("Posti esauriti")</text></g><!--link Main to Gara--><g class="link" data-entity-1="Main" data-entity-2="Gara" data-source-line="20" data-uid="lnk12" id="link_Main_Gara"><path d="M2242.89,110.1128 C1860.77,110.8128 51.31,116.3028 11.28,157.1628 C6,162.5528 6.08,168.6828 11.28,174.1628 C42.15,206.6828 732.7607,218.6532 879.3607,220.8432" fill="none" id="Main-to-Gara" style="stroke:#181818;stroke-width:1;"/><polygon fill="#181818" points="885.36,220.9328,876.4208,216.7988,880.3606,220.8581,876.3013,224.7979,885.36,220.9328" style="stroke:#181818;stroke-width:1;"/><text fill="#000000" font-family="sans-serif" font-size="13" lengthAdjust="spacing" textLength="104.4634" x="12.28" y="170.2297">1.1.1: getGare()</text></g><!--link Main to Gara--><g class="link" data-entity-1="Main" data-entity-2="Gara" data-source-line="35" data-uid="lnk19" id="link_Main_Gara"><path d="M2242.82,110.2128 C1876.11,111.4528 201.46,119.1528 164.28,157.1628 C159,162.5628 159.11,168.6528 164.28,174.1628 C189.45,200.9528 747.142,217.0262 878.912,220.4662" fill="none" id="Main-to-Gara-1" style="stroke:#181818;stroke-width:1;"/><polygon fill="#181818" points="884.91,220.6228,876.0175,216.3893,879.9117,220.4923,875.8087,224.3866,884.91,220.6228" style="stroke:#181818;stroke-width:1;"/><text fill="#000000" font-family="sans-serif" font-size="13" lengthAdjust="spacing" textLength="205.1118" x="165.28" y="170.2297">3.1 [data valida]: verificaData()</text></g><!--link Main to Gara--><g class="link" data-entity-1="Main" data-entity-2="Gara" data-source-line="36" data-uid="lnk20" id="link_Main_Gara"><path d="M2242.93,110.4328 C1903.58,112.6128 450.75,123.8728 418.28,157.1628 C413.01,162.5628 413.2,168.5728 418.28,174.1628 C449.87,208.9028 779.8914,218.5338 878.9514,220.6638" fill="none" id="Main-to-Gara-2" style="stroke:#181818;stroke-width:1;"/><polygon fill="#181818" points="884.95,220.7928,876.0381,216.6002,879.9512,220.6853,875.8661,224.5984,884.95,220.7928" style="stroke:#181818;stroke-width:1;"/><text fill="#000000" font-family="sans-serif" font-size="13" lengthAdjust="spacing" textLength="242.436" x="419.28" y="170.2297">3.1.1 [posti disponibili]: verificaMax()</text></g><!--link Main to Gara--><g class="link" data-entity-1="Main" data-entity-2="Gara" data-source-line="54" data-uid="lnk32" id="link_Main_Gara"><path d="M2242.83,110.7528 C1936.74,114.1628 736.37,129.2628 709.28,157.1628 C656.5,211.5128 812.431,219.8447 879.041,221.0447" fill="none" id="Main-to-Gara-3" style="stroke:#181818;stroke-width:1;"/><polygon fill="#181818" points="885.04,221.1528,876.1135,216.9913,880.0408,221.0627,875.9694,224.99,885.04,221.1528" style="stroke:#181818;stroke-width:1;"/><text fill="#000000" font-family="sans-serif" font-size="13" lengthAdjust="spacing" textLength="149.1001" x="710.28" y="170.2297">5: getQuotaIscrizione()</text></g><!--reverse link Main to Gara--><g class="link" data-entity-1="Main" data-entity-2="Gara" data-source-line="55" data-uid="lnk34" id="link_Main_Gara"><path d="M2236.84,109.6727 C1958.5,108.7427 954.11,108.7428 907.28,157.1628 C895.56,169.2828 899.4,189.4228 904.53,203.9028" fill="none" id="Main-backto-Gara" style="stroke:#181818;stroke-width:1;"/><polygon fill="#181818" points="2242.84,109.6928,2233.8534,105.6627,2237.84,109.6761,2233.8267,113.6627,2242.84,109.6928" style="stroke:#181818;stroke-width:1;"/><text fill="#000000" font-family="sans-serif" font-size="13" lengthAdjust="spacing" textLength="76.8384" x="908.28" y="170.2297">5.1: quota()</text></g><!--link Main to Gara--><g class="link" data-entity-1="Main" data-entity-2="Gara" data-source-line="61" data-uid="lnk38" id="link_Main_Gara"><path d="M2243.01,110.7428 C1992.09,113.6328 1149.11,125.6028 1032.28,157.1628 C1013.41,162.2528 973.9547,184.5189 944.7647,201.7789" fill="none" id="Main-to-Gara-4" style="stroke:#181818;stroke-width:1;"/><polygon fill="#181818" points="939.6,204.8328,949.3829,203.6951,943.9039,202.2879,945.3111,196.8089,939.6,204.8328" style="stroke:#181818;stroke-width:1;"/><text fill="#000000" font-family="sans-serif" font-size="13" lengthAdjust="spacing" textLength="163.4585" x="1033.28" y="170.2297">6.1.2: registraIscrizione()</text></g><!--link Main to Gara--><g class="link" data-entity-1="Main" data-entity-2="Gara" data-source-line="62" data-uid="lnk39" id="link_Main_Gara"><path d="M2242.81,109.9328 C2036.33,110.2028 1435.38,114.7128 1244.28,157.1628 C1225.03,161.4328 1222.26,168.7628 1203.28,174.1628 C1108.51,201.0828 997.7043,213.6179 945.5943,218.4579" fill="none" id="Main-to-Gara-5" style="stroke:#181818;stroke-width:1;"/><polygon fill="#181818" points="939.62,219.0128,948.9514,222.1633,944.5986,218.5504,948.2115,214.1976,939.62,219.0128" style="stroke:#181818;stroke-width:1;"/><text fill="#000000" font-family="sans-serif" font-size="13" lengthAdjust="spacing" textLength="128.6543" x="1245.28" y="170.2297">6.1.3: contaIscritti()</text></g><!--link Main to Gara--><g class="link" data-entity-1="Main" data-entity-2="Gara" data-source-line="63" data-uid="lnk40" id="link_Main_Gara"><path d="M2242.99,110.6528 C2060.9,112.8128 1577.25,121.8028 1421.28,157.1628 C1402.05,161.5228 1399.41,169.3428 1380.28,174.1628 C1216.56,215.3928 1018.0398,220.7274 945.3998,221.2774" fill="none" id="Main-to-Gara-6" style="stroke:#181818;stroke-width:1;"/><polygon fill="#181818" points="939.4,221.3228,948.43,225.2545,944.3999,221.2849,948.3695,217.2548,939.4,221.3228" style="stroke:#181818;stroke-width:1;"/><text fill="#000000" font-family="sans-serif" font-size="13" lengthAdjust="spacing" textLength="126.5596" x="1422.28" y="170.2297">6.1.4: verificaMax()</text></g><!--link Main to Gara--><g class="link" data-entity-1="Main" data-entity-2="Gara" data-source-line="64" data-uid="lnk41" id="link_Main_Gara"><path d="M2242.87,111.1428 C2118.28,113.9828 1851.09,123.7628 1628.28,157.1628 C1595.34,162.0928 1588.22,169.1528 1555.28,174.1628 C1318.48,210.1928 1034.2586,218.8052 945.3986,220.6952" fill="none" id="Main-to-Gara-7" style="stroke:#181818;stroke-width:1;"/><polygon fill="#181818" points="939.4,220.8228,948.483,224.6305,944.3989,220.7165,948.3129,216.6323,939.4,220.8228" style="stroke:#181818;stroke-width:1;"/><text fill="#000000" font-family="sans-serif" font-size="13" lengthAdjust="spacing" textLength="418.7485" x="1629.28" y="170.2297">6.1.5 [raggiunto numero massimo]: cambiaStato(CONFERMATA)</text></g><!--link Main to Meteo--><g class="link" data-entity-1="Main" data-entity-2="Meteo" data-source-line="21" data-uid="lnk13" id="link_Main_Meteo"><path d="M2358.01,90.4028 C2392.51,77.0928 2441.78,60.3528 2486.78,53.3028 C2543.43,44.4328 2559.23,43.8828 2615.78,53.3028 C2658.15,60.3628 2698.7234,74.8147 2730.9634,88.1147" fill="none" id="Main-to-Meteo" style="stroke:#181818;stroke-width:1;"/><polygon fill="#181818" points="2736.51,90.4028,2729.7156,83.2729,2731.8879,88.496,2726.6647,90.6683,2736.51,90.4028" style="stroke:#181818;stroke-width:1;"/><text fill="#000000" font-family="sans-serif" font-size="13" lengthAdjust="spacing" textLength="127.6006" x="2487.78" y="56.9297">1.1.2: cercaMeteo()</text></g><!--link Main to Contratto--><g class="link" data-entity-1="Main" data-entity-2="Contratto" data-source-line="37" data-uid="lnk21" id="link_Main_Contratto"><path d="M2383.73,109.0128 C2446.85,109.0128 2531.44,109.0128 2584.63,109.0128" fill="none" id="Main-to-Contratto" style="stroke:#181818;stroke-width:1;"/><polygon fill="#181818" points="2590.63,109.0128,2581.63,105.0128,2585.63,109.0128,2581.63,113.0128,2590.63,109.0128" style="stroke:#181818;stroke-width:1;"/><text fill="#000000" font-family="sans-serif" font-size="13" lengthAdjust="spacing" textLength="164.5693" x="2405.14" y="102.0797">3.1.2: getContrattiAttivi()</text></g><!--reverse link Main to Contratto--><g class="link" data-entity-1="Main" data-entity-2="Contratto" data-source-line="38" data-uid="lnk23" id="link_Main_Contratto"><path d="M2389.5529,126.3016 C2398.4329,127.8316 2401.51,128.1328 2410.14,129.0128 C2444.18,132.4928 2530.25,133.7528 2564.14,129.0128 C2572.79,127.8028 2581.88,125.7928 2590.53,123.5028" fill="none" id="Main-backto-Contratto" style="stroke:#181818;stroke-width:1;"/><polygon fill="#181818" points="2383.64,125.2828,2391.8301,130.7529,2388.5674,126.1318,2393.1885,122.869,2383.64,125.2828" style="stroke:#181818;stroke-width:1;"/><text fill="#000000" font-family="sans-serif" font-size="13" lengthAdjust="spacing" textLength="152.166" x="2411.14" y="125.0797">3.1.3: elencoContratti()</text></g><!--link Main to Sponsor--><g class="link" data-entity-1="Main" data-entity-2="Sponsor" data-source-line="47" data-uid="lnk29" id="link_Main_Sponsor"><path d="M2243.08,113.5028 C2177.28,118.4128 2085.77,130.0428 2063.28,157.1628 C2044.98,179.2428 2074.1971,195.8791 2104.8671,207.2991" fill="none" id="Main-to-Sponsor" style="stroke:#181818;stroke-width:1;"/><polygon fill="#181818" points="2110.49,209.3928,2103.4515,202.5037,2105.8043,207.6481,2100.6599,210.0009,2110.49,209.3928" style="stroke:#181818;stroke-width:1;"/><text fill="#000000" font-family="sans-serif" font-size="13" lengthAdjust="spacing" textLength="113.4453" x="2064.28" y="170.2297">4.3: getSponsor()</text></g><!--reverse link Main to Sponsor--><g class="link" data-entity-1="Main" data-entity-2="Sponsor" data-source-line="48" data-uid="lnk31" id="link_Main_Sponsor"><path d="M2270.9762,130.3611 C2254.8562,138.5911 2241.34,146.2528 2225.28,157.1628 C2204.43,171.3228 2182.64,190.1928 2167.77,203.7928" fill="none" id="Main-backto-Sponsor" style="stroke:#181818;stroke-width:1;"/><polygon fill="#181818" points="2276.32,127.6328,2266.4854,128.1626,2271.8668,129.9064,2270.1231,135.2878,2276.32,127.6328" style="stroke:#181818;stroke-width:1;"/><text fill="#000000" font-family="sans-serif" font-size="13" lengthAdjust="spacing" textLength="117.0254" x="2226.28" y="170.2297">4.4: datiSponsor()</text></g><!--link Main to Pag--><g class="link" data-entity-1="Main" data-entity-2="Pag" data-source-line="59" data-uid="lnk35" id="link_Main_Pag"><path d="M2383.59,115.7328 C2435.21,119.6828 2507.06,124.6628 2570.28,127.1628 C3111.68,148.5328 4468.99,104.9328 5008.28,157.1628 C5104.32,166.4628 5207.5609,186.8903 5278.2809,202.4903" fill="none" id="Main-to-Pag" style="stroke:#181818;stroke-width:1;"/><polygon fill="#181818" points="5284.14,203.7828,5276.2129,197.938,5279.2574,202.7057,5274.4896,205.7502,5284.14,203.7828" style="stroke:#181818;stroke-width:1;"/><text fill="#000000" font-family="sans-serif" font-size="13" lengthAdjust="spacing" textLength="276.4087" x="5126.28" y="170.2297">6.1 [pagamento OK]: effettuaPagamento()</text></g><!--reverse link Main to Pag--><g class="link" data-entity-1="Main" data-entity-2="Pag" data-source-line="60" data-uid="lnk37" id="link_Main_Pag"><path d="M2389.5624,116.2316 C2441.1924,120.1916 2507.06,124.7228 2570.28,127.1628 C2609.74,128.6828 5385.51,129.0928 5413.28,157.1628 C5428.03,172.0628 5409.1,190.4928 5389.71,203.7728" fill="none" id="Main-backto-Pag" style="stroke:#181818;stroke-width:1;"/><polygon fill="#181818" points="2383.58,115.7728,2392.2477,120.4494,2388.5654,116.1552,2392.8595,112.4728,2383.58,115.7728" style="stroke:#181818;stroke-width:1;"/><text fill="#000000" font-family="sans-serif" font-size="13" lengthAdjust="spacing" textLength="157.1426" x="5419.28" y="170.2297">6.1.1: esitoPagamento()</text></g><!--SRC=[hLPDRzim3BtdLn2vjCMG34tI3l1XG91-O2YohEjknGwgmxZ2RCcJv6pOhnyboxQSE6bHrq21LEAZIRv7qeQR5E6BZXN_nwL0I9XYC8A5pB92y9WPEeKrPubYsO0UXR5X8Y7GGefOAeN2O70w_COIBbZZyPOS3e5fA2z2qoNZ8l3YhEnPQ5F3xO_mWe16CMEakwt_2qqUSYcqLCx0_mwlDQgjZN691ailxbVBX6k36QFGMKOXyYgHmU1azCPdS0BdOvZdg4n1fSvTLO0t37m0nMDKCRDS86mAihEdcGlkxUyT1AM6aUB9inbzzgn01ESHi5pnNVfEpmRUPBIMVmGXB4FW7uAD2KW1FtDSS-88Rroy17Ds5SYo1z22MM22nc9gwoegHqJRUXA1gugxgW55tkImutuQGIOrgSA-uRg2zI9kCeO7J37e5FIvQyEeIm8Qtuse53SjdgWEsiTWCsCl4JG92MhnsgiKqp4ic9P0aX4nprcA4QmPLM7BKhwsXScf-9oAegdp-1DFUP-Ix8ifeX3EuJ5uvyy8jgZuXgRM5PrsIj2XB6ulkW2zP7_t55aF6EzYuiHRdV8v_MqveHgxYhcIZX95cYJkYDqQs9U76KaonfIA87Ed2HfRQqnJ2RgSU70gStFMl_OTdHR131xHpaWf9CHLIZjLBPlGpz-hvgeirc6XpwnmQwbx_36rMuYT4b9iK6K1eYK3VrmZfex8nhYwBnCEUiaQpvp8UMFTYxiBsqDfB8cituKqhcdyff4WHShxZP4kzL-uRE_jsrgpm5stKYPRIu0Bx4YYGSIhEtXD9CHV8w1Bruk12n8CRZPeJ55lNLcIliz8vS76IJ8qCaGSMZybWdIYCE5McQqw74TDdRfywShcFGwOTG-LG-ONyAXOal32ra8K6Ie96TEQPvBg4hFiYRC7moY_nUhhpVNtvVp7_F0cB7rULXsuy7tHkTjzyuKDMS8_HI2aSHbK3bwdXhiLd3ufPB_Ee5iEEryWJSoJK15tgtg4N2ibwLjXMBDCaGbQROMEYVjXaumhHPYAzsjrKYNZdVNiu4lwaaiDVPwnrA0ID1gsj0VTbu5mtytLj4Fuw1SYQbQGUDvX6tOLqAwPYT-ADe9wCxPBUDiHuT42Eh_TzJiUpBHQjLNU-tIshb-COjeLnNy0]--></g></svg>