<svg xmlns="http://www.w3.org/2000/svg" xmlns:xlink="http://www.w3.org/1999/xlink" contentStyleType="text/css" data-diagram-type="DESCRIPTION" height="677px" preserveAspectRatio="none" style="width:2862px;height:677px;background:#FFFFFF;" version="1.1" viewBox="0 0 2862 677" width="2862px" zoomAndPan="magnify"><title>Component Diagram - Gestione risultati di gara</title><defs/><g><g class="title" data-source-line="8"><text fill="#000000" font-family="sans-serif" font-size="14" font-weight="bold" lengthAdjust="spacing" textLength="375.0879" x="1236.5744" y="22.9951">Component Diagram - Gestione risultati di gara</text></g><!--cluster SUB--><g class="cluster" data-entity="SUB" data-source-line="16" data-uid="ent0006" id="cluster_SUB"><path d="M198.41,289.2969 L396.9959,289.2969 A3.75,3.75 0 0 1 399.4959,291.7969 L406.4959,327.8906 L2122.85,327.8906 A2.5,2.5 0 0 1 2125.35,330.3906 L2125.35,466.7969 A2.5,2.5 0 0 1 2122.85,469.2969 L198.41,469.2969 A2.5,2.5 0 0 1 195.91,466.7969 L195.91,291.7969 A2.5,2.5 0 0 1 198.41,289.2969" fill="none" style="stroke:#000000;stroke-width:1.5;"/><line style="stroke:#000000;stroke-width:1.5;" x1="195.91" x2="406.4959" y1="327.8906" y2="327.8906"/><text fill="#000000" font-family="sans-serif" font-size="14" font-weight="bold" lengthAdjust="spacing" textLength="86.6387" x="255.3836" y="304.292">Subsystem</text><text fill="#000000" font-family="sans-serif" font-size="14" font-weight="bold" lengthAdjust="spacing" textLength="197.5859" x="199.91" y="320.5889">Gestione risultati di gara</text></g><!--entity GAS--><g class="entity" data-entity="GAS" data-source-line="19" data-uid="ent0007" id="entity_GAS"><rect fill="#F1F1F1" height="62.5938" rx="2.5" ry="2.5" style="stroke:#181818;stroke-width:0.5;" width="169.8076" x="219.91" y="383.0069"/><rect fill="#F1F1F1" height="10" style="stroke:#181818;stroke-width:0.5;" width="15" x="369.7176" y="388.0069"/><rect fill="#F1F1F1" height="2" style="stroke:#181818;stroke-width:0.5;" width="4" x="367.7176" y="390.0069"/><rect fill="#F1F1F1" height="2" style="stroke:#181818;stroke-width:0.5;" width="4" x="367.7176" y="394.0069"/><text fill="#000000" font-family="sans-serif" font-size="14" lengthAdjust="spacing" textLength="129.8076" x="234.91" y="416.002">Group Assignment</text><text fill="#000000" font-family="sans-serif" font-size="14" lengthAdjust="spacing" textLength="51.7412" x="234.91" y="432.2989">Service</text></g><!--entity CRS--><g class="entity" data-entity="CRS" data-source-line="20" data-uid="ent0008" id="entity_CRS"><rect fill="#F1F1F1" height="62.5938" rx="2.5" ry="2.5" style="stroke:#181818;stroke-width:0.5;" width="155.7598" x="469.71" y="383.0069"/><rect fill="#F1F1F1" height="10" style="stroke:#181818;stroke-width:0.5;" width="15" x="605.4698" y="388.0069"/><rect fill="#F1F1F1" height="2" style="stroke:#181818;stroke-width:0.5;" width="4" x="603.4698" y="390.0069"/><rect fill="#F1F1F1" height="2" style="stroke:#181818;stroke-width:0.5;" width="4" x="603.4698" y="394.0069"/><text fill="#000000" font-family="sans-serif" font-size="14" lengthAdjust="spacing" textLength="115.7598" x="484.71" y="416.002">Catch Recording</text><text fill="#000000" font-family="sans-serif" font-size="14" lengthAdjust="spacing" textLength="51.7412" x="484.71" y="432.2989">Service</text></g><!--entity PSS--><g class="entity" data-entity="PSS" data-source-line="21" data-uid="ent0009" id="entity_PSS"><rect fill="#F1F1F1" height="62.5938" rx="2.5" ry="2.5" style="stroke:#181818;stroke-width:0.5;" width="176.0557" x="705.47" y="383.0069"/><rect fill="#F1F1F1" height="10" style="stroke:#181818;stroke-width:0.5;" width="15" x="861.5257" y="388.0069"/><rect fill="#F1F1F1" height="2" style="stroke:#181818;stroke-width:0.5;" width="4" x="859.5257" y="390.0069"/><rect fill="#F1F1F1" height="2" style="stroke:#181818;stroke-width:0.5;" width="4" x="859.5257" y="394.0069"/><text fill="#000000" font-family="sans-serif" font-size="14" lengthAdjust="spacing" textLength="136.0557" x="720.47" y="416.002">Penalties &amp; Scoring</text><text fill="#000000" font-family="sans-serif" font-size="14" lengthAdjust="spacing" textLength="51.7412" x="720.47" y="432.2989">Service</text></g><!--entity RS--><g class="entity" data-entity="RS" data-source-line="22" data-uid="ent0010" id="entity_RS"><rect fill="#F1F1F1" height="62.5938" rx="2.5" ry="2.5" style="stroke:#181818;stroke-width:0.5;" width="96.9365" x="985.49" y="383.0069"/><rect fill="#F1F1F1" height="10" style="stroke:#181818;stroke-width:0.5;" width="15" x="1062.4265" y="388.0069"/><rect fill="#F1F1F1" height="2" style="stroke:#181818;stroke-width:0.5;" width="4" x="1060.4265" y="390.0069"/><rect fill="#F1F1F1" height="2" style="stroke:#181818;stroke-width:0.5;" width="4" x="1060.4265" y="394.0069"/><text fill="#000000" font-family="sans-serif" font-size="14" lengthAdjust="spacing" textLength="56.9365" x="1000.49" y="416.002">Ranking</text><text fill="#000000" font-family="sans-serif" font-size="14" lengthAdjust="spacing" textLength="51.7412" x="1000.49" y="432.2989">Service</text></g><!--entity RPub--><g class="entity" data-entity="RPub" data-source-line="23" data-uid="ent0011" id="entity_RPub"><rect fill="#F1F1F1" height="62.5938" rx="2.5" ry="2.5" style="stroke:#181818;stroke-width:0.5;" width="172.7061" x="1186.38" y="383.0069"/><rect fill="#F1F1F1" height="10" style="stroke:#181818;stroke-width:0.5;" width="15" x="1339.0861" y="388.0069"/><rect fill="#F1F1F1" height="2" style="stroke:#181818;stroke-width:0.5;" width="4" x="1337.0861" y="390.0069"/><rect fill="#F1F1F1" height="2" style="stroke:#181818;stroke-width:0.5;" width="4" x="1337.0861" y="394.0069"/><text fill="#000000" font-family="sans-serif" font-size="14" lengthAdjust="spacing" textLength="132.7061" x="1201.38" y="416.002">Results Publication</text><text fill="#000000" font-family="sans-serif" font-size="14" lengthAdjust="spacing" textLength="51.7412" x="1201.38" y="432.2989">Service</text></g><!--entity GaraRepo--><g class="entity" data-entity="GaraRepo" data-source-line="26" data-uid="ent0012" id="entity_GaraRepo"><rect fill="#F1F1F1" height="46.2969" rx="2.5" ry="2.5" style="stroke:#181818;stroke-width:0.5;" width="148.835" x="1439.09" y="391.1469"/><rect fill="#F1F1F1" height="10" style="stroke:#181818;stroke-width:0.5;" width="15" x="1567.925" y="396.1469"/><rect fill="#F1F1F1" height="2" style="stroke:#181818;stroke-width:0.5;" width="4" x="1565.925" y="398.1469"/><rect fill="#F1F1F1" height="2" style="stroke:#181818;stroke-width:0.5;" width="4" x="1565.925" y="402.1469"/><text fill="#000000" font-family="sans-serif" font-size="14" lengthAdjust="spacing" textLength="108.835" x="1454.09" y="424.142">GaraRepository</text></g><!--entity IscrRepo--><g class="entity" data-entity="IscrRepo" data-source-line="27" data-uid="ent0013" id="entity_IscrRepo"><rect fill="#F1F1F1" height="46.2969" rx="2.5" ry="2.5" style="stroke:#181818;stroke-width:0.5;" width="176.4043" x="1667.92" y="399.1469"/><rect fill="#F1F1F1" height="10" style="stroke:#181818;stroke-width:0.5;" width="15" x="1824.3243" y="404.1469"/><rect fill="#F1F1F1" height="2" style="stroke:#181818;stroke-width:0.5;" width="4" x="1822.3243" y="406.1469"/><rect fill="#F1F1F1" height="2" style="stroke:#181818;stroke-width:0.5;" width="4" x="1822.3243" y="410.1469"/><text fill="#000000" font-family="sans-serif" font-size="14" lengthAdjust="spacing" textLength="136.4043" x="1682.92" y="432.142">IscrizioniRepository</text></g><!--entity PuntRepo--><g class="entity" data-entity="PuntRepo" data-source-line="28" data-uid="ent0014" id="entity_PuntRepo"><rect fill="#F1F1F1" height="46.2969" rx="2.5" ry="2.5" style="stroke:#181818;stroke-width:0.5;" width="177.0264" x="1924.32" y="383.1469"/><rect fill="#F1F1F1" height="10" style="stroke:#181818;stroke-width:0.5;" width="15" x="2081.3464" y="388.1469"/><rect fill="#F1F1F1" height="2" style="stroke:#181818;stroke-width:0.5;" width="4" x="2079.3464" y="390.1469"/><rect fill="#F1F1F1" height="2" style="stroke:#181818;stroke-width:0.5;" width="4" x="2079.3464" y="394.1469"/><text fill="#000000" font-family="sans-serif" font-size="14" lengthAdjust="spacing" textLength="137.0264" x="1939.32" y="416.142">PunteggiRepository</text></g><!--entity UI--><g class="entity" data-entity="UI" data-source-line="10" data-uid="ent0002" id="entity_UI"><rect fill="#F1F1F1" height="62.5938" rx="2.5" ry="2.5" style="stroke:#181818;stroke-width:0.5;" width="132.9072" x="7" y="609.0069"/><rect fill="#F1F1F1" height="10" style="stroke:#181818;stroke-width:0.5;" width="15" x="119.9072" y="614.0069"/><rect fill="#F1F1F1" height="2" style="stroke:#181818;stroke-width:0.5;" width="4" x="117.9072" y="616.0069"/><rect fill="#F1F1F1" height="2" style="stroke:#181818;stroke-width:0.5;" width="4" x="117.9072" y="620.0069"/><text fill="#000000" font-family="sans-serif" font-size="14" lengthAdjust="spacing" textLength="66.7461" x="22" y="642.002">Arbitro UI</text><text fill="#000000" font-family="sans-serif" font-size="14" lengthAdjust="spacing" textLength="92.9072" x="22" y="658.2989">(Web/Mobile)</text></g><!--entity PDF--><g class="entity" data-entity="PDF" data-source-line="11" data-uid="ent0003" id="entity_PDF"><rect fill="#F1F1F1" height="46.2969" rx="2.5" ry="2.5" style="stroke:#181818;stroke-width:0.5;" width="175.9258" x="2526.77" y="569.1469"/><rect fill="#F1F1F1" height="10" style="stroke:#181818;stroke-width:0.5;" width="15" x="2682.6958" y="574.1469"/><rect fill="#F1F1F1" height="2" style="stroke:#181818;stroke-width:0.5;" width="4" x="2680.6958" y="576.1469"/><rect fill="#F1F1F1" height="2" style="stroke:#181818;stroke-width:0.5;" width="4" x="2680.6958" y="580.1469"/><text fill="#000000" font-family="sans-serif" font-size="14" lengthAdjust="spacing" textLength="135.9258" x="2541.77" y="602.142">PDF / Email Service</text></g><!--entity DBGare--><g class="entity" data-entity="DBGare" data-source-line="12" data-uid="ent0004" id="entity_DBGare"><path d="M2181.35,492.6469 C2181.35,482.6469 2220.6659,482.6469 2220.6659,482.6469 C2220.6659,482.6469 2259.9818,482.6469 2259.9818,492.6469 L2259.9818,517.9437 C2259.9818,527.9437 2220.6659,527.9437 2220.6659,527.9437 C2220.6659,527.9437 2181.35,527.9437 2181.35,517.9437 L2181.35,492.6469" fill="#F1F1F1" style="stroke:#181818;stroke-width:0.5;"/><path d="M2181.35,492.6469 C2181.35,502.6469 2220.6659,502.6469 2220.6659,502.6469 C2220.6659,502.6469 2259.9818,502.6469 2259.9818,492.6469" fill="none" style="stroke:#181818;stroke-width:0.5;"/><text fill="#000000" font-family="sans-serif" font-size="14" lengthAdjust="spacing" textLength="58.6318" x="2191.35" y="519.642">DB Gare</text></g><!--entity DBPunt--><g class="entity" data-entity="DBPunt" data-source-line="13" data-uid="ent0005" id="entity_DBPunt"><path d="M2339.98,492.6469 C2339.98,482.6469 2393.3745,482.6469 2393.3745,482.6469 C2393.3745,482.6469 2446.7691,482.6469 2446.7691,492.6469 L2446.7691,517.9437 C2446.7691,527.9437 2393.3745,527.9437 2393.3745,527.9437 C2393.3745,527.9437 2339.98,527.9437 2339.98,517.9437 L2339.98,492.6469" fill="#F1F1F1" style="stroke:#181818;stroke-width:0.5;"/><path d="M2339.98,492.6469 C2339.98,502.6469 2393.3745,502.6469 2393.3745,502.6469 C2393.3745,502.6469 2446.7691,502.6469 2446.7691,492.6469" fill="none" style="stroke:#181818;stroke-width:0.5;"/><text fill="#000000" font-family="sans-serif" font-size="14" lengthAdjust="spacing" textLength="86.7891" x="2349.98" y="519.642">DB Punteggi</text></g><!--entity IGroup--><g class="entity" data-entity="IGroup" data-source-line="32" data-uid="ent0015" id="entity_IGroup"><ellipse cx="547.59" cy="606.2969" fill="#F1F1F1" rx="8" ry="8" style="stroke:#181818;stroke-width:0.5;"/><text fill="#000000" font-family="sans-serif" font-size="14" lengthAdjust="spacing" textLength="129.4863" x="482.8468" y="636.292">IGroupAssignment</text></g><!--entity ICatch--><g class="entity" data-entity="ICatch" data-source-line="33" data-uid="ent0016" id="entity_ICatch"><ellipse cx="793.5" cy="504.2969" fill="#F1F1F1" rx="8" ry="8" style="stroke:#181818;stroke-width:0.5;"/><text fill="#000000" font-family="sans-serif" font-size="14" lengthAdjust="spacing" textLength="115.4385" x="735.7808" y="534.292">ICatchRecording</text></g><!--entity IScore--><g class="entity" data-entity="IScore" data-source-line="34" data-uid="ent0017" id="entity_IScore"><ellipse cx="1272.73" cy="172.2969" fill="#F1F1F1" rx="8" ry="8" style="stroke:#181818;stroke-width:0.5;"/><text fill="#000000" font-family="sans-serif" font-size="14" lengthAdjust="spacing" textLength="56.6836" x="1244.3882" y="202.292">IScoring</text></g><!--entity IRank--><g class="entity" data-entity="IRank" data-source-line="35" data-uid="ent0018" id="entity_IRank"><ellipse cx="1513.5" cy="256.2969" fill="#F1F1F1" rx="8" ry="8" style="stroke:#181818;stroke-width:0.5;"/><text fill="#000000" font-family="sans-serif" font-size="14" lengthAdjust="spacing" textLength="61.0654" x="1482.9673" y="286.292">IRanking</text></g><!--entity IPub--><g class="entity" data-entity="IPub" data-source-line="36" data-uid="ent0019" id="entity_IPub"><ellipse cx="1513.5" cy="616.2969" fill="#F1F1F1" rx="8" ry="8" style="stroke:#181818;stroke-width:0.5;"/><text fill="#000000" font-family="sans-serif" font-size="14" lengthAdjust="spacing" textLength="132.3848" x="1447.3076" y="646.292">IResultsPublication</text></g><!--entity IGaraRepo--><g class="entity" data-entity="IGaraRepo" data-source-line="38" data-uid="ent0020" id="entity_IGaraRepo"><ellipse cx="1756.12" cy="87.2969" fill="#F1F1F1" rx="8" ry="8" style="stroke:#181818;stroke-width:0.5;"/><text fill="#000000" font-family="sans-serif" font-size="14" lengthAdjust="spacing" textLength="73.6846" x="1719.2777" y="117.292">IGaraRepo</text></g><!--entity IIscrRepo--><g class="entity" data-entity="IIscrRepo" data-source-line="39" data-uid="ent0021" id="entity_IIscrRepo"><ellipse cx="2012.84" cy="590.2969" fill="#F1F1F1" rx="8" ry="8" style="stroke:#181818;stroke-width:0.5;"/><text fill="#000000" font-family="sans-serif" font-size="14" lengthAdjust="spacing" textLength="101.2539" x="1962.213" y="620.292">IIscrizioniRepo</text></g><!--entity IPuntRepo--><g class="entity" data-entity="IPuntRepo" data-source-line="40" data-uid="ent0022" id="entity_IPuntRepo"><ellipse cx="2220.67" cy="51.2969" fill="#F1F1F1" rx="8" ry="8" style="stroke:#181818;stroke-width:0.5;"/><text fill="#000000" font-family="sans-serif" font-size="14" lengthAdjust="spacing" textLength="101.876" x="2169.732" y="81.292">IPunteggiRepo</text></g><!--entity IPdf--><g class="entity" data-entity="IPdf" data-source-line="42" data-uid="ent0023" id="entity_IPdf"><ellipse cx="2791.7" cy="592.2969" fill="#F1F1F1" rx="8" ry="8" style="stroke:#181818;stroke-width:0.5;"/><text fill="#000000" font-family="sans-serif" font-size="14" lengthAdjust="spacing" textLength="127.0732" x="2728.1634" y="622.292">IPdfEmailGateway</text></g><g class="entity" data-entity="GMN57" data-source-line="102" data-uid="ent0058" id="entity_GMN57"><path d="M716.43,209.5969 L716.43,264.9953 L870.5848,264.9953 L870.5848,219.5969 L860.5848,209.5969 L716.43,209.5969" fill="#FEFFDD" style="stroke:#181818;stroke-width:0.5;"/><path d="M860.5848,209.5969 L860.5848,219.5969 L870.5848,219.5969 L860.5848,209.5969" fill="#FEFFDD" style="stroke:#181818;stroke-width:1;"/><text fill="#000000" font-family="sans-serif" font-size="13" lengthAdjust="spacing" textLength="133.1548" x="722.43" y="226.6638">Inserimento catture:</text><text fill="#000000" font-family="sans-serif" font-size="13" lengthAdjust="spacing" textLength="31.7383" x="722.43" y="241.7966">- live</text><text fill="#000000" font-family="sans-serif" font-size="13" lengthAdjust="spacing" textLength="72.2554" x="722.43" y="256.9294">- fine turno</text></g><g class="entity" data-entity="GMN60" data-source-line="108" data-uid="ent0061" id="entity_GMN60"><path d="M961.53,495.1669 L961.53,535.4325 L1106.3791,535.4325 L1106.3791,505.1669 L1096.3791,495.1669 L961.53,495.1669" fill="#FEFFDD" style="stroke:#181818;stroke-width:0.5;"/><path d="M1096.3791,495.1669 L1096.3791,505.1669 L1106.3791,505.1669 L1096.3791,495.1669" fill="#FEFFDD" style="stroke:#181818;stroke-width:1;"/><text fill="#000000" font-family="sans-serif" font-size="13" lengthAdjust="spacing" textLength="123.8491" x="967.53" y="512.2338">Parit&#224; di punteggio</text><text fill="#000000" font-family="sans-serif" font-size="13" lengthAdjust="spacing" textLength="92.5742" x="967.53" y="527.3666">&#8594; penalit&#224; 0.5</text></g><!--link GAS to IGroup--><g class="link" data-entity-1="GAS" data-entity-2="IGroup" data-link-type="association" data-source-line="45" data-uid="lnk24" id="link_GAS_IGroup"><path d="M262.7,445.8069 C262.7,499.9969 262.7,605.1069 262.7,605.1069 C262.7,605.1069 488.68,605.1069 538.12,605.1069" fill="none" id="GAS-IGroup" style="stroke:#181818;stroke-width:1;"/></g><!--link GAS to IGroup--><g class="link" data-entity-1="GAS" data-entity-2="IGroup" data-link-type="association" data-source-line="58" data-uid="lnk33" id="link_GAS_IGroup"><path d="M305.7,446.0069 C305.7,499.3269 305.7,601.1969 305.7,601.1969 C305.7,601.1969 493.39,601.1969 538.11,601.1969" fill="none" id="GAS-IGroup-1" style="stroke:#181818;stroke-width:1;"/></g><!--link CRS to ICatch--><g class="link" data-entity-1="CRS" data-entity-2="ICatch" data-link-type="association" data-source-line="46" data-uid="lnk25" id="link_CRS_ICatch"><path d="M579.7,446.0469 C579.7,472.9869 579.7,507.2969 579.7,507.2969 C579.7,507.2969 742.66,507.2969 784.04,507.2969" fill="none" id="CRS-ICatch" style="stroke:#181818;stroke-width:1;"/></g><!--link CRS to ICatch--><g class="link" data-entity-1="CRS" data-entity-2="ICatch" data-link-type="association" data-source-line="59" data-uid="lnk34" id="link_CRS_ICatch"><path d="M602.7,445.7069 C602.7,470.6269 602.7,501.2969 602.7,501.2969 C602.7,501.2969 745.54,501.2969 784.04,501.2969" fill="none" id="CRS-ICatch-1" style="stroke:#181818;stroke-width:1;"/></g><!--link PSS to IScore--><g class="link" data-entity-1="PSS" data-entity-2="IScore" data-link-type="association" data-source-line="47" data-uid="lnk26" id="link_PSS_IScore"><path d="M877.7,382.5769 C877.7,316.0069 877.7,167.7969 877.7,167.7969 C877.7,167.7969 1203.54,167.7969 1263.36,167.7969" fill="none" id="PSS-IScore" style="stroke:#181818;stroke-width:1;"/></g><!--link PSS to IScore--><g class="link" data-entity-1="PSS" data-entity-2="IScore" data-link-type="association" data-source-line="60" data-uid="lnk35" id="link_PSS_IScore"><path d="M879.7,382.6669 C879.7,317.0669 879.7,172.2969 879.7,172.2969 C879.7,172.2969 1203.89,172.2969 1263.4,172.2969" fill="none" id="PSS-IScore-1" style="stroke:#181818;stroke-width:1;"/></g><!--link RS to IRank--><g class="link" data-entity-1="RS" data-entity-2="IRank" data-link-type="association" data-source-line="48" data-uid="lnk27" id="link_RS_IRank"><path d="M1034.7,382.8569 C1034.7,335.9769 1034.7,253.1969 1034.7,253.1969 C1034.7,253.1969 1438.17,253.1969 1504.37,253.1969" fill="none" id="RS-IRank" style="stroke:#181818;stroke-width:1;"/></g><!--link RS to IRank--><g class="link" data-entity-1="RS" data-entity-2="IRank" data-link-type="association" data-source-line="61" data-uid="lnk36" id="link_RS_IRank"><path d="M1058.7,382.5169 C1058.7,337.1169 1058.7,259.0969 1058.7,259.0969 C1058.7,259.0969 1438.69,259.0969 1504,259.0969" fill="none" id="RS-IRank-1" style="stroke:#181818;stroke-width:1;"/></g><!--link RPub to IPub--><g class="link" data-entity-1="RPub" data-entity-2="IPub" data-link-type="association" data-source-line="49" data-uid="lnk28" id="link_RPub_IPub"><path d="M1359.32,442.7769 C1427.36,442.7769 1510.7,442.7769 1510.7,442.7769 C1510.7,442.7769 1510.7,570.9269 1510.7,606.9669" fill="none" id="RPub-IPub" style="stroke:#181818;stroke-width:1;"/></g><!--link RPub to IPub--><g class="link" data-entity-1="RPub" data-entity-2="IPub" data-link-type="association" data-source-line="62" data-uid="lnk37" id="link_RPub_IPub"><path d="M1359.43,440.1169 C1429.56,440.1169 1516.7,440.1169 1516.7,440.1169 C1516.7,440.1169 1516.7,570.2369 1516.7,606.8269" fill="none" id="RPub-IPub-1" style="stroke:#181818;stroke-width:1;"/></g><!--link GaraRepo to IGaraRepo--><g class="link" data-entity-1="GaraRepo" data-entity-2="IGaraRepo" data-link-type="association" data-source-line="51" data-uid="lnk29" id="link_GaraRepo_IGaraRepo"><path d="M1588.19,393.8169 C1658.7,393.8169 1753.7,393.8169 1753.7,393.8169 C1753.7,393.8169 1753.7,147.4769 1753.7,96.4769" fill="none" id="GaraRepo-IGaraRepo" style="stroke:#181818;stroke-width:1;"/></g><!--link GaraRepo to IGaraRepo--><g class="link" data-entity-1="GaraRepo" data-entity-2="IGaraRepo" data-link-type="association" data-source-line="64" data-uid="lnk38" id="link_GaraRepo_IGaraRepo"><path d="M1588.37,396.4869 C1660.8,396.4869 1759.7,396.4869 1759.7,396.4869 C1759.7,396.4869 1759.7,147.9969 1759.7,96.5569" fill="none" id="GaraRepo-IGaraRepo-1" style="stroke:#181818;stroke-width:1;"/></g><!--link IscrRepo to IIscrRepo--><g class="link" data-entity-1="IscrRepo" data-entity-2="IIscrRepo" data-link-type="association" data-source-line="52" data-uid="lnk30" id="link_IscrRepo_IIscrRepo"><path d="M1844.8,441.4469 C1918.27,441.4469 2010.7,441.4469 2010.7,441.4469 C2010.7,441.4469 2010.7,548.3969 2010.7,580.9869" fill="none" id="IscrRepo-IIscrRepo" style="stroke:#181818;stroke-width:1;"/></g><!--link IscrRepo to IIscrRepo--><g class="link" data-entity-1="IscrRepo" data-entity-2="IIscrRepo" data-link-type="association" data-source-line="65" data-uid="lnk39" id="link_IscrRepo_IIscrRepo"><path d="M1844.71,437.4469 C1920.25,437.4469 2016.7,437.4469 2016.7,437.4469 C2016.7,437.4469 2016.7,548.2869 2016.7,581.1969" fill="none" id="IscrRepo-IIscrRepo-1" style="stroke:#181818;stroke-width:1;"/></g><!--link PuntRepo to IPuntRepo--><g class="link" data-entity-1="PuntRepo" data-entity-2="IPuntRepo" data-link-type="association" data-source-line="53" data-uid="lnk31" id="link_PuntRepo_IPuntRepo"><path d="M2101.8,392.4069 C2157.08,392.4069 2217.7,392.4069 2217.7,392.4069 C2217.7,392.4069 2217.7,115.8669 2217.7,60.7769" fill="none" id="PuntRepo-IPuntRepo" style="stroke:#181818;stroke-width:1;"/></g><!--link PuntRepo to IPuntRepo--><g class="link" data-entity-1="PuntRepo" data-entity-2="IPuntRepo" data-link-type="association" data-source-line="66" data-uid="lnk40" id="link_PuntRepo_IPuntRepo"><path d="M2101.65,401.6669 C2159.28,401.6669 2223.7,401.6669 2223.7,401.6669 C2223.7,401.6669 2223.7,116.3869 2223.7,60.6669" fill="none" id="PuntRepo-IPuntRepo-1" style="stroke:#181818;stroke-width:1;"/></g><!--link PDF to IPdf--><g class="link" data-entity-1="PDF" data-entity-2="IPdf" data-link-type="association" data-source-line="55" data-uid="lnk32" id="link_PDF_IPdf"><path d="M2702.96,595.2969 C2735.16,595.2969 2767.42,595.2969 2782.65,595.2969" fill="none" id="PDF-IPdf" style="stroke:#181818;stroke-width:1;"/></g><!--link PDF to IPdf--><g class="link" data-entity-1="PDF" data-entity-2="IPdf" data-link-type="association" data-source-line="68" data-uid="lnk41" id="link_PDF_IPdf"><path d="M2702.96,589.2969 C2735.16,589.2969 2767.42,589.2969 2782.65,589.2969" fill="none" id="PDF-IPdf-1" style="stroke:#181818;stroke-width:1;"/></g><!--link UI to IGroup--><g class="link" data-entity-1="UI" data-entity-2="IGroup" data-link-type="dependency" data-source-line="74" data-uid="lnk42" id="link_UI_IGroup"><path d="M140.4,617.7969 C271.12,617.7969 547.7,617.7969 547.7,617.7969 C547.7,617.7969 547.7,622.8869 547.7,621.5869" fill="none" id="UI-to-IGroup" style="stroke:#181818;stroke-width:1;stroke-dasharray:7,7;"/><polygon fill="#181818" points="547.7,615.5869,543.7,624.5869,547.7,620.5869,551.7,624.5869,547.7,615.5869" style="stroke:#181818;stroke-width:1;"/><text fill="#000000" font-family="sans-serif" font-size="13" lengthAdjust="spacing" textLength="53.5615" x="291.16" y="630.8638">requires</text></g><!--link UI to ICatch--><g class="link" data-entity-1="UI" data-entity-2="ICatch" data-link-type="dependency" data-source-line="75" data-uid="lnk43" id="link_UI_ICatch"><path d="M140.24,620.2969 C318.8,620.2969 793.7,620.2969 793.7,620.2969 C793.7,620.2969 793.7,547.4969 793.7,519.7969" fill="none" id="UI-to-ICatch" style="stroke:#181818;stroke-width:1;stroke-dasharray:7,7;"/><polygon fill="#181818" points="793.7,513.7969,789.7,522.7969,793.7,518.7969,797.7,522.7969,793.7,513.7969" style="stroke:#181818;stroke-width:1;"/><text fill="#000000" font-family="sans-serif" font-size="13" lengthAdjust="spacing" textLength="53.5615" x="466.22" y="633.3638">requires</text></g><!--link UI to IPub--><g class="link" data-entity-1="UI" data-entity-2="IPub" data-link-type="dependency" data-source-line="76" data-uid="lnk44" id="link_UI_IPub"><path d="M140.02,622.7969 C407.75,622.7969 1390.67,622.7969 1498.03,622.7969" fill="none" id="UI-to-IPub" style="stroke:#181818;stroke-width:1;stroke-dasharray:7,7;"/><polygon fill="#181818" points="1504.03,622.7969,1495.03,618.7969,1499.03,622.7969,1495.03,626.7969,1504.03,622.7969" style="stroke:#181818;stroke-width:1;"/><text fill="#000000" font-family="sans-serif" font-size="13" lengthAdjust="spacing" textLength="53.5615" x="768.03" y="635.8638">requires</text></g><!--link GAS to IIscrRepo--><g class="link" data-entity-1="GAS" data-entity-2="IIscrRepo" data-link-type="dependency" data-source-line="79" data-uid="lnk45" id="link_GAS_IIscrRepo"><path d="M347.7,445.9869 C347.7,496.4169 347.7,589.2969 347.7,589.2969 C347.7,589.2969 1863.7,589.2969 1997.47,589.2969" fill="none" id="GAS-to-IIscrRepo" style="stroke:#181818;stroke-width:1;stroke-dasharray:7,7;"/><polygon fill="#181818" points="2003.47,589.2969,1994.47,585.2969,1998.47,589.2969,1994.47,593.2969,2003.47,589.2969" style="stroke:#181818;stroke-width:1;"/><text fill="#000000" font-family="sans-serif" font-size="13" lengthAdjust="spacing" textLength="53.5615" x="1049.93" y="602.3638">requires</text></g><!--link GAS to IGaraRepo--><g class="link" data-entity-1="GAS" data-entity-2="IGaraRepo" data-link-type="dependency" data-source-line="80" data-uid="lnk46" id="link_GAS_IGaraRepo"><path d="M348.7,382.5169 C348.7,299.5469 348.7,82.7969 348.7,82.7969 C348.7,82.7969 1618.65,82.7969 1740.76,82.7969" fill="none" id="GAS-to-IGaraRepo" style="stroke:#181818;stroke-width:1;stroke-dasharray:7,7;"/><polygon fill="#181818" points="1746.76,82.7969,1737.76,78.7969,1741.76,82.7969,1737.76,86.7969,1746.76,82.7969" style="stroke:#181818;stroke-width:1;"/><text fill="#000000" font-family="sans-serif" font-size="13" lengthAdjust="spacing" textLength="53.5615" x="843.87" y="95.8638">requires</text></g><!--link CRS to IPuntRepo--><g class="link" data-entity-1="CRS" data-entity-2="IPuntRepo" data-link-type="dependency" data-source-line="82" data-uid="lnk47" id="link_CRS_IPuntRepo"><path d="M508.7,382.7769 C508.7,293.9969 508.7,48.2969 508.7,48.2969 C508.7,48.2969 2070.71,48.2969 2205.46,48.2969" fill="none" id="CRS-to-IPuntRepo" style="stroke:#181818;stroke-width:1;stroke-dasharray:7,7;"/><polygon fill="#181818" points="2211.46,48.2969,2202.46,44.2969,2206.46,48.2969,2202.46,52.2969,2211.46,48.2969" style="stroke:#181818;stroke-width:1;"/><text fill="#000000" font-family="sans-serif" font-size="13" lengthAdjust="spacing" textLength="53.5615" x="1138.84" y="61.3638">requires</text></g><!--link CRS to IGaraRepo--><g class="link" data-entity-1="CRS" data-entity-2="IGaraRepo" data-link-type="dependency" data-source-line="83" data-uid="lnk48" id="link_CRS_IGaraRepo"><path d="M547.7,382.6469 C547.7,300.5869 547.7,87.2969 547.7,87.2969 C547.7,87.2969 1628.27,87.2969 1740.75,87.2969" fill="none" id="CRS-to-IGaraRepo" style="stroke:#181818;stroke-width:1;stroke-dasharray:7,7;"/><polygon fill="#181818" points="1746.75,87.2969,1737.75,83.2969,1741.75,87.2969,1737.75,91.2969,1746.75,87.2969" style="stroke:#181818;stroke-width:1;"/><text fill="#000000" font-family="sans-serif" font-size="13" lengthAdjust="spacing" textLength="53.5615" x="945.55" y="100.3638">requires</text></g><!--link PSS to IPuntRepo--><g class="link" data-entity-1="PSS" data-entity-2="IPuntRepo" data-link-type="dependency" data-source-line="85" data-uid="lnk49" id="link_PSS_IPuntRepo"><path d="M873.7,382.6669 C873.7,294.8169 873.7,54.2969 873.7,54.2969 C873.7,54.2969 2086.34,54.2969 2205.35,54.2969" fill="none" id="PSS-to-IPuntRepo" style="stroke:#181818;stroke-width:1;stroke-dasharray:7,7;"/><polygon fill="#181818" points="2211.35,54.2969,2202.35,50.2969,2206.35,54.2969,2202.35,58.2969,2211.35,54.2969" style="stroke:#181818;stroke-width:1;"/><text fill="#000000" font-family="sans-serif" font-size="13" lengthAdjust="spacing" textLength="53.5615" x="1324.34" y="67.3638">requires</text></g><!--link PSS to IGaraRepo--><g class="link" data-entity-1="PSS" data-entity-2="IGaraRepo" data-link-type="dependency" data-source-line="86" data-uid="lnk50" id="link_PSS_IGaraRepo"><path d="M875.7,382.7869 C875.7,301.6369 875.7,91.7969 875.7,91.7969 C875.7,91.7969 1646.74,91.7969 1740.83,91.7969" fill="none" id="PSS-to-IGaraRepo" style="stroke:#181818;stroke-width:1;stroke-dasharray:7,7;"/><polygon fill="#181818" points="1746.83,91.7969,1737.83,87.7969,1741.83,91.7969,1737.83,95.7969,1746.83,91.7969" style="stroke:#181818;stroke-width:1;"/><text fill="#000000" font-family="sans-serif" font-size="13" lengthAdjust="spacing" textLength="53.5615" x="1111.77" y="104.8638">requires</text></g><!--link RS to IScore--><g class="link" data-entity-1="RS" data-entity-2="IScore" data-link-type="dependency" data-source-line="89" data-uid="lnk51" id="link_RS_IScore"><path d="M1010.7,382.7569 C1010.7,318.1569 1010.7,176.7969 1010.7,176.7969 C1010.7,176.7969 1210.73,176.7969 1257.41,176.7969" fill="none" id="RS-to-IScore" style="stroke:#181818;stroke-width:1;stroke-dasharray:7,7;"/><polygon fill="#181818" points="1263.41,176.7969,1254.41,172.7969,1258.41,176.7969,1254.41,180.7969,1263.41,176.7969" style="stroke:#181818;stroke-width:1;"/><text fill="#000000" font-family="sans-serif" font-size="13" lengthAdjust="spacing" textLength="53.5615" x="980.07" y="189.8638">requires</text></g><!--link RPub to IRank--><g class="link" data-entity-1="RPub" data-entity-2="IRank" data-link-type="dependency" data-source-line="90" data-uid="lnk52" id="link_RPub_IRank"><path d="M1359.39,387.1469 C1428.47,387.1469 1513.7,387.1469 1513.7,387.1469 C1513.7,387.1469 1513.7,301.7169 1513.7,271.7069" fill="none" id="RPub-to-IRank" style="stroke:#181818;stroke-width:1;stroke-dasharray:7,7;"/><polygon fill="#181818" points="1513.7,265.7069,1509.7,274.7069,1513.7,270.7069,1517.7,274.7069,1513.7,265.7069" style="stroke:#181818;stroke-width:1;"/><text fill="#000000" font-family="sans-serif" font-size="13" lengthAdjust="spacing" textLength="53.5615" x="1443.26" y="383.2138">requires</text></g><!--link RPub to IPdf--><g class="link" data-entity-1="RPub" data-entity-2="IPdf" data-link-type="dependency" data-source-line="93" data-uid="lnk53" id="link_RPub_IPdf"><path d="M1273.7,445.8569 C1273.7,455.7469 1273.7,464.1269 1273.7,464.1269 C1273.7,464.1269 2791.7,464.1269 2791.7,464.1269 C2791.7,464.1269 2791.7,547.6969 2791.7,577.0869" fill="none" id="RPub-to-IPdf" style="stroke:#181818;stroke-width:1;stroke-dasharray:7,7;"/><polygon fill="#181818" points="2791.7,583.0869,2795.7,574.0869,2791.7,578.0869,2787.7,574.0869,2791.7,583.0869" style="stroke:#181818;stroke-width:1;"/><text fill="#000000" font-family="sans-serif" font-size="13" lengthAdjust="spacing" textLength="53.5615" x="2029.04" y="477.1938">requires</text></g><!--link GaraRepo to DBGare--><g class="link" data-entity-1="GaraRepo" data-entity-2="DBGare" data-link-type="dependency" data-source-line="96" data-uid="lnk54" id="link_GaraRepo_DBGare"><path d="M1555.7,437.9069 C1555.7,459.7669 1555.7,488.9069 1555.7,488.9069 C1555.7,488.9069 2031.91,488.9069 2175.06,488.9069" fill="none" id="GaraRepo-to-DBGare" style="stroke:#181818;stroke-width:1;stroke-dasharray:7,7;"/><polygon fill="#181818" points="2181.06,488.9069,2172.06,484.9069,2176.06,488.9069,2172.06,492.9069,2181.06,488.9069" style="stroke:#181818;stroke-width:1;"/><text fill="#000000" font-family="sans-serif" font-size="13" lengthAdjust="spacing" textLength="77.1431" x="1764.88" y="501.9738">&#171;dbAccess&#187;</text></g><!--link IscrRepo to DBGare--><g class="link" data-entity-1="IscrRepo" data-entity-2="DBGare" data-link-type="dependency" data-source-line="97" data-uid="lnk55" id="link_IscrRepo_DBGare"><path d="M1844.79,433.4469 C1972.15,433.4469 2191.7,433.4469 2191.7,433.4469 C2191.7,433.4469 2191.7,455.1669 2191.7,476.1669" fill="none" id="IscrRepo-to-DBGare" style="stroke:#181818;stroke-width:1;stroke-dasharray:7,7;"/><polygon fill="#181818" points="2191.7,482.1669,2195.7,473.1669,2191.7,477.1669,2187.7,473.1669,2191.7,482.1669" style="stroke:#181818;stroke-width:1;"/><text fill="#000000" font-family="sans-serif" font-size="13" lengthAdjust="spacing" textLength="77.1431" x="1964.61" y="446.5138">&#171;dbAccess&#187;</text></g><!--link PuntRepo to DBPunt--><g class="link" data-entity-1="PuntRepo" data-entity-2="DBPunt" data-link-type="dependency" data-source-line="98" data-uid="lnk56" id="link_PuntRepo_DBPunt"><path d="M2101.65,410.9269 C2214.19,410.9269 2393.7,410.9269 2393.7,410.9269 C2393.7,410.9269 2393.7,448.5269 2393.7,476.4569" fill="none" id="PuntRepo-to-DBPunt" style="stroke:#181818;stroke-width:1;stroke-dasharray:7,7;"/><polygon fill="#181818" points="2393.7,482.4569,2397.7,473.4569,2393.7,477.4569,2389.7,473.4569,2393.7,482.4569" style="stroke:#181818;stroke-width:1;"/><text fill="#000000" font-family="sans-serif" font-size="13" lengthAdjust="spacing" textLength="77.1431" x="2205.44" y="423.9938">&#171;dbAccess&#187;</text></g><!--link CRS to GMN57--><g class="link" data-entity-1="CRS" data-entity-2="GMN57" data-link-type="association" data-source-line="102" data-uid="lnk59" id="link_CRS_GMN57"><path d="M586.7,382.6569 C586.7,331.7469 586.7,237.2969 586.7,237.2969 C586.7,237.2969 657.46,237.2969 716.2,237.2969" fill="none" id="CRS-GMN57" style="stroke:#181818;stroke-width:1;stroke-dasharray:7,7;"/></g><!--link PSS to GMN60--><g class="link" data-entity-1="PSS" data-entity-2="GMN60" data-link-type="association" data-source-line="108" data-uid="lnk62" id="link_PSS_GMN60"><path d="M882.02,424.7369 C927.59,424.7369 973.7,424.7369 973.7,424.7369 C973.7,424.7369 973.7,468.0269 973.7,494.7469" fill="none" id="PSS-GMN60" style="stroke:#181818;stroke-width:1;stroke-dasharray:7,7;"/></g><!--link UI to SUB--><!--link GAS to CRS--><!--link CRS to PSS--><!--link PSS to RS--><!--link RS to RPub--><!--link RPub to GaraRepo--><!--link GaraRepo to IscrRepo--><!--link IscrRepo to PuntRepo--><!--link PuntRepo to DBGare--><!--link DBGare to DBPunt--><!--link DBPunt to PDF--><!--SRC=[VLRDRjj83BxhAGWTriv1QR10WI9e0oHnOlXGmBKHxA7PmrYYvK7a6MLcbC8fUkq3z0dwBlic-oJBeVv6ihE-sERtaI8_SZWgSEl0QJ0otpd8fC7KIQqY-oHLAOpOGwhtfLQetDeT2eHgN_mPe7OdClrDgXoseh0O88LKw0ubWZPkfmD0wGmjbl3-8Z0QePwyySD553dfw46txNDX9aNkEGdCqVhiaDArLU64avGov1GXYhey8Rus6-cCXeV5evh-XPjtd_L65dWMWx1a3AdBsJsyWxkza0MiqRp859b5zYWJJco4HO1uTWDpOMfeTkD_Zj1bfHpckMmO_cyKHQL8dqIE4A-hZJrOX_j7zNODxBj-k87lKGGmIPAaJkbLmZJLXLPAG4fP6q6r42CeOsvqLSArjJ9NUx8ygh2O-VLwIByLBjt12bDjCkhTa7sx6h6Ng4JX95hu0zRaSkInN8yyLjJD8zOux0fz_UHTRGgP2Y_Ao86GJeab6Yj9GVKgUZLea4WDaAIzKMAi2Kcwmb9RwRGvr48qfY5nOLD38cibHtGF7DFRLe_8tipa7zJuwHc5vQRqFOc1Fpuk8pM9Mz5rek4mYP6QrAZUeW798rYJ6j5Fa3pIS6hD0ydZXiDQrsat8iL7SJhvc3UKBSoyqurveLxn85udMKFCjdmGvyBXDt48z2A4HAKn1aXuKoMjXZIiWQsMZCOniDKAULflOq7yUFKchhyjC7XAMt9RKmzrLRPbXC7Qmln-wSr16QCAHicFyXwcV9pjwKHFvtYSNflPvDCRdsW2gxil3ulLtGocfIXejMiGi4Vtps-82vtBLCTdbxJ7IbGP7r4wbewxJbiINkZiQYWcV4wt8asbe93JKgSx1AIpPHnUWgL33SyL5hJyFM1f5MXwK2PUA80- -v_y7XO0v-TNZQHm2GQVAxhBR8_KA-yKuZM54AbRn5WdPW1tOAT_wElRsOHj50_G3Zpfwbl_fci7ddITi5h-faYksfyyE-p2emJ38dcK6FMJDG8fNbbjU4Uyybr5KVFwL0AjN5gsEWX0mmDm966RfgVKLoOHFdxCDjTfYjPUNVMJ-ZQbKwAc-BzZIXGfxR1vWT5RlhuMYZIGVkbge3NdAeENKKAl92z8NrjwCm6oKH4qhk3Tnq7yZROKHle1fzkvR5QOZlxz-GjAVnyoT77-FWZXHohvkfCP7O6_IJ6wodbOGflFpaz1QEE7hOSsel5U24rywEiL49YxWz-lWm3j5a2_5i8dzukWsmy1tBpfDAqP8lo6qtHa479s_ny0]--></g></svg>