<svg xmlns="http://www.w3.org/2000/svg" xmlns:xlink="http://www.w3.org/1999/xlink" contentStyleType="text/css" data-diagram-type="SEQUENCE" height="1390px" preserveAspectRatio="none" style="width:1245px;height:1390px;background:#FFFFFF;" version="1.1" viewBox="0 0 1245 1390" width="1245px" zoomAndPan="magnify"><title>Iscrizione gara</title><defs/><g><text fill="#000000" font-family="sans-serif" font-size="14" font-weight="bold" lengthAdjust="spacing" textLength="116.2656" x="565.502" y="27.9951">Iscrizione gara</text><rect fill="none" height="1001.7969" style="stroke:#000000;stroke-width:1.5;" width="1228.2695" x="10" y="336.6563"/><rect fill="none" height="162.7969" style="stroke:#000000;stroke-width:1.5;" width="923.4805" x="30" y="535.5859"/><rect fill="none" height="414.6641" style="stroke:#000000;stroke-width:1.5;" width="1208.2695" x="20" y="770.6484"/><rect fill="none" height="46.2656" style="stroke:#000000;stroke-width:1.5;" width="329.9688" x="464.3721" y="969.5781"/><rect fill="none" height="75.3984" style="stroke:#000000;stroke-width:1.5;" width="588.3701" x="30" y="1102.9141"/><g><title>Concorrente</title><rect fill="#000000" fill-opacity="0.00000" height="1281.8594" width="8" x="86.2886" y="73.5938"/><line style="stroke:#181818;stroke-width:0.5;stroke-dasharray:5,5;" x1="90" x2="90" y1="73.5938" y2="1355.4531"/></g><g><title>PaginaIscrizioneGara</title><rect fill="#000000" fill-opacity="0.00000" height="1281.8594" width="8" x="250.8193" y="73.5938"/><line style="stroke:#181818;stroke-width:0.5;stroke-dasharray:5,5;" x1="254.2852" x2="254.2852" y1="73.5938" y2="1355.4531"/></g><g><title>MainConcorrente</title><rect fill="#000000" fill-opacity="0.00000" height="1281.8594" width="8" x="537.3711" y="73.5938"/><line style="stroke:#181818;stroke-width:0.5;stroke-dasharray:5,5;" x1="540.3721" x2="540.3721" y1="73.5938" y2="1355.4531"/></g><g><title>Gara</title><rect fill="#000000" fill-opacity="0.00000" height="1281.8594" width="8" x="744.1899" y="73.5938"/><line style="stroke:#181818;stroke-width:0.5;stroke-dasharray:5,5;" x1="747.3086" x2="747.3086" y1="73.5938" y2="1355.4531"/></g><g><title>Contratto</title><rect fill="#000000" fill-opacity="0.00000" height="1281.8594" width="8" x="818.3623" y="73.5938"/><line style="stroke:#181818;stroke-width:0.5;stroke-dasharray:5,5;" x1="822.0713" x2="822.0713" y1="73.5938" y2="1355.4531"/></g><g><title>Sponsor</title><rect fill="#000000" fill-opacity="0.00000" height="1281.8594" width="8" x="904.0669" y="73.5938"/><line style="stroke:#181818;stroke-width:0.5;stroke-dasharray:5,5;" x1="907.6533" x2="907.6533" y1="73.5938" y2="1355.4531"/></g><g><title>servizioMeteo</title><rect fill="#000000" fill-opacity="0.00000" height="1281.8594" width="8" x="1004.9814" y="73.5938"/><line style="stroke:#181818;stroke-width:0.5;stroke-dasharray:5,5;" x1="1008.4805" x2="1008.4805" y1="73.5938" y2="1355.4531"/></g><g><title>sistemaPagamenti</title><rect fill="#000000" fill-opacity="0.00000" height="1281.8594" width="8" x="1142.376" y="73.5938"/><line style="stroke:#181818;stroke-width:0.5;stroke-dasharray:5,5;" x1="1145.4824" x2="1145.4824" y1="73.5938" y2="1355.4531"/></g><g class="participant participant-head" data-participant="Concorrente"><rect fill="#E2E2F0" height="30.2969" rx="2.5" ry="2.5" style="stroke:#181818;stroke-width:0.5;" width="100.5771" x="40" y="42.2969"/><text fill="#000000" font-family="sans-serif" font-size="14" lengthAdjust="spacing" textLength="86.5771" x="47" y="62.292">Concorrente</text></g><g class="participant participant-tail" data-participant="Concorrente"><rect fill="#E2E2F0" height="30.2969" rx="2.5" ry="2.5" style="stroke:#181818;stroke-width:0.5;" width="100.5771" x="40" y="1354.4531"/><text fill="#000000" font-family="sans-serif" font-size="14" lengthAdjust="spacing" textLength="86.5771" x="47" y="1374.4482">Concorrente</text></g><g class="participant participant-head" data-participant="Pagina"><rect fill="#E2E2F0" height="30.2969" rx="2.5" ry="2.5" style="stroke:#181818;stroke-width:0.5;" width="161.0684" x="174.2852" y="42.2969"/><text fill="#000000" font-family="sans-serif" font-size="14" lengthAdjust="spacing" textLength="147.0684" x="181.2852" y="62.292">PaginaIscrizioneGara</text></g><g class="participant participant-tail" data-participant="Pagina"><rect fill="#E2E2F0" height="30.2969" rx="2.5" ry="2.5" style="stroke:#181818;stroke-width:0.5;" width="161.0684" x="174.2852" y="1354.4531"/><text fill="#000000" font-family="sans-serif" font-size="14" lengthAdjust="spacing" textLength="147.0684" x="181.2852" y="1374.4482">PaginaIscrizioneGara</text></g><g class="participant participant-head" data-participant="Main"><rect fill="#E2E2F0" height="30.2969" rx="2.5" ry="2.5" style="stroke:#181818;stroke-width:0.5;" width="133.998" x="474.3721" y="42.2969"/><text fill="#000000" font-family="sans-serif" font-size="14" lengthAdjust="spacing" textLength="119.998" x="481.3721" y="62.292">MainConcorrente</text></g><g class="participant participant-tail" data-participant="Main"><rect fill="#E2E2F0" height="30.2969" rx="2.5" ry="2.5" style="stroke:#181818;stroke-width:0.5;" width="133.998" x="474.3721" y="1354.4531"/><text fill="#000000" font-family="sans-serif" font-size="14" lengthAdjust="spacing" textLength="119.998" x="481.3721" y="1374.4482">MainConcorrente</text></g><g class="participant participant-head" data-participant="Gara"><rect fill="#E2E2F0" height="30.2969" rx="2.5" ry="2.5" style="stroke:#181818;stroke-width:0.5;" width="47.7627" x="724.3086" y="42.2969"/><text fill="#000000" font-family="sans-serif" font-size="14" lengthAdjust="spacing" textLength="33.7627" x="731.3086" y="62.292">Gara</text></g><g class="participant participant-tail" data-participant="Gara"><rect fill="#E2E2F0" height="30.2969" rx="2.5" ry="2.5" style="stroke:#181818;stroke-width:0.5;" width="47.7627" x="724.3086" y="1354.4531"/><text fill="#000000" font-family="sans-serif" font-size="14" lengthAdjust="spacing" textLength="33.7627" x="731.3086" y="1374.4482">Gara</text></g><g class="participant participant-head" data-participant="Contratto"><rect fill="#E2E2F0" height="30.2969" rx="2.5" ry="2.5" style="stroke:#181818;stroke-width:0.5;" width="80.582" x="782.0713" y="42.2969"/><text fill="#000000" font-family="sans-serif" font-size="14" lengthAdjust="spacing" textLength="66.582" x="789.0713" y="62.292">Contratto</text></g><g class="participant participant-tail" data-participant="Contratto"><rect fill="#E2E2F0" height="30.2969" rx="2.5" ry="2.5" style="stroke:#181818;stroke-width:0.5;" width="80.582" x="782.0713" y="1354.4531"/><text fill="#000000" font-family="sans-serif" font-size="14" lengthAdjust="spacing" textLength="66.582" x="789.0713" y="1374.4482">Contratto</text></g><g class="participant participant-head" data-participant="Sponsor"><rect fill="#E2E2F0" height="30.2969" rx="2.5" ry="2.5" style="stroke:#181818;stroke-width:0.5;" width="70.8271" x="872.6533" y="42.2969"/><text fill="#000000" font-family="sans-serif" font-size="14" lengthAdjust="spacing" textLength="56.8271" x="879.6533" y="62.292">Sponsor</text></g><g class="participant participant-tail" data-participant="Sponsor"><rect fill="#E2E2F0" height="30.2969" rx="2.5" ry="2.5" style="stroke:#181818;stroke-width:0.5;" width="70.8271" x="872.6533" y="1354.4531"/><text fill="#000000" font-family="sans-serif" font-size="14" lengthAdjust="spacing" textLength="56.8271" x="879.6533" y="1374.4482">Sponsor</text></g><g class="participant participant-head" data-participant="Meteo"><rect fill="#E2E2F0" height="30.2969" rx="2.5" ry="2.5" style="stroke:#181818;stroke-width:0.5;" width="111.002" x="953.4805" y="42.2969"/><text fill="#000000" font-family="sans-serif" font-size="14" lengthAdjust="spacing" textLength="97.002" x="960.4805" y="62.292">servizioMeteo</text></g><g class="participant participant-tail" data-participant="Meteo"><rect fill="#E2E2F0" height="30.2969" rx="2.5" ry="2.5" style="stroke:#181818;stroke-width:0.5;" width="111.002" x="953.4805" y="1354.4531"/><text fill="#000000" font-family="sans-serif" font-size="14" lengthAdjust="spacing" textLength="97.002" x="960.4805" y="1374.4482">servizioMeteo</text></g><g class="participant participant-head" data-participant="Pag"><rect fill="#E2E2F0" height="30.2969" rx="2.5" ry="2.5" style="stroke:#181818;stroke-width:0.5;" width="143.7871" x="1074.4824" y="42.2969"/><text fill="#000000" font-family="sans-serif" font-size="14" lengthAdjust="spacing" textLength="129.7871" x="1081.4824" y="62.292">sistemaPagamenti</text></g><g class="participant participant-tail" data-participant="Pag"><rect fill="#E2E2F0" height="30.2969" rx="2.5" ry="2.5" style="stroke:#181818;stroke-width:0.5;" width="143.7871" x="1074.4824" y="1354.4531"/><text fill="#000000" font-family="sans-serif" font-size="14" lengthAdjust="spacing" textLength="129.7871" x="1081.4824" y="1374.4482">sistemaPagamenti</text></g><g class="message" data-participant-1="Concorrente" data-participant-2="Pagina"><polygon fill="#181818" points="242.8193,100.7266,252.8193,104.7266,242.8193,108.7266,246.8193,104.7266" style="stroke:#181818;stroke-width:1;"/><line style="stroke:#181818;stroke-width:1;" x1="90.2886" x2="248.8193" y1="104.7266" y2="104.7266"/><text fill="#000000" font-family="sans-serif" font-size="13" lengthAdjust="spacing" textLength="140.5308" x="97.2886" y="99.6606">apriPaginaIscrizione()</text></g><g class="message" data-participant-1="Pagina" data-participant-2="Main"><polygon fill="#181818" points="529.3711,129.8594,539.3711,133.8594,529.3711,137.8594,533.3711,133.8594" style="stroke:#181818;stroke-width:1;"/><line style="stroke:#181818;stroke-width:1;" x1="254.8193" x2="535.3711" y1="133.8594" y2="133.8594"/><text fill="#000000" font-family="sans-serif" font-size="13" lengthAdjust="spacing" textLength="131.7393" x="261.8193" y="128.7935">richiediGareFuture()</text></g><g class="message" data-participant-1="Main" data-participant-2="Main"><line style="stroke:#181818;stroke-width:1;" x1="541.3711" x2="583.3711" y1="162.9922" y2="162.9922"/><line style="stroke:#181818;stroke-width:1;" x1="583.3711" x2="583.3711" y1="162.9922" y2="175.9922"/><line style="stroke:#181818;stroke-width:1;" x1="542.3711" x2="583.3711" y1="175.9922" y2="175.9922"/><polygon fill="#181818" points="552.3711,171.9922,542.3711,175.9922,552.3711,179.9922,548.3711,175.9922" style="stroke:#181818;stroke-width:1;"/><text fill="#000000" font-family="sans-serif" font-size="13" lengthAdjust="spacing" textLength="119.5264" x="548.3711" y="157.9263">cercaGareFuture()</text></g><g class="message" data-participant-1="Main" data-participant-2="Gara"><polygon fill="#181818" points="736.1899,201.125,746.1899,205.125,736.1899,209.125,740.1899,205.125" style="stroke:#181818;stroke-width:1;"/><line style="stroke:#181818;stroke-width:1;" x1="541.3711" x2="742.1899" y1="205.125" y2="205.125"/><text fill="#000000" font-family="sans-serif" font-size="13" lengthAdjust="spacing" textLength="62.8735" x="548.3711" y="200.0591">getGare()</text></g><g class="message" data-participant-1="Main" data-participant-2="Meteo"><polygon fill="#181818" points="996.9814,230.2578,1006.9814,234.2578,996.9814,238.2578,1000.9814,234.2578" style="stroke:#181818;stroke-width:1;"/><line style="stroke:#181818;stroke-width:1;" x1="541.3711" x2="1002.9814" y1="234.2578" y2="234.2578"/><text fill="#000000" font-family="sans-serif" font-size="13" lengthAdjust="spacing" textLength="86.0107" x="548.3711" y="229.1919">cercaMeteo()</text></g><g class="message" data-participant-1="Main" data-participant-2="Pagina"><polygon fill="#181818" points="265.8193,259.3906,255.8193,263.3906,265.8193,267.3906,261.8193,263.3906" style="stroke:#181818;stroke-width:1;"/><line style="stroke:#181818;stroke-width:1;" x1="259.8193" x2="540.3711" y1="263.3906" y2="263.3906"/><text fill="#000000" font-family="sans-serif" font-size="13" lengthAdjust="spacing" textLength="135.8018" x="271.8193" y="258.3247">mostraGareEMeteo()</text></g><g class="message" data-participant-1="Concorrente" data-participant-2="Pagina"><polygon fill="#181818" points="242.8193,288.5234,252.8193,292.5234,242.8193,296.5234,246.8193,292.5234" style="stroke:#181818;stroke-width:1;"/><line style="stroke:#181818;stroke-width:1;" x1="90.2886" x2="248.8193" y1="292.5234" y2="292.5234"/><text fill="#000000" font-family="sans-serif" font-size="13" lengthAdjust="spacing" textLength="102.4702" x="97.2886" y="287.4575">selezionaGara()</text></g><g class="message" data-participant-1="Pagina" data-participant-2="Main"><polygon fill="#181818" points="529.3711,317.6563,539.3711,321.6563,529.3711,325.6563,533.3711,321.6563" style="stroke:#181818;stroke-width:1;"/><line style="stroke:#181818;stroke-width:1;" x1="254.8193" x2="535.3711" y1="321.6563" y2="321.6563"/><text fill="#000000" font-family="sans-serif" font-size="13" lengthAdjust="spacing" textLength="119.2979" x="261.8193" y="316.5903">richiediIscrizione()</text></g><path d="M10,336.6563 L74.4429,336.6563 L74.4429,343.7891 L64.4429,353.7891 L10,353.7891 L10,336.6563" fill="#EEEEEE" style="stroke:#000000;stroke-width:1.5;"/><rect fill="none" height="1001.7969" style="stroke:#000000;stroke-width:1.5;" width="1228.2695" x="10" y="336.6563"/><text fill="#000000" font-family="sans-serif" font-size="13" font-weight="bold" lengthAdjust="spacing" textLength="19.4429" x="25" y="349.7231">alt</text><text fill="#000000" font-family="sans-serif" font-size="11" font-weight="bold" lengthAdjust="spacing" textLength="193.6602" x="89.4429" y="348.8667">[data valida e posti disponibili]</text><g class="message" data-participant-1="Main" data-participant-2="Gara"><polygon fill="#181818" points="736.1899,370.9219,746.1899,374.9219,736.1899,378.9219,740.1899,374.9219" style="stroke:#181818;stroke-width:1;"/><line style="stroke:#181818;stroke-width:1;" x1="541.3711" x2="742.1899" y1="374.9219" y2="374.9219"/><text fill="#000000" font-family="sans-serif" font-size="13" lengthAdjust="spacing" textLength="89.1338" x="548.3711" y="369.856">verificaData()</text></g><g class="message" data-participant-1="Gara" data-participant-2="Main"><polygon fill="#181818" points="552.3711,400.0547,542.3711,404.0547,552.3711,408.0547,548.3711,404.0547" style="stroke:#181818;stroke-width:1;"/><line style="stroke:#181818;stroke-width:1;stroke-dasharray:2,2;" x1="546.3711" x2="747.1899" y1="404.0547" y2="404.0547"/><text fill="#000000" font-family="sans-serif" font-size="13" lengthAdjust="spacing" textLength="48.0391" x="558.3711" y="398.9888">dataOK</text></g><g class="message" data-participant-1="Main" data-participant-2="Gara"><polygon fill="#181818" points="736.1899,429.1875,746.1899,433.1875,736.1899,437.1875,740.1899,433.1875" style="stroke:#181818;stroke-width:1;"/><line style="stroke:#181818;stroke-width:1;" x1="541.3711" x2="742.1899" y1="433.1875" y2="433.1875"/><text fill="#000000" font-family="sans-serif" font-size="13" lengthAdjust="spacing" textLength="84.9697" x="548.3711" y="428.1216">verificaMax()</text></g><g class="message" data-participant-1="Gara" data-participant-2="Main"><polygon fill="#181818" points="552.3711,458.3203,542.3711,462.3203,552.3711,466.3203,548.3711,462.3203" style="stroke:#181818;stroke-width:1;"/><line style="stroke:#181818;stroke-width:1;stroke-dasharray:2,2;" x1="546.3711" x2="747.1899" y1="462.3203" y2="462.3203"/><text fill="#000000" font-family="sans-serif" font-size="13" lengthAdjust="spacing" textLength="109.3701" x="558.3711" y="457.2544">postiDisponibili()</text></g><g class="message" data-participant-1="Main" data-participant-2="Contratto"><polygon fill="#181818" points="810.3623,487.4531,820.3623,491.4531,810.3623,495.4531,814.3623,491.4531" style="stroke:#181818;stroke-width:1;"/><line style="stroke:#181818;stroke-width:1;" x1="541.3711" x2="816.3623" y1="491.4531" y2="491.4531"/><text fill="#000000" font-family="sans-serif" font-size="13" lengthAdjust="spacing" textLength="122.9795" x="548.3711" y="486.3872">getContrattiAttivi()</text></g><g class="message" data-participant-1="Contratto" data-participant-2="Main"><polygon fill="#181818" points="552.3711,516.5859,542.3711,520.5859,552.3711,524.5859,548.3711,520.5859" style="stroke:#181818;stroke-width:1;"/><line style="stroke:#181818;stroke-width:1;stroke-dasharray:2,2;" x1="546.3711" x2="821.3623" y1="520.5859" y2="520.5859"/><text fill="#000000" font-family="sans-serif" font-size="13" lengthAdjust="spacing" textLength="110.5762" x="558.3711" y="515.52">elencoContratti()</text></g><path d="M30,535.5859 L99.4512,535.5859 L99.4512,542.7188 L89.4512,552.7188 L30,552.7188 L30,535.5859" fill="#EEEEEE" style="stroke:#000000;stroke-width:1.5;"/><rect fill="none" height="162.7969" style="stroke:#000000;stroke-width:1.5;" width="923.4805" x="30" y="535.5859"/><text fill="#000000" font-family="sans-serif" font-size="13" font-weight="bold" lengthAdjust="spacing" textLength="24.4512" x="45" y="548.6528">opt</text><text fill="#000000" font-family="sans-serif" font-size="11" font-weight="bold" lengthAdjust="spacing" textLength="188.9551" x="114.4512" y="547.7964">[esistono contratti disponibili]</text><g class="message" data-participant-1="Main" data-participant-2="Pagina"><polygon fill="#181818" points="265.8193,569.8516,255.8193,573.8516,265.8193,577.8516,261.8193,573.8516" style="stroke:#181818;stroke-width:1;"/><line style="stroke:#181818;stroke-width:1;" x1="259.8193" x2="540.3711" y1="573.8516" y2="573.8516"/><text fill="#000000" font-family="sans-serif" font-size="13" lengthAdjust="spacing" textLength="176.249" x="271.8193" y="568.7856">mostraSponsorDisponibili()</text></g><g class="message" data-participant-1="Concorrente" data-participant-2="Pagina"><polygon fill="#181818" points="242.8193,598.9844,252.8193,602.9844,242.8193,606.9844,246.8193,602.9844" style="stroke:#181818;stroke-width:1;"/><line style="stroke:#181818;stroke-width:1;" x1="90.2886" x2="248.8193" y1="602.9844" y2="602.9844"/><text fill="#000000" font-family="sans-serif" font-size="13" lengthAdjust="spacing" textLength="123.8872" x="97.2886" y="597.9185">selezionaSponsor()</text></g><g class="message" data-participant-1="Pagina" data-participant-2="Main"><polygon fill="#181818" points="529.3711,628.1172,539.3711,632.1172,529.3711,636.1172,533.3711,632.1172" style="stroke:#181818;stroke-width:1;"/><line style="stroke:#181818;stroke-width:1;" x1="254.8193" x2="535.3711" y1="632.1172" y2="632.1172"/><text fill="#000000" font-family="sans-serif" font-size="13" lengthAdjust="spacing" textLength="124.8013" x="261.8193" y="627.0513">confermaSponsor()</text></g><g class="message" data-participant-1="Main" data-participant-2="Sponsor"><polygon fill="#181818" points="896.0669,657.25,906.0669,661.25,896.0669,665.25,900.0669,661.25" style="stroke:#181818;stroke-width:1;"/><line style="stroke:#181818;stroke-width:1;" x1="541.3711" x2="902.0669" y1="661.25" y2="661.25"/><text fill="#000000" font-family="sans-serif" font-size="13" lengthAdjust="spacing" textLength="84.2588" x="548.3711" y="656.1841">getSponsor()</text></g><g class="message" data-participant-1="Sponsor" data-participant-2="Main"><polygon fill="#181818" points="552.3711,686.3828,542.3711,690.3828,552.3711,694.3828,548.3711,690.3828" style="stroke:#181818;stroke-width:1;"/><line style="stroke:#181818;stroke-width:1;stroke-dasharray:2,2;" x1="546.3711" x2="907.0669" y1="690.3828" y2="690.3828"/><text fill="#000000" font-family="sans-serif" font-size="13" lengthAdjust="spacing" textLength="87.8389" x="558.3711" y="685.3169">datiSponsor()</text></g><g class="message" data-participant-1="Main" data-participant-2="Gara"><polygon fill="#181818" points="736.1899,722.5156,746.1899,726.5156,736.1899,730.5156,740.1899,726.5156" style="stroke:#181818;stroke-width:1;"/><line style="stroke:#181818;stroke-width:1;" x1="541.3711" x2="742.1899" y1="726.5156" y2="726.5156"/><text fill="#000000" font-family="sans-serif" font-size="13" lengthAdjust="spacing" textLength="132.3169" x="548.3711" y="721.4497">getQuotaIscrizione()</text></g><g class="message" data-participant-1="Gara" data-participant-2="Main"><polygon fill="#181818" points="552.3711,751.6484,542.3711,755.6484,552.3711,759.6484,548.3711,755.6484" style="stroke:#181818;stroke-width:1;"/><line style="stroke:#181818;stroke-width:1;stroke-dasharray:2,2;" x1="546.3711" x2="747.1899" y1="755.6484" y2="755.6484"/><text fill="#000000" font-family="sans-serif" font-size="13" lengthAdjust="spacing" textLength="47.6519" x="558.3711" y="750.5825">quota()</text></g><path d="M20,770.6484 L84.4429,770.6484 L84.4429,777.7813 L74.4429,787.7813 L20,787.7813 L20,770.6484" fill="#EEEEEE" style="stroke:#000000;stroke-width:1.5;"/><rect fill="none" height="414.6641" style="stroke:#000000;stroke-width:1.5;" width="1208.2695" x="20" y="770.6484"/><text fill="#000000" font-family="sans-serif" font-size="13" font-weight="bold" lengthAdjust="spacing" textLength="19.4429" x="35" y="783.7153">alt</text><text fill="#000000" font-family="sans-serif" font-size="11" font-weight="bold" lengthAdjust="spacing" textLength="101.9219" x="99.4429" y="782.8589">[pagamento OK]</text><g class="message" data-participant-1="Main" data-participant-2="Pag"><polygon fill="#181818" points="1134.376,804.9141,1144.376,808.9141,1134.376,812.9141,1138.376,808.9141" style="stroke:#181818;stroke-width:1;"/><line style="stroke:#181818;stroke-width:1;" x1="541.3711" x2="1140.376" y1="808.9141" y2="808.9141"/><text fill="#000000" font-family="sans-serif" font-size="13" lengthAdjust="spacing" textLength="135.6685" x="548.3711" y="803.8481">effettuaPagamento()</text></g><g class="message" data-participant-1="Pag" data-participant-2="Main"><polygon fill="#181818" points="552.3711,834.0469,542.3711,838.0469,552.3711,842.0469,548.3711,838.0469" style="stroke:#181818;stroke-width:1;"/><line style="stroke:#181818;stroke-width:1;stroke-dasharray:2,2;" x1="546.3711" x2="1145.376" y1="838.0469" y2="838.0469"/><text fill="#000000" font-family="sans-serif" font-size="13" lengthAdjust="spacing" textLength="115.5527" x="558.3711" y="832.981">esitoPagamento()</text></g><g class="message" data-participant-1="Main" data-participant-2="Gara"><polygon fill="#181818" points="736.1899,863.1797,746.1899,867.1797,736.1899,871.1797,740.1899,867.1797" style="stroke:#181818;stroke-width:1;"/><line style="stroke:#181818;stroke-width:1;" x1="541.3711" x2="742.1899" y1="867.1797" y2="867.1797"/><text fill="#000000" font-family="sans-serif" font-size="13" lengthAdjust="spacing" textLength="121.8687" x="548.3711" y="862.1138">registraIscrizione()</text></g><g class="message" data-participant-1="Main" data-participant-2="Gara"><polygon fill="#181818" points="736.1899,892.3125,746.1899,896.3125,736.1899,900.3125,740.1899,896.3125" style="stroke:#181818;stroke-width:1;"/><line style="stroke:#181818;stroke-width:1;" x1="541.3711" x2="742.1899" y1="896.3125" y2="896.3125"/><text fill="#000000" font-family="sans-serif" font-size="13" lengthAdjust="spacing" textLength="87.0645" x="548.3711" y="891.2466">contaIscritti()</text></g><g class="message" data-participant-1="Main" data-participant-2="Gara"><polygon fill="#181818" points="736.1899,921.4453,746.1899,925.4453,736.1899,929.4453,740.1899,925.4453" style="stroke:#181818;stroke-width:1;"/><line style="stroke:#181818;stroke-width:1;" x1="541.3711" x2="742.1899" y1="925.4453" y2="925.4453"/><text fill="#000000" font-family="sans-serif" font-size="13" lengthAdjust="spacing" textLength="84.9697" x="548.3711" y="920.3794">verificaMax()</text></g><g class="message" data-participant-1="Gara" data-participant-2="Main"><polygon fill="#181818" points="552.3711,950.5781,542.3711,954.5781,552.3711,958.5781,548.3711,954.5781" style="stroke:#181818;stroke-width:1;"/><line style="stroke:#181818;stroke-width:1;stroke-dasharray:2,2;" x1="546.3711" x2="747.1899" y1="954.5781" y2="954.5781"/><text fill="#000000" font-family="sans-serif" font-size="13" lengthAdjust="spacing" textLength="148.2749" x="558.3711" y="949.5122">postiDisponibiliFinale()</text></g><path d="M464.3721,969.5781 L533.8232,969.5781 L533.8232,976.7109 L523.8232,986.7109 L464.3721,986.7109 L464.3721,969.5781" fill="#EEEEEE" style="stroke:#000000;stroke-width:1.5;"/><rect fill="none" height="46.2656" style="stroke:#000000;stroke-width:1.5;" width="329.9688" x="464.3721" y="969.5781"/><text fill="#000000" font-family="sans-serif" font-size="13" font-weight="bold" lengthAdjust="spacing" textLength="24.4512" x="479.3721" y="982.645">opt</text><text fill="#000000" font-family="sans-serif" font-size="11" font-weight="bold" lengthAdjust="spacing" textLength="240.5176" x="548.8232" y="981.7886">[raggiunto numero massimo di iscritti]</text><g class="message" data-participant-1="Main" data-participant-2="Gara"><polygon fill="#181818" points="736.1899,1003.8438,746.1899,1007.8438,736.1899,1011.8438,740.1899,1007.8438" style="stroke:#181818;stroke-width:1;"/><line style="stroke:#181818;stroke-width:1;" x1="541.3711" x2="742.1899" y1="1007.8438" y2="1007.8438"/><text fill="#000000" font-family="sans-serif" font-size="13" lengthAdjust="spacing" textLength="182.8188" x="548.3711" y="1002.7778">cambiaStato(CONFERMATA)</text></g><g class="message" data-participant-1="Main" data-participant-2="Pagina"><polygon fill="#181818" points="265.8193,1039.9766,255.8193,1043.9766,265.8193,1047.9766,261.8193,1043.9766" style="stroke:#181818;stroke-width:1;"/><line style="stroke:#181818;stroke-width:1;" x1="259.8193" x2="540.3711" y1="1043.9766" y2="1043.9766"/><text fill="#000000" font-family="sans-serif" font-size="13" lengthAdjust="spacing" textLength="181.0986" x="271.8193" y="1038.9106">mostraConfermaIscrizione()</text></g><g class="message" data-participant-1="Pagina" data-participant-2="Concorrente"><polygon fill="#181818" points="101.2886,1069.1094,91.2886,1073.1094,101.2886,1077.1094,97.2886,1073.1094" style="stroke:#181818;stroke-width:1;"/><line style="stroke:#181818;stroke-width:1;" x1="95.2886" x2="253.8193" y1="1073.1094" y2="1073.1094"/><text fill="#000000" font-family="sans-serif" font-size="13" lengthAdjust="spacing" textLength="122.167" x="107.2886" y="1068.0435">notificaConferma()</text></g><line style="stroke:#000000;stroke-width:1;stroke-dasharray:2,2;" x1="20" x2="1228.2695" y1="1082.1094" y2="1082.1094"/><text fill="#000000" font-family="sans-serif" font-size="11" font-weight="bold" lengthAdjust="spacing" textLength="101.9219" x="25" y="1092.3198">[pagamento KO]</text><path d="M30,1102.9141 L116.9517,1102.9141 L116.9517,1110.0469 L106.9517,1120.0469 L30,1120.0469 L30,1102.9141" fill="#EEEEEE" style="stroke:#000000;stroke-width:1.5;"/><rect fill="none" height="75.3984" style="stroke:#000000;stroke-width:1.5;" width="588.3701" x="30" y="1102.9141"/><text fill="#000000" font-family="sans-serif" font-size="13" font-weight="bold" lengthAdjust="spacing" textLength="41.9517" x="45" y="1115.981">break</text><text fill="#000000" font-family="sans-serif" font-size="11" font-weight="bold" lengthAdjust="spacing" textLength="157.7759" x="131.9517" y="1115.1245">[pagamento non riuscito]</text><g class="message" data-participant-1="Main" data-participant-2="Pagina"><polygon fill="#181818" points="265.8193,1137.1797,255.8193,1141.1797,265.8193,1145.1797,261.8193,1141.1797" style="stroke:#181818;stroke-width:1;"/><line style="stroke:#181818;stroke-width:1;" x1="259.8193" x2="540.3711" y1="1141.1797" y2="1141.1797"/><text fill="#000000" font-family="sans-serif" font-size="13" lengthAdjust="spacing" textLength="262.5518" x="271.8193" y="1136.1138">mostraErrore("Pagamento non riuscito")</text></g><g class="message" data-participant-1="Pagina" data-participant-2="Concorrente"><polygon fill="#181818" points="101.2886,1166.3125,91.2886,1170.3125,101.2886,1174.3125,97.2886,1170.3125" style="stroke:#181818;stroke-width:1;"/><line style="stroke:#181818;stroke-width:1;" x1="95.2886" x2="253.8193" y1="1170.3125" y2="1170.3125"/><text fill="#000000" font-family="sans-serif" font-size="13" lengthAdjust="spacing" textLength="98.5474" x="107.2886" y="1165.2466">notificaErrore()</text></g><line style="stroke:#000000;stroke-width:1;stroke-dasharray:2,2;" x1="10" x2="1238.2695" y1="1193.3125" y2="1193.3125"/><text fill="#000000" font-family="sans-serif" font-size="11" font-weight="bold" lengthAdjust="spacing" textLength="106.3423" x="15" y="1203.5229">[data non valida]</text><g class="message" data-participant-1="Main" data-participant-2="Pagina"><polygon fill="#181818" points="265.8193,1224.25,255.8193,1228.25,265.8193,1232.25,261.8193,1228.25" style="stroke:#181818;stroke-width:1;"/><line style="stroke:#181818;stroke-width:1;" x1="259.8193" x2="540.3711" y1="1228.25" y2="1228.25"/><text fill="#000000" font-family="sans-serif" font-size="13" lengthAdjust="spacing" textLength="242.3154" x="271.8193" y="1223.1841">mostraErrore("Gara non disponibile")</text></g><g class="message" data-participant-1="Pagina" data-participant-2="Concorrente"><polygon fill="#181818" points="101.2886,1253.3828,91.2886,1257.3828,101.2886,1261.3828,97.2886,1257.3828" style="stroke:#181818;stroke-width:1;"/><line style="stroke:#181818;stroke-width:1;" x1="95.2886" x2="253.8193" y1="1257.3828" y2="1257.3828"/><text fill="#000000" font-family="sans-serif" font-size="13" lengthAdjust="spacing" textLength="98.5474" x="107.2886" y="1252.3169">notificaErrore()</text></g><line style="stroke:#000000;stroke-width:1;stroke-dasharray:2,2;" x1="10" x2="1238.2695" y1="1266.3828" y2="1266.3828"/><text fill="#000000" font-family="sans-serif" font-size="11" font-weight="bold" lengthAdjust="spacing" textLength="176.7358" x="15" y="1276.5933">[data valida e posti esauriti]</text><g class="message" data-participant-1="Main" data-participant-2="Pagina"><polygon fill="#181818" points="265.8193,1297.3203,255.8193,1301.3203,265.8193,1305.3203,261.8193,1301.3203" style="stroke:#181818;stroke-width:1;"/><line style="stroke:#181818;stroke-width:1;" x1="259.8193" x2="540.3711" y1="1301.3203" y2="1301.3203"/><text fill="#000000" font-family="sans-serif" font-size="13" lengthAdjust="spacing" textLength="192.1499" x="271.8193" y="1296.2544">mostraErrore("Posti esauriti")</text></g><g class="message" data-participant-1="Pagina" data-participant-2="Concorrente"><polygon fill="#181818" points="101.2886,1326.4531,91.2886,1330.4531,101.2886,1334.4531,97.2886,1330.4531" style="stroke:#181818;stroke-width:1;"/><line style="stroke:#181818;stroke-width:1;" x1="95.2886" x2="253.8193" y1="1330.4531" y2="1330.4531"/><text fill="#000000" font-family="sans-serif" font-size="13" lengthAdjust="spacing" textLength="98.5474" x="107.2886" y="1325.3872">notificaErrore()</text></g><!--SRC=[hLN9RXin3BtFLn2-94PW0rqFEHGmiXH5u2QDYzwLCUqIdP6caiOe-aNzZ_vOIOrcjRCq4mC6REbHUdoFf3pv3E6JIotz9gCHjigg92cKzPHIeRI7CwDJOorgZxtroOtQabPjx4SEdO1oK6tqmKj5kdDImCbQ3oKd3E_sLdblUgkhmcXdRFy2XtOdF9ReqLJ7owy1Y9p7N351bJCDgkacoT7iXJx94RoQmw90wqkhe0XQ0BKAdu2b56sgH6k4JSauMIqixiWnX20Fp5-EKj9H7cOVea5m2ggmDBJnU9h4VKQAHOnZnjy9ryG6uMKWpAYmrs92JWS1OYi3jkXbknifUTQXuKzdio6P6yT58A4NDURvsh0zh-UmmWpRUWUC2JglO4qTiqRSSw_cBjuj6Qc7nEvPCYhZDtFuXfOsn4Nd439LfVttJvNgZkue6vMhoZoi5QktKncjHT22JICMqt6lol6K07y65R6BfCuvb7CKHDYPjMB8gTTN3mKlrQzxOWE7yvP2XDNdDCEbgitwBotukwl1BQXpC3l8tZO1O-rvomMPOiRo7PiYb4Q6KrXZbXbmrQo36PZ2Zx68mm5b_Xbj8Asft-lGeFlYoDqNyz4gZv4HlbVip6I3DX_0QXPnDVZJHwngNNgbGYq8zNgSA-_cKByJ1epEYAV5iHJw2TnPL3-cOzpO7urVIkFxKtXOpZy5mUl2eMYOnUPu5fSg4jxFuHQt93vNGx4p09z_zh2Sf6ys6_I-RDvVqrP5hxqSUJF431IpaN1FiGCugVGAL3NgYmoIIv8MbRONj7IMLTijbUA7BdEq1dBb7EMcUKxuzW0-H57bTwHMNd6kPzUVBozkbuklYuf9gE87-l8iji-U36sZTJlq5BJn8TawK9B0Z1-5jgAkhiC9eSWxozfeVffAbx8vUwaCQ5rOQ_YbdzmSZ9vCc_Z7QCQ3MZ62885mU6_asEhDIPv09mWk8UtKmydJz6g8T2uVF7ReLCb6qrEOtFGY_fS3Y_0F]--></g></svg>