<svg xmlns="http://www.w3.org/2000/svg" xmlns:xlink="http://www.w3.org/1999/xlink" contentStyleType="text/css" data-diagram-type="TIMING" height="1248.3px" preserveAspectRatio="none" style="width:2287px;height:1248px;background:#FFFFFF;" version="1.1" viewBox="0 0 2287 1248" width="2287.6px" zoomAndPan="magnify"><title>Timing diagram - gestione rinvio/annullamento gara di pesca</title><defs/><g><g class="title" data-source-line="1"><text fill="#000000" font-family="sans-serif" font-size="26.6" font-weight="bold" lengthAdjust="spacing" textLength="916.9727" x="599.9584" y="62.6907">Timing diagram - gestione rinvio/annullamento gara di pesca</text></g><line style="stroke:#333333;stroke-width:0.95;" x1="19" x2="19" y1="89.8641" y2="1192.5766"/><line style="stroke:#333333;stroke-width:0.95;" x1="2099.7895" x2="2099.7895" y1="89.8641" y2="1192.5766"/><line style="stroke:#333333;stroke-width:0.95;stroke-dasharray:5.7,9.5;" x1="285.2895" x2="285.2895" y1="89.8641" y2="1192.5766"/><line style="stroke:#333333;stroke-width:0.95;stroke-dasharray:5.7,9.5;" x1="380.2895" x2="380.2895" y1="89.8641" y2="1192.5766"/><line style="stroke:#333333;stroke-width:0.95;stroke-dasharray:5.7,9.5;" x1="475.2895" x2="475.2895" y1="89.8641" y2="1192.5766"/><line style="stroke:#333333;stroke-width:0.95;stroke-dasharray:5.7,9.5;" x1="570.2895" x2="570.2895" y1="89.8641" y2="1192.5766"/><line style="stroke:#333333;stroke-width:0.95;stroke-dasharray:5.7,9.5;" x1="665.2895" x2="665.2895" y1="89.8641" y2="1192.5766"/><line style="stroke:#333333;stroke-width:0.95;stroke-dasharray:5.7,9.5;" x1="760.2895" x2="760.2895" y1="89.8641" y2="1192.5766"/><line style="stroke:#333333;stroke-width:0.95;stroke-dasharray:5.7,9.5;" x1="855.2895" x2="855.2895" y1="89.8641" y2="1192.5766"/><line style="stroke:#333333;stroke-width:0.95;stroke-dasharray:5.7,9.5;" x1="950.2895" x2="950.2895" y1="89.8641" y2="1192.5766"/><line style="stroke:#333333;stroke-width:0.95;stroke-dasharray:5.7,9.5;" x1="1045.2895" x2="1045.2895" y1="89.8641" y2="1192.5766"/><line style="stroke:#333333;stroke-width:0.95;stroke-dasharray:5.7,9.5;" x1="1140.2895" x2="1140.2895" y1="89.8641" y2="1192.5766"/><line style="stroke:#333333;stroke-width:0.95;stroke-dasharray:5.7,9.5;" x1="1235.2895" x2="1235.2895" y1="89.8641" y2="1192.5766"/><line style="stroke:#333333;stroke-width:0.95;stroke-dasharray:5.7,9.5;" x1="1330.2895" x2="1330.2895" y1="89.8641" y2="1192.5766"/><line style="stroke:#333333;stroke-width:0.95;stroke-dasharray:5.7,9.5;" x1="1425.2895" x2="1425.2895" y1="89.8641" y2="1192.5766"/><line style="stroke:#333333;stroke-width:0.95;stroke-dasharray:5.7,9.5;" x1="1520.2895" x2="1520.2895" y1="89.8641" y2="1192.5766"/><line style="stroke:#333333;stroke-width:0.95;stroke-dasharray:5.7,9.5;" x1="1615.2895" x2="1615.2895" y1="89.8641" y2="1192.5766"/><line style="stroke:#333333;stroke-width:0.95;stroke-dasharray:5.7,9.5;" x1="1710.2895" x2="1710.2895" y1="89.8641" y2="1192.5766"/><line style="stroke:#333333;stroke-width:0.95;stroke-dasharray:5.7,9.5;" x1="1805.2895" x2="1805.2895" y1="89.8641" y2="1192.5766"/><line style="stroke:#333333;stroke-width:0.95;stroke-dasharray:5.7,9.5;" x1="1900.2895" x2="1900.2895" y1="89.8641" y2="1192.5766"/><line style="stroke:#333333;stroke-width:0.95;stroke-dasharray:5.7,9.5;" x1="1995.2895" x2="1995.2895" y1="89.8641" y2="1192.5766"/><line style="stroke:#333333;stroke-width:0.95;stroke-dasharray:5.7,9.5;" x1="2090.2895" x2="2090.2895" y1="89.8641" y2="1192.5766"/><line style="stroke:#333333;stroke-width:0.95;" x1="19" x2="2099.7895" y1="89.8641" y2="89.8641"/><text fill="#333333" font-family="sans-serif" font-size="26.6" font-weight="bold" lengthAdjust="spacing" textLength="105.9714" x="28.5" y="114.5548">Arbitro</text><line style="stroke:#333333;stroke-width:0.95;" x1="19" x2="136.3714" y1="122.7281" y2="122.7281"/><line style="stroke:#333333;stroke-width:0.95;" x1="136.3714" x2="155.3714" y1="122.7281" y2="89.8641"/><polygon fill="#E2E2F0" points="308.0895,132.2281,357.4895,132.2281,380.2895,155.0281,357.4895,177.8281,308.0895,177.8281,285.2895,155.0281" style="stroke:#006400;stroke-width:2.85;"/><polygon fill="#E2E2F0" points="403.0895,132.2281,737.4895,132.2281,760.2895,155.0281,737.4895,177.8281,403.0895,177.8281,380.2895,155.0281" style="stroke:#006400;stroke-width:2.85;"/><polygon fill="#E2E2F0" points="783.0895,132.2281,1402.4895,132.2281,1425.2895,155.0281,1402.4895,177.8281,783.0895,177.8281,760.2895,155.0281" style="stroke:#006400;stroke-width:2.85;"/><polygon fill="#E2E2F0" points="1448.0895,132.2281,1972.4895,132.2281,1995.2895,155.0281,1972.4895,177.8281,1448.0895,177.8281,1425.2895,155.0281" style="stroke:#006400;stroke-width:2.85;"/><polygon fill="#E2E2F0" points="2018.0895,132.2281,2090.2895,132.2281,2090.2895,177.8281,2018.0895,177.8281,1995.2895,155.0281" style="stroke:#E2E2F0;stroke-width:2.85;"/><path d="M2090.2895,132.2281 L2018.0895,132.2281 L1995.2895,155.0281 L2018.0895,177.8281 L2090.2895,177.8281" fill="#E2E2F0" style="stroke:#006400;stroke-width:2.85;"/><text fill="#333333" font-family="sans-serif" font-size="22.8" font-weight="bold" lengthAdjust="spacing" textLength="100.2398" x="282.6695" y="162.9213">Inattivo</text><text fill="#333333" font-family="sans-serif" font-size="22.8" font-weight="bold" lengthAdjust="spacing" textLength="174.1506" x="483.2142" y="162.9213">Ha approvato</text><text fill="#333333" font-family="sans-serif" font-size="22.8" font-weight="bold" lengthAdjust="spacing" textLength="164.9326" x="1010.3231" y="162.9213">Valuta rinvio</text><text fill="#333333" font-family="sans-serif" font-size="22.8" font-weight="bold" lengthAdjust="spacing" textLength="268.4121" x="1576.0834" y="162.9213">Valuta annullamento</text><text fill="#333333" font-family="sans-serif" font-size="22.8" font-weight="bold" lengthAdjust="spacing" textLength="100.2398" x="2018.0895" y="162.9213">Inattivo</text><line style="stroke:#333333;stroke-width:0.95;" x1="19" x2="2099.7895" y1="196.8281" y2="196.8281"/><text fill="#333333" font-family="sans-serif" font-size="26.6" font-weight="bold" lengthAdjust="spacing" textLength="120.5312" x="28.5" y="221.5188">Sistema</text><text fill="#333333" font-family="sans-serif" font-size="26.6" font-weight="bold" lengthAdjust="spacing" textLength="207.4099" x="28.5" y="252.4829">gestione gare</text><line style="stroke:#333333;stroke-width:0.95;" x1="19" x2="237.8099" y1="260.6562" y2="260.6562"/><line style="stroke:#333333;stroke-width:0.95;" x1="237.8099" x2="256.8099" y1="260.6562" y2="196.8281"/><polygon fill="#E2E2F0" points="308.0895,270.1562,357.4895,270.1562,380.2895,292.9562,357.4895,315.7562,308.0895,315.7562,285.2895,292.9562" style="stroke:#006400;stroke-width:2.85;"/><polygon fill="#E2E2F0" points="403.0895,270.1562,642.4895,270.1562,665.2895,292.9562,642.4895,315.7562,403.0895,315.7562,380.2895,292.9562" style="stroke:#006400;stroke-width:2.85;"/><polygon fill="#E2E2F0" points="688.0895,270.1562,1972.4895,270.1562,1995.2895,292.9562,1972.4895,315.7562,688.0895,315.7562,665.2895,292.9562" style="stroke:#006400;stroke-width:2.85;"/><polygon fill="#E2E2F0" points="2018.0895,270.1562,2090.2895,270.1562,2090.2895,315.7562,2018.0895,315.7562,1995.2895,292.9562" style="stroke:#E2E2F0;stroke-width:2.85;"/><path d="M2090.2895,270.1562 L2018.0895,270.1562 L1995.2895,292.9562 L2018.0895,315.7562 L2090.2895,315.7562" fill="#E2E2F0" style="stroke:#006400;stroke-width:2.85;"/><text fill="#333333" font-family="sans-serif" font-size="22.8" font-weight="bold" lengthAdjust="spacing" textLength="114.2561" x="275.6614" y="300.8494">In attesa</text><text fill="#333333" font-family="sans-serif" font-size="22.8" font-weight="bold" lengthAdjust="spacing" textLength="264.9164" x="390.3312" y="300.8494">Aggiornamento gara</text><text fill="#333333" font-family="sans-serif" font-size="22.8" font-weight="bold" lengthAdjust="spacing" textLength="114.2561" x="1273.1614" y="300.8494">In attesa</text><text fill="#333333" font-family="sans-serif" font-size="22.8" font-weight="bold" lengthAdjust="spacing" textLength="114.2561" x="2018.0895" y="300.8494">In attesa</text><line style="stroke:#333333;stroke-width:0.95;" x1="19" x2="2099.7895" y1="334.7562" y2="334.7562"/><text fill="#333333" font-family="sans-serif" font-size="26.6" font-weight="bold" lengthAdjust="spacing" textLength="158.1323" x="28.5" y="359.447">Stato gara</text><line style="stroke:#333333;stroke-width:0.95;" x1="19" x2="188.5323" y1="367.6203" y2="367.6203"/><line style="stroke:#333333;stroke-width:0.95;" x1="188.5323" x2="207.5323" y1="367.6203" y2="334.7562"/><text fill="#333333" font-family="sans-serif" font-size="22.8" lengthAdjust="spacing" textLength="100.2844" x="119.6184" y="576.9135">Proposta</text><text fill="#333333" font-family="sans-serif" font-size="22.8" lengthAdjust="spacing" textLength="156.1711" x="119.6184" y="538.9135">Programmato</text><text fill="#333333" font-family="sans-serif" font-size="22.8" lengthAdjust="spacing" textLength="134.8406" x="119.6184" y="500.9135">Confermata</text><text fill="#333333" font-family="sans-serif" font-size="22.8" lengthAdjust="spacing" textLength="93.3375" x="119.6184" y="462.9135">Rinviata</text><text fill="#333333" font-family="sans-serif" font-size="22.8" lengthAdjust="spacing" textLength="141.5203" x="119.6184" y="424.9135">Ripianificata</text><text fill="#333333" font-family="sans-serif" font-size="22.8" lengthAdjust="spacing" textLength="108.5004" x="119.6184" y="386.9135">Annullata</text><line style="stroke:#006400;stroke-width:3.8;" x1="285.2895" x2="380.2895" y1="567.1203" y2="567.1203"/><line style="stroke:#006400;stroke-width:3.8;" x1="380.2895" x2="665.2895" y1="529.1203" y2="529.1203"/><line style="stroke:#006400;stroke-width:3.8;" x1="665.2895" x2="760.2895" y1="491.1203" y2="491.1203"/><line style="stroke:#006400;stroke-width:3.8;" x1="760.2895" x2="1045.2895" y1="453.1203" y2="453.1203"/><line style="stroke:#006400;stroke-width:3.8;" x1="1045.2895" x2="1235.2895" y1="415.1203" y2="415.1203"/><line style="stroke:#006400;stroke-width:3.8;" x1="1235.2895" x2="1520.2895" y1="491.1203" y2="491.1203"/><line style="stroke:#006400;stroke-width:3.8;" x1="1520.2895" x2="2090.2895" y1="377.1203" y2="377.1203"/><line style="stroke:#006400;stroke-width:3.8;" x1="380.2895" x2="380.2895" y1="529.1203" y2="567.1203"/><line style="stroke:#006400;stroke-width:3.8;" x1="665.2895" x2="665.2895" y1="491.1203" y2="529.1203"/><line style="stroke:#006400;stroke-width:3.8;" x1="760.2895" x2="760.2895" y1="453.1203" y2="491.1203"/><line style="stroke:#006400;stroke-width:3.8;" x1="1045.2895" x2="1045.2895" y1="415.1203" y2="453.1203"/><line style="stroke:#006400;stroke-width:3.8;" x1="1235.2895" x2="1235.2895" y1="415.1203" y2="491.1203"/><line style="stroke:#006400;stroke-width:3.8;" x1="1520.2895" x2="1520.2895" y1="377.1203" y2="491.1203"/><line style="stroke:#333333;stroke-width:0.95;" x1="19" x2="2099.7895" y1="589.9203" y2="589.9203"/><text fill="#333333" font-family="sans-serif" font-size="26.6" font-weight="bold" lengthAdjust="spacing" textLength="134.6625" x="28.5" y="614.611">Iscrizioni</text><line style="stroke:#333333;stroke-width:0.95;" x1="19" x2="165.0625" y1="622.7844" y2="622.7844"/><line style="stroke:#333333;stroke-width:0.95;" x1="165.0625" x2="184.0625" y1="622.7844" y2="589.9203"/><text fill="#333333" font-family="sans-serif" font-size="22.8" lengthAdjust="spacing" textLength="77.0613" x="177.8541" y="718.0775">Chiuse</text><text fill="#333333" font-family="sans-serif" font-size="22.8" lengthAdjust="spacing" textLength="76.4379" x="177.8541" y="680.0775">Aperte</text><text fill="#333333" font-family="sans-serif" font-size="22.8" lengthAdjust="spacing" textLength="97.9354" x="177.8541" y="642.0775">Bloccate</text><line style="stroke:#006400;stroke-width:3.8;" x1="285.2895" x2="380.2895" y1="708.2844" y2="708.2844"/><line style="stroke:#006400;stroke-width:3.8;" x1="380.2895" x2="665.2895" y1="670.2844" y2="670.2844"/><line style="stroke:#006400;stroke-width:3.8;" x1="665.2895" x2="760.2895" y1="708.2844" y2="708.2844"/><line style="stroke:#006400;stroke-width:3.8;" x1="760.2895" x2="1045.2895" y1="632.2844" y2="632.2844"/><line style="stroke:#006400;stroke-width:3.8;" x1="1045.2895" x2="1235.2895" y1="670.2844" y2="670.2844"/><line style="stroke:#006400;stroke-width:3.8;" x1="1235.2895" x2="1520.2895" y1="708.2844" y2="708.2844"/><line style="stroke:#006400;stroke-width:3.8;" x1="1520.2895" x2="2090.2895" y1="632.2844" y2="632.2844"/><line style="stroke:#006400;stroke-width:3.8;" x1="380.2895" x2="380.2895" y1="670.2844" y2="708.2844"/><line style="stroke:#006400;stroke-width:3.8;" x1="665.2895" x2="665.2895" y1="670.2844" y2="708.2844"/><line style="stroke:#006400;stroke-width:3.8;" x1="760.2895" x2="760.2895" y1="632.2844" y2="708.2844"/><line style="stroke:#006400;stroke-width:3.8;" x1="1045.2895" x2="1045.2895" y1="632.2844" y2="670.2844"/><line style="stroke:#006400;stroke-width:3.8;" x1="1235.2895" x2="1235.2895" y1="670.2844" y2="708.2844"/><line style="stroke:#006400;stroke-width:3.8;" x1="1520.2895" x2="1520.2895" y1="632.2844" y2="708.2844"/><line style="stroke:#333333;stroke-width:0.95;" x1="19" x2="2099.7895" y1="731.0844" y2="731.0844"/><text fill="#333333" font-family="sans-serif" font-size="26.6" font-weight="bold" lengthAdjust="spacing" textLength="93.5416" x="28.5" y="755.7751">Meteo</text><line style="stroke:#333333;stroke-width:0.95;" x1="19" x2="123.9416" y1="763.9484" y2="763.9484"/><line style="stroke:#333333;stroke-width:0.95;" x1="123.9416" x2="142.9416" y1="763.9484" y2="731.0844"/><text fill="#333333" font-family="sans-serif" font-size="22.8" lengthAdjust="spacing" textLength="96.9223" x="120.8096" y="821.2416">Normale</text><text fill="#333333" font-family="sans-serif" font-size="22.8" lengthAdjust="spacing" textLength="154.9799" x="120.8096" y="783.2416">Allerta meteo</text><line style="stroke:#006400;stroke-width:3.8;" x1="285.2895" x2="760.2895" y1="811.4484" y2="811.4484"/><line style="stroke:#006400;stroke-width:3.8;" x1="760.2895" x2="1045.2895" y1="773.4484" y2="773.4484"/><line style="stroke:#006400;stroke-width:3.8;" x1="1045.2895" x2="1425.2895" y1="811.4484" y2="811.4484"/><line style="stroke:#006400;stroke-width:3.8;" x1="1425.2895" x2="2090.2895" y1="773.4484" y2="773.4484"/><line style="stroke:#006400;stroke-width:3.8;" x1="760.2895" x2="760.2895" y1="773.4484" y2="811.4484"/><line style="stroke:#006400;stroke-width:3.8;" x1="1045.2895" x2="1045.2895" y1="773.4484" y2="811.4484"/><line style="stroke:#006400;stroke-width:3.8;" x1="1425.2895" x2="1425.2895" y1="773.4484" y2="811.4484"/><line style="stroke:#333333;stroke-width:0.95;" x1="19" x2="2099.7895" y1="834.2484" y2="834.2484"/><text fill="#333333" font-family="sans-serif" font-size="26.6" font-weight="bold" lengthAdjust="spacing" textLength="160.9638" x="28.5" y="858.9392">Pagamenti</text><line style="stroke:#333333;stroke-width:0.95;" x1="19" x2="191.3638" y1="867.1125" y2="867.1125"/><line style="stroke:#333333;stroke-width:0.95;" x1="191.3638" x2="210.3638" y1="867.1125" y2="834.2484"/><text fill="#333333" font-family="sans-serif" font-size="22.8" lengthAdjust="spacing" textLength="221.4539" x="54.3355" y="1000.4057">Nessun pagamento</text><text fill="#333333" font-family="sans-serif" font-size="22.8" lengthAdjust="spacing" textLength="79.0541" x="54.3355" y="962.4057">Pagato</text><text fill="#333333" font-family="sans-serif" font-size="22.8" lengthAdjust="spacing" textLength="204.9773" x="54.3355" y="924.4057">Rimborso in corso</text><text fill="#333333" font-family="sans-serif" font-size="22.8" lengthAdjust="spacing" textLength="130.9219" x="54.3355" y="886.4057">Rimborsato</text><line style="stroke:#006400;stroke-width:3.8;" x1="285.2895" x2="475.2895" y1="990.6125" y2="990.6125"/><line style="stroke:#006400;stroke-width:3.8;" x1="475.2895" x2="1520.2895" y1="952.6125" y2="952.6125"/><line style="stroke:#006400;stroke-width:3.8;" x1="1520.2895" x2="1995.2895" y1="914.6125" y2="914.6125"/><line style="stroke:#006400;stroke-width:3.8;" x1="1995.2895" x2="2090.2895" y1="876.6125" y2="876.6125"/><line style="stroke:#006400;stroke-width:3.8;" x1="475.2895" x2="475.2895" y1="952.6125" y2="990.6125"/><line style="stroke:#006400;stroke-width:3.8;" x1="1520.2895" x2="1520.2895" y1="914.6125" y2="952.6125"/><line style="stroke:#006400;stroke-width:3.8;" x1="1995.2895" x2="1995.2895" y1="876.6125" y2="914.6125"/><line style="stroke:#333333;stroke-width:0.95;" x1="19" x2="2099.7895" y1="1013.4125" y2="1013.4125"/><text fill="#333333" font-family="sans-serif" font-size="26.6" font-weight="bold" lengthAdjust="spacing" textLength="135.8055" x="28.5" y="1038.1032">Notifiche</text><line style="stroke:#333333;stroke-width:0.95;" x1="19" x2="166.2055" y1="1046.2766" y2="1046.2766"/><line style="stroke:#333333;stroke-width:0.95;" x1="166.2055" x2="185.2055" y1="1046.2766" y2="1013.4125"/><text fill="#333333" font-family="sans-serif" font-size="22.8" lengthAdjust="spacing" textLength="97.7127" x="28.5" y="1179.5697">Nessuna</text><text fill="#333333" font-family="sans-serif" font-size="22.8" lengthAdjust="spacing" textLength="245.7346" x="28.5" y="1141.5697">Comunicazione rinvio</text><text fill="#333333" font-family="sans-serif" font-size="22.8" lengthAdjust="spacing" textLength="239.5336" x="28.5" y="1103.5697">Avviso annullamento</text><text fill="#333333" font-family="sans-serif" font-size="22.8" lengthAdjust="spacing" textLength="256.7895" x="28.5" y="1065.5697">Email rimborso inviata</text><line style="stroke:#006400;stroke-width:3.8;" x1="285.2895" x2="760.2895" y1="1169.7766" y2="1169.7766"/><line style="stroke:#006400;stroke-width:3.8;" x1="760.2895" x2="1045.2895" y1="1131.7766" y2="1131.7766"/><line style="stroke:#006400;stroke-width:3.8;" x1="1045.2895" x2="1520.2895" y1="1169.7766" y2="1169.7766"/><line style="stroke:#006400;stroke-width:3.8;" x1="1520.2895" x2="1995.2895" y1="1093.7766" y2="1093.7766"/><line style="stroke:#006400;stroke-width:3.8;" x1="1995.2895" x2="2090.2895" y1="1055.7766" y2="1055.7766"/><line style="stroke:#006400;stroke-width:3.8;" x1="760.2895" x2="760.2895" y1="1131.7766" y2="1169.7766"/><line style="stroke:#006400;stroke-width:3.8;" x1="1045.2895" x2="1045.2895" y1="1131.7766" y2="1169.7766"/><line style="stroke:#006400;stroke-width:3.8;" x1="1520.2895" x2="1520.2895" y1="1093.7766" y2="1169.7766"/><line style="stroke:#006400;stroke-width:3.8;" x1="1995.2895" x2="1995.2895" y1="1055.7766" y2="1093.7766"/><line style="stroke:#333333;stroke-width:3.8;" x1="285.2895" x2="285.2895" y1="1192.5766" y2="1202.0766"/><line style="stroke:#333333;stroke-width:3.8;" x1="380.2895" x2="380.2895" y1="1192.5766" y2="1202.0766"/><line style="stroke:#333333;stroke-width:3.8;" x1="475.2895" x2="475.2895" y1="1192.5766" y2="1202.0766"/><line style="stroke:#333333;stroke-width:3.8;" x1="570.2895" x2="570.2895" y1="1192.5766" y2="1202.0766"/><line style="stroke:#333333;stroke-width:3.8;" x1="665.2895" x2="665.2895" y1="1192.5766" y2="1202.0766"/><line style="stroke:#333333;stroke-width:3.8;" x1="760.2895" x2="760.2895" y1="1192.5766" y2="1202.0766"/><line style="stroke:#333333;stroke-width:3.8;" x1="855.2895" x2="855.2895" y1="1192.5766" y2="1202.0766"/><line style="stroke:#333333;stroke-width:3.8;" x1="950.2895" x2="950.2895" y1="1192.5766" y2="1202.0766"/><line style="stroke:#333333;stroke-width:3.8;" x1="1045.2895" x2="1045.2895" y1="1192.5766" y2="1202.0766"/><line style="stroke:#333333;stroke-width:3.8;" x1="1140.2895" x2="1140.2895" y1="1192.5766" y2="1202.0766"/><line style="stroke:#333333;stroke-width:3.8;" x1="1235.2895" x2="1235.2895" y1="1192.5766" y2="1202.0766"/><line style="stroke:#333333;stroke-width:3.8;" x1="1330.2895" x2="1330.2895" y1="1192.5766" y2="1202.0766"/><line style="stroke:#333333;stroke-width:3.8;" x1="1425.2895" x2="1425.2895" y1="1192.5766" y2="1202.0766"/><line style="stroke:#333333;stroke-width:3.8;" x1="1520.2895" x2="1520.2895" y1="1192.5766" y2="1202.0766"/><line style="stroke:#333333;stroke-width:3.8;" x1="1615.2895" x2="1615.2895" y1="1192.5766" y2="1202.0766"/><line style="stroke:#333333;stroke-width:3.8;" x1="1710.2895" x2="1710.2895" y1="1192.5766" y2="1202.0766"/><line style="stroke:#333333;stroke-width:3.8;" x1="1805.2895" x2="1805.2895" y1="1192.5766" y2="1202.0766"/><line style="stroke:#333333;stroke-width:3.8;" x1="1900.2895" x2="1900.2895" y1="1192.5766" y2="1202.0766"/><line style="stroke:#333333;stroke-width:3.8;" x1="1995.2895" x2="1995.2895" y1="1192.5766" y2="1202.0766"/><line style="stroke:#333333;stroke-width:3.8;" x1="2090.2895" x2="2090.2895" y1="1192.5766" y2="1202.0766"/><line style="stroke:#333333;stroke-width:3.8;" x1="285.2895" x2="2090.2895" y1="1192.5766" y2="1192.5766"/><text fill="#333333" font-family="sans-serif" font-size="20.9" lengthAdjust="spacing" textLength="13.2972" x="278.6408" y="1223.3764">0</text><text fill="#333333" font-family="sans-serif" font-size="20.9" lengthAdjust="spacing" textLength="13.2972" x="373.6408" y="1223.3764">5</text><text fill="#333333" font-family="sans-serif" font-size="20.9" lengthAdjust="spacing" textLength="26.5944" x="461.9922" y="1223.3764">10</text><text fill="#333333" font-family="sans-serif" font-size="20.9" lengthAdjust="spacing" textLength="26.5944" x="651.9922" y="1223.3764">20</text><text fill="#333333" font-family="sans-serif" font-size="20.9" lengthAdjust="spacing" textLength="26.5944" x="746.9922" y="1223.3764">25</text><text fill="#333333" font-family="sans-serif" font-size="20.9" lengthAdjust="spacing" textLength="26.5944" x="1031.9922" y="1223.3764">40</text><text fill="#333333" font-family="sans-serif" font-size="20.9" lengthAdjust="spacing" textLength="26.5944" x="1221.9922" y="1223.3764">50</text><text fill="#333333" font-family="sans-serif" font-size="20.9" lengthAdjust="spacing" textLength="26.5944" x="1411.9922" y="1223.3764">60</text><text fill="#333333" font-family="sans-serif" font-size="20.9" lengthAdjust="spacing" textLength="26.5944" x="1506.9922" y="1223.3764">65</text><text fill="#333333" font-family="sans-serif" font-size="20.9" lengthAdjust="spacing" textLength="26.5944" x="1981.9922" y="1223.3764">90</text><line style="stroke:#00008B;stroke-width:2.85;" x1="380.2895" x2="380.2895" y1="155.0281" y2="292.9562"/><polygon fill="#00008B" points="375.0907,278.6729,385.4882,278.6729,380.2895,292.9562" style="stroke:#00008B;stroke-width:2.85;"/><text fill="#00008B" font-family="Serif" font-size="26.6" lengthAdjust="spacing" textLength="250.1543" x="380.2895" y="272.3996">approvaProposta()</text><line style="stroke:#00008B;stroke-width:2.85;" x1="380.2895" x2="380.2895" y1="292.9562" y2="529.1203"/><polygon fill="#00008B" points="375.0907,514.837,385.4882,514.837,380.2895,529.1203" style="stroke:#00008B;stroke-width:2.85;"/><text fill="#00008B" font-family="Serif" font-size="26.6" lengthAdjust="spacing" textLength="312.9656" x="380.2895" y="508.5636">impostaProgrammato()</text><line style="stroke:#00008B;stroke-width:2.85;" x1="380.2895" x2="380.2895" y1="292.9562" y2="670.2844"/><polygon fill="#00008B" points="375.0907,656.001,385.4882,656.001,380.2895,670.2844" style="stroke:#00008B;stroke-width:2.85;"/><text fill="#00008B" font-family="Serif" font-size="26.6" lengthAdjust="spacing" textLength="199.3182" x="380.2895" y="649.7277">apriIscrizioni()</text><line style="stroke:#00008B;stroke-width:2.85;" x1="475.2895" x2="475.2895" y1="315.7562" y2="952.6125"/><polygon fill="#00008B" points="470.0907,938.3292,480.4882,938.3292,475.2895,952.6125" style="stroke:#00008B;stroke-width:2.85;"/><text fill="#00008B" font-family="Serif" font-size="26.6" lengthAdjust="spacing" textLength="279.1052" x="475.2895" y="932.0558">registraPagamento()</text><line style="stroke:#00008B;stroke-width:2.85;" x1="665.2895" x2="665.2895" y1="292.9562" y2="670.2844"/><polygon fill="#00008B" points="660.0907,656.001,670.4882,656.001,665.2895,670.2844" style="stroke:#00008B;stroke-width:2.85;"/><text fill="#00008B" font-family="Serif" font-size="26.6" lengthAdjust="spacing" textLength="228.4119" x="665.2895" y="649.7277">chiudiIscrizioni()</text><line style="stroke:#00008B;stroke-width:2.85;" x1="665.2895" x2="665.2895" y1="292.9562" y2="491.1203"/><polygon fill="#00008B" points="660.0907,476.837,670.4882,476.837,665.2895,491.1203" style="stroke:#00008B;stroke-width:2.85;"/><text fill="#00008B" font-family="Serif" font-size="26.6" lengthAdjust="spacing" textLength="232.8279" x="665.2895" y="470.5636">verificaMinMax()</text><line style="stroke:#00008B;stroke-width:2.85;" x1="760.2895" x2="760.2895" y1="773.4484" y2="155.0281"/><polygon fill="#00008B" points="765.4882,169.3115,755.0907,169.3115,760.2895,155.0281" style="stroke:#00008B;stroke-width:2.85;"/><text fill="#00008B" font-family="Serif" font-size="26.6" lengthAdjust="spacing" textLength="262.4412" x="760.2895" y="194.0022">inviaAllertaMeteo()</text><line style="stroke:#00008B;stroke-width:2.85;" x1="760.2895" x2="760.2895" y1="155.0281" y2="270.1562"/><polygon fill="#00008B" points="755.0907,255.8729,765.4882,255.8729,760.2895,270.1562" style="stroke:#00008B;stroke-width:2.85;"/><text fill="#00008B" font-family="Serif" font-size="26.6" lengthAdjust="spacing" textLength="209.0074" x="760.2895" y="249.5996">richiediRinvio()</text><line style="stroke:#00008B;stroke-width:2.85;" x1="760.2895" x2="760.2895" y1="315.7562" y2="453.1203"/><polygon fill="#00008B" points="755.0907,438.837,765.4882,438.837,760.2895,453.1203" style="stroke:#00008B;stroke-width:2.85;"/><text fill="#00008B" font-family="Serif" font-size="26.6" lengthAdjust="spacing" textLength="239.3351" x="760.2895" y="432.5636">impostaRinviata()</text><line style="stroke:#00008B;stroke-width:2.85;" x1="760.2895" x2="760.2895" y1="315.7562" y2="632.2844"/><polygon fill="#00008B" points="755.0907,618.001,765.4882,618.001,760.2895,632.2844" style="stroke:#00008B;stroke-width:2.85;"/><text fill="#00008B" font-family="Serif" font-size="26.6" lengthAdjust="spacing" textLength="232.4123" x="760.2895" y="611.7277">bloccaIscrizioni()</text><line style="stroke:#00008B;stroke-width:2.85;" x1="760.2895" x2="760.2895" y1="315.7562" y2="1131.7766"/><polygon fill="#00008B" points="755.0907,1117.4932,765.4882,1117.4932,760.2895,1131.7766" style="stroke:#00008B;stroke-width:2.85;"/><text fill="#00008B" font-family="Serif" font-size="26.6" lengthAdjust="spacing" textLength="207.4229" x="760.2895" y="1111.2199">notificaRinvio()</text><line style="stroke:#00008B;stroke-width:2.85;" x1="1045.2895" x2="1045.2895" y1="177.8281" y2="270.1562"/><polygon fill="#00008B" points="1040.0907,255.8729,1050.4882,255.8729,1045.2895,270.1562" style="stroke:#00008B;stroke-width:2.85;"/><text fill="#00008B" font-family="Serif" font-size="26.6" lengthAdjust="spacing" textLength="299.224" x="1045.2895" y="249.5996">confermaNuovaData()</text><line style="stroke:#00008B;stroke-width:2.85;" x1="1045.2895" x2="1045.2895" y1="315.7562" y2="415.1203"/><polygon fill="#00008B" points="1040.0907,400.837,1050.4882,400.837,1045.2895,415.1203" style="stroke:#00008B;stroke-width:2.85;"/><text fill="#00008B" font-family="Serif" font-size="26.6" lengthAdjust="spacing" textLength="298.9513" x="1045.2895" y="394.5636">impostaRipianificata()</text><line style="stroke:#00008B;stroke-width:2.85;" x1="1045.2895" x2="1045.2895" y1="315.7562" y2="632.2844"/><polygon fill="#00008B" points="1040.0907,618.001,1050.4882,618.001,1045.2895,632.2844" style="stroke:#00008B;stroke-width:2.85;"/><text fill="#00008B" font-family="Serif" font-size="26.6" lengthAdjust="spacing" textLength="220.541" x="1045.2895" y="611.7277">riapriIscrizioni()</text><line style="stroke:#00008B;stroke-width:2.85;" x1="1235.2895" x2="1235.2895" y1="315.7562" y2="670.2844"/><polygon fill="#00008B" points="1230.0907,656.001,1240.4882,656.001,1235.2895,670.2844" style="stroke:#00008B;stroke-width:2.85;"/><text fill="#00008B" font-family="Serif" font-size="26.6" lengthAdjust="spacing" textLength="228.4119" x="1235.2895" y="649.7277">chiudiIscrizioni()</text><line style="stroke:#00008B;stroke-width:2.85;" x1="1235.2895" x2="1235.2895" y1="315.7562" y2="415.1203"/><polygon fill="#00008B" points="1230.0907,400.837,1240.4882,400.837,1235.2895,415.1203" style="stroke:#00008B;stroke-width:2.85;"/><text fill="#00008B" font-family="Serif" font-size="26.6" lengthAdjust="spacing" textLength="213.865" x="1235.2895" y="394.5636">confermaGara()</text><line style="stroke:#00008B;stroke-width:2.85;" x1="1425.2895" x2="1425.2895" y1="773.4484" y2="155.0281"/><polygon fill="#00008B" points="1430.4882,169.3115,1420.0907,169.3115,1425.2895,155.0281" style="stroke:#00008B;stroke-width:2.85;"/><text fill="#00008B" font-family="Serif" font-size="26.6" lengthAdjust="spacing" textLength="265.948" x="1425.2895" y="194.0022">allertaGiornoGara()</text><line style="stroke:#00008B;stroke-width:2.85;" x1="1520.2895" x2="1520.2895" y1="177.8281" y2="270.1562"/><polygon fill="#00008B" points="1515.0907,255.8729,1525.4882,255.8729,1520.2895,270.1562" style="stroke:#00008B;stroke-width:2.85;"/><text fill="#00008B" font-family="Serif" font-size="26.6" lengthAdjust="spacing" textLength="186.5637" x="1520.2895" y="249.5996">annullaGara()</text><line style="stroke:#00008B;stroke-width:2.85;" x1="1520.2895" x2="1520.2895" y1="315.7562" y2="377.1203"/><polygon fill="#00008B" points="1515.0907,362.837,1525.4882,362.837,1520.2895,377.1203" style="stroke:#00008B;stroke-width:2.85;"/><text fill="#00008B" font-family="Serif" font-size="26.6" lengthAdjust="spacing" textLength="257.7524" x="1520.2895" y="356.5636">impostaAnnullata()</text><line style="stroke:#00008B;stroke-width:2.85;" x1="1520.2895" x2="1520.2895" y1="315.7562" y2="632.2844"/><polygon fill="#00008B" points="1515.0907,618.001,1525.4882,618.001,1520.2895,632.2844" style="stroke:#00008B;stroke-width:2.85;"/><text fill="#00008B" font-family="Serif" font-size="26.6" lengthAdjust="spacing" textLength="232.4123" x="1520.2895" y="611.7277">bloccaIscrizioni()</text><line style="stroke:#00008B;stroke-width:2.85;" x1="1520.2895" x2="1520.2895" y1="315.7562" y2="914.6125"/><polygon fill="#00008B" points="1515.0907,900.3292,1525.4882,900.3292,1520.2895,914.6125" style="stroke:#00008B;stroke-width:2.85;"/><text fill="#00008B" font-family="Serif" font-size="26.6" lengthAdjust="spacing" textLength="212.7091" x="1520.2895" y="894.0558">avviaRimborsi()</text><line style="stroke:#00008B;stroke-width:2.85;" x1="1520.2895" x2="1520.2895" y1="315.7562" y2="1093.7766"/><polygon fill="#00008B" points="1515.0907,1079.4932,1525.4882,1079.4932,1520.2895,1093.7766" style="stroke:#00008B;stroke-width:2.85;"/><text fill="#00008B" font-family="Serif" font-size="26.6" lengthAdjust="spacing" textLength="310.4849" x="1520.2895" y="1073.2199">notificaAnnullamento()</text><line style="stroke:#00008B;stroke-width:2.85;" x1="1995.2895" x2="1995.2895" y1="914.6125" y2="1055.7766"/><polygon fill="#00008B" points="1990.0907,1041.4932,2000.4882,1041.4932,1995.2895,1055.7766" style="stroke:#00008B;stroke-width:2.85;"/><text fill="#00008B" font-family="Serif" font-size="26.6" lengthAdjust="spacing" textLength="269.8575" x="1995.2895" y="1035.2199">confermaRimborsi()</text><!--SRC=[bLNBRXiv4BpFLpHqIVQGM0doG7m8DEiOMW6M8aX1JhcqH_IaaHboGdA4R1O1yXlxU_ibAN8u3riEuFN167MJ_QYkQdhnbQ8FKeikwI1SMgxf2PNAUJ5QaHLz57F6MhTLnRNItb39bd6M6kKApZByGuXdJz_WyuleXaE8BkAx5F2VZF2tPUkba8QrNxCjHTFhUNJWiDgdAA-YvKfkr9LejVUMlIh_fXVPZonxHBdtnWgTaLEbvagomkX2dA9PRg_5MpCZTfJlHljUd5SrVz93IoXVnMFxLMRDTUiyJdbEZNMUvU1PkSBATroKw5dj1yzQUTNbMryEnYsN4QNkz3OV71lZvKQAprtgpVlGJSWg91hnGo-BUPRlI1oIQlPUZcQMxLV9GB0enx0iesLhJMESXs6rZuQBpz8wDSlMb_7dnjWQYCwoRTxzLiwrcffK7q9ltaySY8E2hlxx-I_Nc1n00_36ghE4At7JM7DagfYQb9eKIKMk0nW7h2ACK0R0iiNBqD2Jjq2Qpli8VU6F_mZD1USIJgcZ4Sv0c1gv1p_w2vUjZAE0Bo7r5_Tn_OXMNfPYh9xGTGfRds10Bc-KzIe2iA9076Dj6644IvlGyjVM-CZveJkLBPxDKuM0-9oiAYDgFGD20mdxO0hva21EgOL-HfW08v82uweo1EpFQlwMBPxFf-qNk7Qu3S04lAEoWLky5htcR_3TeKJg_SBe6mLM1DASyYgeorh1Y5iTQ51LG8Mf3Yp7o0KZFgWgZZz-8mogV1duXZem3WmHkuBpxc9K1qf9TCoduMRzz3vorSBOBPdPb2mMKX5ra5rqtSkLwE89aI9IrvKf2hu7AT3zd7IdGXx3Tj3qiGPE_1d315OacLoOkjMu-Nso5YDecpR88i1n7kPuI4FrWO0WZuuw34DsWckDi8uLP8iNynEjJW0eqh1Y-7Vy6xtine1tWR1oefcXsScb4nNSinRsAZJ6aOLtoUl2kq1w006Y_n_CxRjSGgCFuctGQ4LHtYRnCJv7t5Eth-KsVw7v8nJxQZwbQpgoZC5I1G-Xw_Gn7DTcsfC7LSW1Yp2Ofe_cGTrWhOQbZZ9kxyNkM2hWTCPvvtymqUCsuYFul9FwsbZt6mtaa_96SWpPxf52McSfh87UCK1y3AJ9aHNs4u0WdgPIVe0YAA4hBLkycOUuVN4z8IQbtyxAawVhicOyG7Oi9sduTBdTVLT_0G00]--></g></svg>