<svg xmlns="http://www.w3.org/2000/svg" xmlns:xlink="http://www.w3.org/1999/xlink" contentStyleType="text/css" height="773px" preserveAspectRatio="none" style="width:3239px;height:773px;background:#FFFFFF;" version="1.1" viewBox="0 0 3239 773" width="3239px" zoomAndPan="magnify"><defs/><g><!--cluster app--><g id="cluster_app"><rect fill="none" height="100" rx="2.5" ry="2.5" style="stroke:#000000;stroke-width:1.5;" width="120" x="2559" y="67"/><text fill="#000000" font-family="sans-serif" font-size="14" font-weight="bold" lengthAdjust="spacing" textLength="26" x="2606" y="83.5332">app</text></g><!--cluster controller--><g id="cluster_controller"><rect fill="none" height="200" rx="2.5" ry="2.5" style="stroke:#000000;stroke-width:1.5;" width="1960" x="7" y="7"/><text fill="#000000" font-family="sans-serif" font-size="14" font-weight="bold" lengthAdjust="spacing" textLength="69" x="952.5" y="23.5332">controller</text></g><!--cluster home--><g id="cluster_home"><rect fill="none" height="116" rx="2.5" ry="2.5" style="stroke:#000000;stroke-width:1.5;" width="456" x="1479" y="59"/><text fill="#000000" font-family="sans-serif" font-size="14" font-weight="bold" lengthAdjust="spacing" textLength="39" x="1687.5" y="75.5332">home</text></g><!--cluster proposte--><g id="cluster_proposte"><rect fill="none" height="116" rx="2.5" ry="2.5" style="stroke:#000000;stroke-width:1.5;" width="412" x="39" y="59"/><text fill="#000000" font-family="sans-serif" font-size="14" font-weight="bold" lengthAdjust="spacing" textLength="64" x="213" y="75.5332">proposte</text></g><!--cluster reglog--><g id="cluster_reglog"><rect fill="none" height="116" rx="2.5" ry="2.5" style="stroke:#000000;stroke-width:1.5;" width="412" x="491" y="59"/><text fill="#000000" font-family="sans-serif" font-size="14" font-weight="bold" lengthAdjust="spacing" textLength="46" x="674" y="75.5332">reglog</text></g><!--cluster ricerche--><g id="cluster_ricerche"><rect fill="none" height="116" rx="2.5" ry="2.5" style="stroke:#000000;stroke-width:1.5;" width="496" x="943" y="59"/><text fill="#000000" font-family="sans-serif" font-size="14" font-weight="bold" lengthAdjust="spacing" textLength="59" x="1161.5" y="75.5332">ricerche</text></g><!--cluster service--><g id="cluster_service"><rect fill="none" height="448.36" rx="2.5" ry="2.5" style="stroke:#000000;stroke-width:1.5;" width="722" x="167" y="278.64"/><text fill="#000000" font-family="sans-serif" font-size="14" font-weight="bold" lengthAdjust="spacing" textLength="53" x="501.5" y="295.1732">service</text></g><!--cluster exception--><g id="cluster_exception"><rect fill="none" height="116" rx="2.5" ry="2.5" style="stroke:#000000;stroke-width:1.5;" width="366" x="483" y="455"/><text fill="#000000" font-family="sans-serif" font-size="14" font-weight="bold" lengthAdjust="spacing" textLength="70" x="631" y="471.5332">exception</text></g><!--cluster model--><g id="cluster_model"><rect fill="none" height="332" rx="2.5" ry="2.5" style="stroke:#000000;stroke-width:1.5;" width="1003" x="929" y="395"/><text fill="#000000" font-family="sans-serif" font-size="14" font-weight="bold" lengthAdjust="spacing" textLength="43" x="1409" y="411.5332">model</text></g><!--cluster enums--><g id="cluster_enums"><rect fill="none" height="116" rx="2.5" ry="2.5" style="stroke:#000000;stroke-width:1.5;" width="322" x="1570" y="455"/><text fill="#000000" font-family="sans-serif" font-size="14" font-weight="bold" lengthAdjust="spacing" textLength="47" x="1707.5" y="471.5332">enums</text></g><!--cluster interfaces--><g id="cluster_interfaces"><rect fill="none" height="116" rx="2.5" ry="2.5" style="stroke:#000000;stroke-width:1.5;" width="324" x="1206" y="455"/><text fill="#000000" font-family="sans-serif" font-size="14" font-weight="bold" lengthAdjust="spacing" textLength="71" x="1332.5" y="471.5332">interfaces</text></g><!--cluster db--><g id="cluster_db"><rect fill="none" height="372" rx="2.5" ry="2.5" style="stroke:#000000;stroke-width:1.5;" width="1254" x="1972" y="395"/><text fill="#000000" font-family="sans-serif" font-size="14" font-weight="bold" lengthAdjust="spacing" textLength="18" x="2590" y="411.5332">db</text></g><!--cluster repository--><g id="cluster_repository"><rect fill="none" height="272" rx="2.5" ry="2.5" style="stroke:#000000;stroke-width:1.5;" width="334" x="2418" y="455"/><text fill="#000000" font-family="sans-serif" font-size="14" font-weight="bold" lengthAdjust="spacing" textLength="72" x="2549" y="471.5332">repository</text></g><!--cluster exception--><g id="cluster_exception"><rect fill="none" height="116" rx="2.5" ry="2.5" style="stroke:#000000;stroke-width:1.5;" width="386" x="2792" y="611"/><text fill="#000000" font-family="sans-serif" font-size="14" font-weight="bold" lengthAdjust="spacing" textLength="70" x="2950" y="627.5332">exception</text></g><!--cluster utils--><g id="cluster_utils"><rect fill="none" height="116" rx="2.5" ry="2.5" style="stroke:#000000;stroke-width:1.5;" width="141" x="1012" y="239"/><text fill="#000000" font-family="sans-serif" font-size="14" font-weight="bold" lengthAdjust="spacing" textLength="30" x="1067.5" y="255.5332">utils</text></g><!--class MainApp--><g id="elem_MainApp"><rect codeLine="5" fill="#F1F1F1" height="48" id="MainApp" rx="2.5" ry="2.5" style="stroke:#181818;stroke-width:0.5;" width="87" x="2575.5" y="103"/><ellipse cx="2590.5" cy="119" fill="#ADD1B2" rx="11" ry="11" style="stroke:#181818;stroke-width:1.0;"/><path d="M2593.2656,114.875 Q2593.4219,114.6563 2593.6094,114.5469 Q2593.7969,114.4375 2594.0156,114.4375 Q2594.3906,114.4375 2594.625,114.7031 Q2594.8594,114.9531 2594.8594,115.5625 L2594.8594,117.0156 Q2594.8594,117.625 2594.625,117.8906 Q2594.3906,118.1563 2594.0156,118.1563 Q2593.6719,118.1563 2593.4688,117.9531 Q2593.2656,117.7656 2593.1563,117.25 Q2593.1094,116.8906 2592.9219,116.7031 Q2592.5938,116.3281 2591.9844,116.1094 Q2591.375,115.8906 2590.75,115.8906 Q2589.9844,115.8906 2589.3438,116.2188 Q2588.7188,116.5469 2588.2188,117.2969 Q2587.7344,118.0469 2587.7344,119.0781 L2587.7344,120.1719 Q2587.7344,121.4063 2588.625,122.2344 Q2589.5156,123.0469 2591.1094,123.0469 Q2592.0469,123.0469 2592.7031,122.7969 Q2593.0938,122.6406 2593.5156,122.2031 Q2593.7813,121.9375 2593.9219,121.8594 Q2594.0781,121.7813 2594.2813,121.7813 Q2594.6094,121.7813 2594.8594,122.0469 Q2595.125,122.2969 2595.125,122.6406 Q2595.125,122.9844 2594.7813,123.3906 Q2594.2813,123.9688 2593.4844,124.2969 Q2592.4063,124.75 2591.1094,124.75 Q2589.5938,124.75 2588.3906,124.125 Q2587.4063,123.625 2586.7188,122.5625 Q2586.0313,121.4844 2586.0313,120.2031 L2586.0313,119.0469 Q2586.0313,117.7188 2586.6406,116.5781 Q2587.2656,115.4219 2588.3594,114.8125 Q2589.4531,114.1875 2590.6875,114.1875 Q2591.4219,114.1875 2592.0625,114.3594 Q2592.7188,114.5156 2593.2656,114.875 Z " fill="#000000"/><text fill="#000000" font-family="sans-serif" font-size="14" lengthAdjust="spacing" textLength="55" x="2604.5" y="124.7285">MainApp</text><line style="stroke:#181818;stroke-width:0.5;" x1="2576.5" x2="2661.5" y1="135" y2="135"/><line style="stroke:#181818;stroke-width:0.5;" x1="2576.5" x2="2661.5" y1="143" y2="143"/></g><!--class HomeController--><g id="elem_HomeController"><rect codeLine="9" fill="#F1F1F1" height="48" id="HomeController" rx="2.5" ry="2.5" style="stroke:#181818;stroke-width:0.5;" width="130" x="1781" y="103"/><ellipse cx="1796" cy="119" fill="#ADD1B2" rx="11" ry="11" style="stroke:#181818;stroke-width:1.0;"/><path d="M1798.7656,114.875 Q1798.9219,114.6563 1799.1094,114.5469 Q1799.2969,114.4375 1799.5156,114.4375 Q1799.8906,114.4375 1800.125,114.7031 Q1800.3594,114.9531 1800.3594,115.5625 L1800.3594,117.0156 Q1800.3594,117.625 1800.125,117.8906 Q1799.8906,118.1563 1799.5156,118.1563 Q1799.1719,118.1563 1798.9688,117.9531 Q1798.7656,117.7656 1798.6563,117.25 Q1798.6094,116.8906 1798.4219,116.7031 Q1798.0938,116.3281 1797.4844,116.1094 Q1796.875,115.8906 1796.25,115.8906 Q1795.4844,115.8906 1794.8438,116.2188 Q1794.2188,116.5469 1793.7188,117.2969 Q1793.2344,118.0469 1793.2344,119.0781 L1793.2344,120.1719 Q1793.2344,121.4063 1794.125,122.2344 Q1795.0156,123.0469 1796.6094,123.0469 Q1797.5469,123.0469 1798.2031,122.7969 Q1798.5938,122.6406 1799.0156,122.2031 Q1799.2813,121.9375 1799.4219,121.8594 Q1799.5781,121.7813 1799.7813,121.7813 Q1800.1094,121.7813 1800.3594,122.0469 Q1800.625,122.2969 1800.625,122.6406 Q1800.625,122.9844 1800.2813,123.3906 Q1799.7813,123.9688 1798.9844,124.2969 Q1797.9063,124.75 1796.6094,124.75 Q1795.0938,124.75 1793.8906,124.125 Q1792.9063,123.625 1792.2188,122.5625 Q1791.5313,121.4844 1791.5313,120.2031 L1791.5313,119.0469 Q1791.5313,117.7188 1792.1406,116.5781 Q1792.7656,115.4219 1793.8594,114.8125 Q1794.9531,114.1875 1796.1875,114.1875 Q1796.9219,114.1875 1797.5625,114.3594 Q1798.2188,114.5156 1798.7656,114.875 Z " fill="#000000"/><text fill="#000000" font-family="sans-serif" font-size="14" lengthAdjust="spacing" textLength="98" x="1810" y="124.7285">HomeController</text><line style="stroke:#181818;stroke-width:0.5;" x1="1782" x2="1910" y1="135" y2="135"/><line style="stroke:#181818;stroke-width:0.5;" x1="1782" x2="1910" y1="143" y2="143"/></g><!--class AmministratoreHomeController--><g id="elem_AmministratoreHomeController"><rect codeLine="10" fill="#F1F1F1" height="48" id="AmministratoreHomeController" rx="2.5" ry="2.5" style="stroke:#181818;stroke-width:0.5;" width="224" x="1522" y="103"/><ellipse cx="1537" cy="119" fill="#ADD1B2" rx="11" ry="11" style="stroke:#181818;stroke-width:1.0;"/><path d="M1539.7656,114.875 Q1539.9219,114.6563 1540.1094,114.5469 Q1540.2969,114.4375 1540.5156,114.4375 Q1540.8906,114.4375 1541.125,114.7031 Q1541.3594,114.9531 1541.3594,115.5625 L1541.3594,117.0156 Q1541.3594,117.625 1541.125,117.8906 Q1540.8906,118.1563 1540.5156,118.1563 Q1540.1719,118.1563 1539.9688,117.9531 Q1539.7656,117.7656 1539.6563,117.25 Q1539.6094,116.8906 1539.4219,116.7031 Q1539.0938,116.3281 1538.4844,116.1094 Q1537.875,115.8906 1537.25,115.8906 Q1536.4844,115.8906 1535.8438,116.2188 Q1535.2188,116.5469 1534.7188,117.2969 Q1534.2344,118.0469 1534.2344,119.0781 L1534.2344,120.1719 Q1534.2344,121.4063 1535.125,122.2344 Q1536.0156,123.0469 1537.6094,123.0469 Q1538.5469,123.0469 1539.2031,122.7969 Q1539.5938,122.6406 1540.0156,122.2031 Q1540.2813,121.9375 1540.4219,121.8594 Q1540.5781,121.7813 1540.7813,121.7813 Q1541.1094,121.7813 1541.3594,122.0469 Q1541.625,122.2969 1541.625,122.6406 Q1541.625,122.9844 1541.2813,123.3906 Q1540.7813,123.9688 1539.9844,124.2969 Q1538.9063,124.75 1537.6094,124.75 Q1536.0938,124.75 1534.8906,124.125 Q1533.9063,123.625 1533.2188,122.5625 Q1532.5313,121.4844 1532.5313,120.2031 L1532.5313,119.0469 Q1532.5313,117.7188 1533.1406,116.5781 Q1533.7656,115.4219 1534.8594,114.8125 Q1535.9531,114.1875 1537.1875,114.1875 Q1537.9219,114.1875 1538.5625,114.3594 Q1539.2188,114.5156 1539.7656,114.875 Z " fill="#000000"/><text fill="#000000" font-family="sans-serif" font-size="14" lengthAdjust="spacing" textLength="192" x="1551" y="124.7285">AmministratoreHomeController</text><line style="stroke:#181818;stroke-width:0.5;" x1="1523" x2="1745" y1="135" y2="135"/><line style="stroke:#181818;stroke-width:0.5;" x1="1523" x2="1745" y1="143" y2="143"/></g><!--class ProponiGaraController--><g id="elem_ProponiGaraController"><rect codeLine="14" fill="#F1F1F1" height="48" id="ProponiGaraController" rx="2.5" ry="2.5" style="stroke:#181818;stroke-width:0.5;" width="175" x="251.5" y="103"/><ellipse cx="266.5" cy="119" fill="#ADD1B2" rx="11" ry="11" style="stroke:#181818;stroke-width:1.0;"/><path d="M269.2656,114.875 Q269.4219,114.6563 269.6094,114.5469 Q269.7969,114.4375 270.0156,114.4375 Q270.3906,114.4375 270.625,114.7031 Q270.8594,114.9531 270.8594,115.5625 L270.8594,117.0156 Q270.8594,117.625 270.625,117.8906 Q270.3906,118.1563 270.0156,118.1563 Q269.6719,118.1563 269.4688,117.9531 Q269.2656,117.7656 269.1563,117.25 Q269.1094,116.8906 268.9219,116.7031 Q268.5938,116.3281 267.9844,116.1094 Q267.375,115.8906 266.75,115.8906 Q265.9844,115.8906 265.3438,116.2188 Q264.7188,116.5469 264.2188,117.2969 Q263.7344,118.0469 263.7344,119.0781 L263.7344,120.1719 Q263.7344,121.4063 264.625,122.2344 Q265.5156,123.0469 267.1094,123.0469 Q268.0469,123.0469 268.7031,122.7969 Q269.0938,122.6406 269.5156,122.2031 Q269.7813,121.9375 269.9219,121.8594 Q270.0781,121.7813 270.2813,121.7813 Q270.6094,121.7813 270.8594,122.0469 Q271.125,122.2969 271.125,122.6406 Q271.125,122.9844 270.7813,123.3906 Q270.2813,123.9688 269.4844,124.2969 Q268.4063,124.75 267.1094,124.75 Q265.5938,124.75 264.3906,124.125 Q263.4063,123.625 262.7188,122.5625 Q262.0313,121.4844 262.0313,120.2031 L262.0313,119.0469 Q262.0313,117.7188 262.6406,116.5781 Q263.2656,115.4219 264.3594,114.8125 Q265.4531,114.1875 266.6875,114.1875 Q267.4219,114.1875 268.0625,114.3594 Q268.7188,114.5156 269.2656,114.875 Z " fill="#000000"/><text fill="#000000" font-family="sans-serif" font-size="14" lengthAdjust="spacing" textLength="143" x="280.5" y="124.7285">ProponiGaraController</text><line style="stroke:#181818;stroke-width:0.5;" x1="252.5" x2="425.5" y1="135" y2="135"/><line style="stroke:#181818;stroke-width:0.5;" x1="252.5" x2="425.5" y1="143" y2="143"/></g><!--class DefinizioneTurni--><g id="elem_DefinizioneTurni"><rect codeLine="15" fill="#F1F1F1" height="48" id="DefinizioneTurni" rx="2.5" ry="2.5" style="stroke:#181818;stroke-width:0.5;" width="134" x="82" y="103"/><ellipse cx="97" cy="119" fill="#ADD1B2" rx="11" ry="11" style="stroke:#181818;stroke-width:1.0;"/><path d="M99.7656,114.875 Q99.9219,114.6563 100.1094,114.5469 Q100.2969,114.4375 100.5156,114.4375 Q100.8906,114.4375 101.125,114.7031 Q101.3594,114.9531 101.3594,115.5625 L101.3594,117.0156 Q101.3594,117.625 101.125,117.8906 Q100.8906,118.1563 100.5156,118.1563 Q100.1719,118.1563 99.9688,117.9531 Q99.7656,117.7656 99.6563,117.25 Q99.6094,116.8906 99.4219,116.7031 Q99.0938,116.3281 98.4844,116.1094 Q97.875,115.8906 97.25,115.8906 Q96.4844,115.8906 95.8438,116.2188 Q95.2188,116.5469 94.7188,117.2969 Q94.2344,118.0469 94.2344,119.0781 L94.2344,120.1719 Q94.2344,121.4063 95.125,122.2344 Q96.0156,123.0469 97.6094,123.0469 Q98.5469,123.0469 99.2031,122.7969 Q99.5938,122.6406 100.0156,122.2031 Q100.2813,121.9375 100.4219,121.8594 Q100.5781,121.7813 100.7813,121.7813 Q101.1094,121.7813 101.3594,122.0469 Q101.625,122.2969 101.625,122.6406 Q101.625,122.9844 101.2813,123.3906 Q100.7813,123.9688 99.9844,124.2969 Q98.9063,124.75 97.6094,124.75 Q96.0938,124.75 94.8906,124.125 Q93.9063,123.625 93.2188,122.5625 Q92.5313,121.4844 92.5313,120.2031 L92.5313,119.0469 Q92.5313,117.7188 93.1406,116.5781 Q93.7656,115.4219 94.8594,114.8125 Q95.9531,114.1875 97.1875,114.1875 Q97.9219,114.1875 98.5625,114.3594 Q99.2188,114.5156 99.7656,114.875 Z " fill="#000000"/><text fill="#000000" font-family="sans-serif" font-size="14" lengthAdjust="spacing" textLength="102" x="111" y="124.7285">DefinizioneTurni</text><line style="stroke:#181818;stroke-width:0.5;" x1="83" x2="215" y1="135" y2="135"/><line style="stroke:#181818;stroke-width:0.5;" x1="83" x2="215" y1="143" y2="143"/></g><!--class LoginController--><g id="elem_LoginController"><rect codeLine="19" fill="#F1F1F1" height="48" id="LoginController" rx="2.5" ry="2.5" style="stroke:#181818;stroke-width:0.5;" width="129" x="749.5" y="103"/><ellipse cx="764.5" cy="119" fill="#ADD1B2" rx="11" ry="11" style="stroke:#181818;stroke-width:1.0;"/><path d="M767.2656,114.875 Q767.4219,114.6563 767.6094,114.5469 Q767.7969,114.4375 768.0156,114.4375 Q768.3906,114.4375 768.625,114.7031 Q768.8594,114.9531 768.8594,115.5625 L768.8594,117.0156 Q768.8594,117.625 768.625,117.8906 Q768.3906,118.1563 768.0156,118.1563 Q767.6719,118.1563 767.4688,117.9531 Q767.2656,117.7656 767.1563,117.25 Q767.1094,116.8906 766.9219,116.7031 Q766.5938,116.3281 765.9844,116.1094 Q765.375,115.8906 764.75,115.8906 Q763.9844,115.8906 763.3438,116.2188 Q762.7188,116.5469 762.2188,117.2969 Q761.7344,118.0469 761.7344,119.0781 L761.7344,120.1719 Q761.7344,121.4063 762.625,122.2344 Q763.5156,123.0469 765.1094,123.0469 Q766.0469,123.0469 766.7031,122.7969 Q767.0938,122.6406 767.5156,122.2031 Q767.7813,121.9375 767.9219,121.8594 Q768.0781,121.7813 768.2813,121.7813 Q768.6094,121.7813 768.8594,122.0469 Q769.125,122.2969 769.125,122.6406 Q769.125,122.9844 768.7813,123.3906 Q768.2813,123.9688 767.4844,124.2969 Q766.4063,124.75 765.1094,124.75 Q763.5938,124.75 762.3906,124.125 Q761.4063,123.625 760.7188,122.5625 Q760.0313,121.4844 760.0313,120.2031 L760.0313,119.0469 Q760.0313,117.7188 760.6406,116.5781 Q761.2656,115.4219 762.3594,114.8125 Q763.4531,114.1875 764.6875,114.1875 Q765.4219,114.1875 766.0625,114.3594 Q766.7188,114.5156 767.2656,114.875 Z " fill="#000000"/><text fill="#000000" font-family="sans-serif" font-size="14" lengthAdjust="spacing" textLength="97" x="778.5" y="124.7285">LoginController</text><line style="stroke:#181818;stroke-width:0.5;" x1="750.5" x2="877.5" y1="135" y2="135"/><line style="stroke:#181818;stroke-width:0.5;" x1="750.5" x2="877.5" y1="143" y2="143"/></g><!--class RegistrazioneController--><g id="elem_RegistrazioneController"><rect codeLine="20" fill="#F1F1F1" height="48" id="RegistrazioneController" rx="2.5" ry="2.5" style="stroke:#181818;stroke-width:0.5;" width="180" x="534" y="103"/><ellipse cx="549" cy="119" fill="#ADD1B2" rx="11" ry="11" style="stroke:#181818;stroke-width:1.0;"/><path d="M551.7656,114.875 Q551.9219,114.6563 552.1094,114.5469 Q552.2969,114.4375 552.5156,114.4375 Q552.8906,114.4375 553.125,114.7031 Q553.3594,114.9531 553.3594,115.5625 L553.3594,117.0156 Q553.3594,117.625 553.125,117.8906 Q552.8906,118.1563 552.5156,118.1563 Q552.1719,118.1563 551.9688,117.9531 Q551.7656,117.7656 551.6563,117.25 Q551.6094,116.8906 551.4219,116.7031 Q551.0938,116.3281 550.4844,116.1094 Q549.875,115.8906 549.25,115.8906 Q548.4844,115.8906 547.8438,116.2188 Q547.2188,116.5469 546.7188,117.2969 Q546.2344,118.0469 546.2344,119.0781 L546.2344,120.1719 Q546.2344,121.4063 547.125,122.2344 Q548.0156,123.0469 549.6094,123.0469 Q550.5469,123.0469 551.2031,122.7969 Q551.5938,122.6406 552.0156,122.2031 Q552.2813,121.9375 552.4219,121.8594 Q552.5781,121.7813 552.7813,121.7813 Q553.1094,121.7813 553.3594,122.0469 Q553.625,122.2969 553.625,122.6406 Q553.625,122.9844 553.2813,123.3906 Q552.7813,123.9688 551.9844,124.2969 Q550.9063,124.75 549.6094,124.75 Q548.0938,124.75 546.8906,124.125 Q545.9063,123.625 545.2188,122.5625 Q544.5313,121.4844 544.5313,120.2031 L544.5313,119.0469 Q544.5313,117.7188 545.1406,116.5781 Q545.7656,115.4219 546.8594,114.8125 Q547.9531,114.1875 549.1875,114.1875 Q549.9219,114.1875 550.5625,114.3594 Q551.2188,114.5156 551.7656,114.875 Z " fill="#000000"/><text fill="#000000" font-family="sans-serif" font-size="14" lengthAdjust="spacing" textLength="148" x="563" y="124.7285">RegistrazioneController</text><line style="stroke:#181818;stroke-width:0.5;" x1="535" x2="713" y1="135" y2="135"/><line style="stroke:#181818;stroke-width:0.5;" x1="535" x2="713" y1="143" y2="143"/></g><!--class RicercaGaraController--><g id="elem_RicercaGaraController"><rect codeLine="24" fill="#F1F1F1" height="48" id="RicercaGaraController" rx="2.5" ry="2.5" style="stroke:#181818;stroke-width:0.5;" width="174" x="1241" y="103"/><ellipse cx="1256" cy="119" fill="#ADD1B2" rx="11" ry="11" style="stroke:#181818;stroke-width:1.0;"/><path d="M1258.7656,114.875 Q1258.9219,114.6563 1259.1094,114.5469 Q1259.2969,114.4375 1259.5156,114.4375 Q1259.8906,114.4375 1260.125,114.7031 Q1260.3594,114.9531 1260.3594,115.5625 L1260.3594,117.0156 Q1260.3594,117.625 1260.125,117.8906 Q1259.8906,118.1563 1259.5156,118.1563 Q1259.1719,118.1563 1258.9688,117.9531 Q1258.7656,117.7656 1258.6563,117.25 Q1258.6094,116.8906 1258.4219,116.7031 Q1258.0938,116.3281 1257.4844,116.1094 Q1256.875,115.8906 1256.25,115.8906 Q1255.4844,115.8906 1254.8438,116.2188 Q1254.2188,116.5469 1253.7188,117.2969 Q1253.2344,118.0469 1253.2344,119.0781 L1253.2344,120.1719 Q1253.2344,121.4063 1254.125,122.2344 Q1255.0156,123.0469 1256.6094,123.0469 Q1257.5469,123.0469 1258.2031,122.7969 Q1258.5938,122.6406 1259.0156,122.2031 Q1259.2813,121.9375 1259.4219,121.8594 Q1259.5781,121.7813 1259.7813,121.7813 Q1260.1094,121.7813 1260.3594,122.0469 Q1260.625,122.2969 1260.625,122.6406 Q1260.625,122.9844 1260.2813,123.3906 Q1259.7813,123.9688 1258.9844,124.2969 Q1257.9063,124.75 1256.6094,124.75 Q1255.0938,124.75 1253.8906,124.125 Q1252.9063,123.625 1252.2188,122.5625 Q1251.5313,121.4844 1251.5313,120.2031 L1251.5313,119.0469 Q1251.5313,117.7188 1252.1406,116.5781 Q1252.7656,115.4219 1253.8594,114.8125 Q1254.9531,114.1875 1256.1875,114.1875 Q1256.9219,114.1875 1257.5625,114.3594 Q1258.2188,114.5156 1258.7656,114.875 Z " fill="#000000"/><text fill="#000000" font-family="sans-serif" font-size="14" lengthAdjust="spacing" textLength="142" x="1270" y="124.7285">RicercaGaraController</text><line style="stroke:#181818;stroke-width:0.5;" x1="1242" x2="1414" y1="135" y2="135"/><line style="stroke:#181818;stroke-width:0.5;" x1="1242" x2="1414" y1="143" y2="143"/></g><!--class RicercaCampoGaraController--><g id="elem_RicercaCampoGaraController"><rect codeLine="25" fill="#F1F1F1" height="48" id="RicercaCampoGaraController" rx="2.5" ry="2.5" style="stroke:#181818;stroke-width:0.5;" width="219" x="986.5" y="103"/><ellipse cx="1001.5" cy="119" fill="#ADD1B2" rx="11" ry="11" style="stroke:#181818;stroke-width:1.0;"/><path d="M1004.2656,114.875 Q1004.4219,114.6563 1004.6094,114.5469 Q1004.7969,114.4375 1005.0156,114.4375 Q1005.3906,114.4375 1005.625,114.7031 Q1005.8594,114.9531 1005.8594,115.5625 L1005.8594,117.0156 Q1005.8594,117.625 1005.625,117.8906 Q1005.3906,118.1563 1005.0156,118.1563 Q1004.6719,118.1563 1004.4688,117.9531 Q1004.2656,117.7656 1004.1563,117.25 Q1004.1094,116.8906 1003.9219,116.7031 Q1003.5938,116.3281 1002.9844,116.1094 Q1002.375,115.8906 1001.75,115.8906 Q1000.9844,115.8906 1000.3438,116.2188 Q999.7188,116.5469 999.2188,117.2969 Q998.7344,118.0469 998.7344,119.0781 L998.7344,120.1719 Q998.7344,121.4063 999.625,122.2344 Q1000.5156,123.0469 1002.1094,123.0469 Q1003.0469,123.0469 1003.7031,122.7969 Q1004.0938,122.6406 1004.5156,122.2031 Q1004.7813,121.9375 1004.9219,121.8594 Q1005.0781,121.7813 1005.2813,121.7813 Q1005.6094,121.7813 1005.8594,122.0469 Q1006.125,122.2969 1006.125,122.6406 Q1006.125,122.9844 1005.7813,123.3906 Q1005.2813,123.9688 1004.4844,124.2969 Q1003.4063,124.75 1002.1094,124.75 Q1000.5938,124.75 999.3906,124.125 Q998.4063,123.625 997.7188,122.5625 Q997.0313,121.4844 997.0313,120.2031 L997.0313,119.0469 Q997.0313,117.7188 997.6406,116.5781 Q998.2656,115.4219 999.3594,114.8125 Q1000.4531,114.1875 1001.6875,114.1875 Q1002.4219,114.1875 1003.0625,114.3594 Q1003.7188,114.5156 1004.2656,114.875 Z " fill="#000000"/><text fill="#000000" font-family="sans-serif" font-size="14" lengthAdjust="spacing" textLength="187" x="1015.5" y="124.7285">RicercaCampoGaraController</text><line style="stroke:#181818;stroke-width:0.5;" x1="987.5" x2="1204.5" y1="135" y2="135"/><line style="stroke:#181818;stroke-width:0.5;" x1="987.5" x2="1204.5" y1="143" y2="143"/></g><!--class HomeService--><g id="elem_HomeService"><rect codeLine="29" fill="#F1F1F1" height="48" id="HomeService" rx="2.5" ry="2.5" style="stroke:#181818;stroke-width:0.5;" width="115" x="191.5" y="499"/><ellipse cx="206.5" cy="515" fill="#ADD1B2" rx="11" ry="11" style="stroke:#181818;stroke-width:1.0;"/><path d="M209.2656,510.875 Q209.4219,510.6563 209.6094,510.5469 Q209.7969,510.4375 210.0156,510.4375 Q210.3906,510.4375 210.625,510.7031 Q210.8594,510.9531 210.8594,511.5625 L210.8594,513.0156 Q210.8594,513.625 210.625,513.8906 Q210.3906,514.1563 210.0156,514.1563 Q209.6719,514.1563 209.4688,513.9531 Q209.2656,513.7656 209.1563,513.25 Q209.1094,512.8906 208.9219,512.7031 Q208.5938,512.3281 207.9844,512.1094 Q207.375,511.8906 206.75,511.8906 Q205.9844,511.8906 205.3438,512.2188 Q204.7188,512.5469 204.2188,513.2969 Q203.7344,514.0469 203.7344,515.0781 L203.7344,516.1719 Q203.7344,517.4063 204.625,518.2344 Q205.5156,519.0469 207.1094,519.0469 Q208.0469,519.0469 208.7031,518.7969 Q209.0938,518.6406 209.5156,518.2031 Q209.7813,517.9375 209.9219,517.8594 Q210.0781,517.7813 210.2813,517.7813 Q210.6094,517.7813 210.8594,518.0469 Q211.125,518.2969 211.125,518.6406 Q211.125,518.9844 210.7813,519.3906 Q210.2813,519.9688 209.4844,520.2969 Q208.4063,520.75 207.1094,520.75 Q205.5938,520.75 204.3906,520.125 Q203.4063,519.625 202.7188,518.5625 Q202.0313,517.4844 202.0313,516.2031 L202.0313,515.0469 Q202.0313,513.7188 202.6406,512.5781 Q203.2656,511.4219 204.3594,510.8125 Q205.4531,510.1875 206.6875,510.1875 Q207.4219,510.1875 208.0625,510.3594 Q208.7188,510.5156 209.2656,510.875 Z " fill="#000000"/><text fill="#000000" font-family="sans-serif" font-size="14" lengthAdjust="spacing" textLength="83" x="220.5" y="520.7285">HomeService</text><line style="stroke:#181818;stroke-width:0.5;" x1="192.5" x2="305.5" y1="531" y2="531"/><line style="stroke:#181818;stroke-width:0.5;" x1="192.5" x2="305.5" y1="539" y2="539"/></g><!--class LoginService--><g id="elem_LoginService"><rect codeLine="30" fill="#F1F1F1" height="48" id="LoginService" rx="2.5" ry="2.5" style="stroke:#181818;stroke-width:0.5;" width="114" x="342" y="499"/><ellipse cx="357" cy="515" fill="#ADD1B2" rx="11" ry="11" style="stroke:#181818;stroke-width:1.0;"/><path d="M359.7656,510.875 Q359.9219,510.6563 360.1094,510.5469 Q360.2969,510.4375 360.5156,510.4375 Q360.8906,510.4375 361.125,510.7031 Q361.3594,510.9531 361.3594,511.5625 L361.3594,513.0156 Q361.3594,513.625 361.125,513.8906 Q360.8906,514.1563 360.5156,514.1563 Q360.1719,514.1563 359.9688,513.9531 Q359.7656,513.7656 359.6563,513.25 Q359.6094,512.8906 359.4219,512.7031 Q359.0938,512.3281 358.4844,512.1094 Q357.875,511.8906 357.25,511.8906 Q356.4844,511.8906 355.8438,512.2188 Q355.2188,512.5469 354.7188,513.2969 Q354.2344,514.0469 354.2344,515.0781 L354.2344,516.1719 Q354.2344,517.4063 355.125,518.2344 Q356.0156,519.0469 357.6094,519.0469 Q358.5469,519.0469 359.2031,518.7969 Q359.5938,518.6406 360.0156,518.2031 Q360.2813,517.9375 360.4219,517.8594 Q360.5781,517.7813 360.7813,517.7813 Q361.1094,517.7813 361.3594,518.0469 Q361.625,518.2969 361.625,518.6406 Q361.625,518.9844 361.2813,519.3906 Q360.7813,519.9688 359.9844,520.2969 Q358.9063,520.75 357.6094,520.75 Q356.0938,520.75 354.8906,520.125 Q353.9063,519.625 353.2188,518.5625 Q352.5313,517.4844 352.5313,516.2031 L352.5313,515.0469 Q352.5313,513.7188 353.1406,512.5781 Q353.7656,511.4219 354.8594,510.8125 Q355.9531,510.1875 357.1875,510.1875 Q357.9219,510.1875 358.5625,510.3594 Q359.2188,510.5156 359.7656,510.875 Z " fill="#000000"/><text fill="#000000" font-family="sans-serif" font-size="14" lengthAdjust="spacing" textLength="82" x="371" y="520.7285">LoginService</text><line style="stroke:#181818;stroke-width:0.5;" x1="343" x2="455" y1="531" y2="531"/><line style="stroke:#181818;stroke-width:0.5;" x1="343" x2="455" y1="539" y2="539"/></g><!--class RegistrazioneService--><g id="elem_RegistrazioneService"><rect codeLine="31" fill="#F1F1F1" height="48" id="RegistrazioneService" rx="2.5" ry="2.5" style="stroke:#181818;stroke-width:0.5;" width="165" x="191.5" y="655"/><ellipse cx="206.5" cy="671" fill="#ADD1B2" rx="11" ry="11" style="stroke:#181818;stroke-width:1.0;"/><path d="M209.2656,666.875 Q209.4219,666.6563 209.6094,666.5469 Q209.7969,666.4375 210.0156,666.4375 Q210.3906,666.4375 210.625,666.7031 Q210.8594,666.9531 210.8594,667.5625 L210.8594,669.0156 Q210.8594,669.625 210.625,669.8906 Q210.3906,670.1563 210.0156,670.1563 Q209.6719,670.1563 209.4688,669.9531 Q209.2656,669.7656 209.1563,669.25 Q209.1094,668.8906 208.9219,668.7031 Q208.5938,668.3281 207.9844,668.1094 Q207.375,667.8906 206.75,667.8906 Q205.9844,667.8906 205.3438,668.2188 Q204.7188,668.5469 204.2188,669.2969 Q203.7344,670.0469 203.7344,671.0781 L203.7344,672.1719 Q203.7344,673.4063 204.625,674.2344 Q205.5156,675.0469 207.1094,675.0469 Q208.0469,675.0469 208.7031,674.7969 Q209.0938,674.6406 209.5156,674.2031 Q209.7813,673.9375 209.9219,673.8594 Q210.0781,673.7813 210.2813,673.7813 Q210.6094,673.7813 210.8594,674.0469 Q211.125,674.2969 211.125,674.6406 Q211.125,674.9844 210.7813,675.3906 Q210.2813,675.9688 209.4844,676.2969 Q208.4063,676.75 207.1094,676.75 Q205.5938,676.75 204.3906,676.125 Q203.4063,675.625 202.7188,674.5625 Q202.0313,673.4844 202.0313,672.2031 L202.0313,671.0469 Q202.0313,669.7188 202.6406,668.5781 Q203.2656,667.4219 204.3594,666.8125 Q205.4531,666.1875 206.6875,666.1875 Q207.4219,666.1875 208.0625,666.3594 Q208.7188,666.5156 209.2656,666.875 Z " fill="#000000"/><text fill="#000000" font-family="sans-serif" font-size="14" lengthAdjust="spacing" textLength="133" x="220.5" y="676.7285">RegistrazioneService</text><line style="stroke:#181818;stroke-width:0.5;" x1="192.5" x2="355.5" y1="687" y2="687"/><line style="stroke:#181818;stroke-width:0.5;" x1="192.5" x2="355.5" y1="695" y2="695"/></g><!--class RicercaService--><g id="elem_RicercaService"><rect codeLine="32" fill="#F1F1F1" height="48" id="RicercaService" rx="2.5" ry="2.5" style="stroke:#181818;stroke-width:0.5;" width="127" x="391.5" y="655"/><ellipse cx="406.5" cy="671" fill="#ADD1B2" rx="11" ry="11" style="stroke:#181818;stroke-width:1.0;"/><path d="M409.2656,666.875 Q409.4219,666.6563 409.6094,666.5469 Q409.7969,666.4375 410.0156,666.4375 Q410.3906,666.4375 410.625,666.7031 Q410.8594,666.9531 410.8594,667.5625 L410.8594,669.0156 Q410.8594,669.625 410.625,669.8906 Q410.3906,670.1563 410.0156,670.1563 Q409.6719,670.1563 409.4688,669.9531 Q409.2656,669.7656 409.1563,669.25 Q409.1094,668.8906 408.9219,668.7031 Q408.5938,668.3281 407.9844,668.1094 Q407.375,667.8906 406.75,667.8906 Q405.9844,667.8906 405.3438,668.2188 Q404.7188,668.5469 404.2188,669.2969 Q403.7344,670.0469 403.7344,671.0781 L403.7344,672.1719 Q403.7344,673.4063 404.625,674.2344 Q405.5156,675.0469 407.1094,675.0469 Q408.0469,675.0469 408.7031,674.7969 Q409.0938,674.6406 409.5156,674.2031 Q409.7813,673.9375 409.9219,673.8594 Q410.0781,673.7813 410.2813,673.7813 Q410.6094,673.7813 410.8594,674.0469 Q411.125,674.2969 411.125,674.6406 Q411.125,674.9844 410.7813,675.3906 Q410.2813,675.9688 409.4844,676.2969 Q408.4063,676.75 407.1094,676.75 Q405.5938,676.75 404.3906,676.125 Q403.4063,675.625 402.7188,674.5625 Q402.0313,673.4844 402.0313,672.2031 L402.0313,671.0469 Q402.0313,669.7188 402.6406,668.5781 Q403.2656,667.4219 404.3594,666.8125 Q405.4531,666.1875 406.6875,666.1875 Q407.4219,666.1875 408.0625,666.3594 Q408.7188,666.5156 409.2656,666.875 Z " fill="#000000"/><text fill="#000000" font-family="sans-serif" font-size="14" lengthAdjust="spacing" textLength="95" x="420.5" y="676.7285">RicercaService</text><line style="stroke:#181818;stroke-width:0.5;" x1="392.5" x2="517.5" y1="687" y2="687"/><line style="stroke:#181818;stroke-width:0.5;" x1="392.5" x2="517.5" y1="695" y2="695"/></g><!--class HomeEccezione--><g id="elem_HomeEccezione"><rect codeLine="36" fill="#F1F1F1" height="48" id="HomeEccezione" rx="2.5" ry="2.5" style="stroke:#181818;stroke-width:0.5;" width="132" x="693" y="499"/><ellipse cx="708" cy="515" fill="#ADD1B2" rx="11" ry="11" style="stroke:#181818;stroke-width:1.0;"/><path d="M710.7656,510.875 Q710.9219,510.6563 711.1094,510.5469 Q711.2969,510.4375 711.5156,510.4375 Q711.8906,510.4375 712.125,510.7031 Q712.3594,510.9531 712.3594,511.5625 L712.3594,513.0156 Q712.3594,513.625 712.125,513.8906 Q711.8906,514.1563 711.5156,514.1563 Q711.1719,514.1563 710.9688,513.9531 Q710.7656,513.7656 710.6563,513.25 Q710.6094,512.8906 710.4219,512.7031 Q710.0938,512.3281 709.4844,512.1094 Q708.875,511.8906 708.25,511.8906 Q707.4844,511.8906 706.8438,512.2188 Q706.2188,512.5469 705.7188,513.2969 Q705.2344,514.0469 705.2344,515.0781 L705.2344,516.1719 Q705.2344,517.4063 706.125,518.2344 Q707.0156,519.0469 708.6094,519.0469 Q709.5469,519.0469 710.2031,518.7969 Q710.5938,518.6406 711.0156,518.2031 Q711.2813,517.9375 711.4219,517.8594 Q711.5781,517.7813 711.7813,517.7813 Q712.1094,517.7813 712.3594,518.0469 Q712.625,518.2969 712.625,518.6406 Q712.625,518.9844 712.2813,519.3906 Q711.7813,519.9688 710.9844,520.2969 Q709.9063,520.75 708.6094,520.75 Q707.0938,520.75 705.8906,520.125 Q704.9063,519.625 704.2188,518.5625 Q703.5313,517.4844 703.5313,516.2031 L703.5313,515.0469 Q703.5313,513.7188 704.1406,512.5781 Q704.7656,511.4219 705.8594,510.8125 Q706.9531,510.1875 708.1875,510.1875 Q708.9219,510.1875 709.5625,510.3594 Q710.2188,510.5156 710.7656,510.875 Z " fill="#000000"/><text fill="#000000" font-family="sans-serif" font-size="14" lengthAdjust="spacing" textLength="100" x="722" y="520.7285">HomeEccezione</text><line style="stroke:#181818;stroke-width:0.5;" x1="694" x2="824" y1="531" y2="531"/><line style="stroke:#181818;stroke-width:0.5;" x1="694" x2="824" y1="539" y2="539"/></g><!--class LoginEccezione--><g id="elem_LoginEccezione"><rect codeLine="37" fill="#F1F1F1" height="48" id="LoginEccezione" rx="2.5" ry="2.5" style="stroke:#181818;stroke-width:0.5;" width="131" x="526.5" y="499"/><ellipse cx="541.5" cy="515" fill="#ADD1B2" rx="11" ry="11" style="stroke:#181818;stroke-width:1.0;"/><path d="M544.2656,510.875 Q544.4219,510.6563 544.6094,510.5469 Q544.7969,510.4375 545.0156,510.4375 Q545.3906,510.4375 545.625,510.7031 Q545.8594,510.9531 545.8594,511.5625 L545.8594,513.0156 Q545.8594,513.625 545.625,513.8906 Q545.3906,514.1563 545.0156,514.1563 Q544.6719,514.1563 544.4688,513.9531 Q544.2656,513.7656 544.1563,513.25 Q544.1094,512.8906 543.9219,512.7031 Q543.5938,512.3281 542.9844,512.1094 Q542.375,511.8906 541.75,511.8906 Q540.9844,511.8906 540.3438,512.2188 Q539.7188,512.5469 539.2188,513.2969 Q538.7344,514.0469 538.7344,515.0781 L538.7344,516.1719 Q538.7344,517.4063 539.625,518.2344 Q540.5156,519.0469 542.1094,519.0469 Q543.0469,519.0469 543.7031,518.7969 Q544.0938,518.6406 544.5156,518.2031 Q544.7813,517.9375 544.9219,517.8594 Q545.0781,517.7813 545.2813,517.7813 Q545.6094,517.7813 545.8594,518.0469 Q546.125,518.2969 546.125,518.6406 Q546.125,518.9844 545.7813,519.3906 Q545.2813,519.9688 544.4844,520.2969 Q543.4063,520.75 542.1094,520.75 Q540.5938,520.75 539.3906,520.125 Q538.4063,519.625 537.7188,518.5625 Q537.0313,517.4844 537.0313,516.2031 L537.0313,515.0469 Q537.0313,513.7188 537.6406,512.5781 Q538.2656,511.4219 539.3594,510.8125 Q540.4531,510.1875 541.6875,510.1875 Q542.4219,510.1875 543.0625,510.3594 Q543.7188,510.5156 544.2656,510.875 Z " fill="#000000"/><text fill="#000000" font-family="sans-serif" font-size="14" lengthAdjust="spacing" textLength="99" x="555.5" y="520.7285">LoginEccezione</text><line style="stroke:#181818;stroke-width:0.5;" x1="527.5" x2="656.5" y1="531" y2="531"/><line style="stroke:#181818;stroke-width:0.5;" x1="527.5" x2="656.5" y1="539" y2="539"/></g><!--class Campionato--><g id="elem_Campionato"><rect codeLine="41" fill="#F1F1F1" height="48" id="Campionato" rx="2.5" ry="2.5" style="stroke:#181818;stroke-width:0.5;" width="108" x="972" y="499"/><ellipse cx="987" cy="515" fill="#ADD1B2" rx="11" ry="11" style="stroke:#181818;stroke-width:1.0;"/><path d="M989.7656,510.875 Q989.9219,510.6563 990.1094,510.5469 Q990.2969,510.4375 990.5156,510.4375 Q990.8906,510.4375 991.125,510.7031 Q991.3594,510.9531 991.3594,511.5625 L991.3594,513.0156 Q991.3594,513.625 991.125,513.8906 Q990.8906,514.1563 990.5156,514.1563 Q990.1719,514.1563 989.9688,513.9531 Q989.7656,513.7656 989.6563,513.25 Q989.6094,512.8906 989.4219,512.7031 Q989.0938,512.3281 988.4844,512.1094 Q987.875,511.8906 987.25,511.8906 Q986.4844,511.8906 985.8438,512.2188 Q985.2188,512.5469 984.7188,513.2969 Q984.2344,514.0469 984.2344,515.0781 L984.2344,516.1719 Q984.2344,517.4063 985.125,518.2344 Q986.0156,519.0469 987.6094,519.0469 Q988.5469,519.0469 989.2031,518.7969 Q989.5938,518.6406 990.0156,518.2031 Q990.2813,517.9375 990.4219,517.8594 Q990.5781,517.7813 990.7813,517.7813 Q991.1094,517.7813 991.3594,518.0469 Q991.625,518.2969 991.625,518.6406 Q991.625,518.9844 991.2813,519.3906 Q990.7813,519.9688 989.9844,520.2969 Q988.9063,520.75 987.6094,520.75 Q986.0938,520.75 984.8906,520.125 Q983.9063,519.625 983.2188,518.5625 Q982.5313,517.4844 982.5313,516.2031 L982.5313,515.0469 Q982.5313,513.7188 983.1406,512.5781 Q983.7656,511.4219 984.8594,510.8125 Q985.9531,510.1875 987.1875,510.1875 Q987.9219,510.1875 988.5625,510.3594 Q989.2188,510.5156 989.7656,510.875 Z " fill="#000000"/><text fill="#000000" font-family="sans-serif" font-size="14" lengthAdjust="spacing" textLength="76" x="1001" y="520.7285">Campionato</text><line style="stroke:#181818;stroke-width:0.5;" x1="973" x2="1079" y1="531" y2="531"/><line style="stroke:#181818;stroke-width:0.5;" x1="973" x2="1079" y1="539" y2="539"/></g><!--class Gara--><g id="elem_Gara"><rect codeLine="42" fill="#F1F1F1" height="48" id="Gara" rx="2.5" ry="2.5" style="stroke:#181818;stroke-width:0.5;" width="64" x="1115" y="499"/><ellipse cx="1130" cy="515" fill="#ADD1B2" rx="11" ry="11" style="stroke:#181818;stroke-width:1.0;"/><path d="M1132.7656,510.875 Q1132.9219,510.6563 1133.1094,510.5469 Q1133.2969,510.4375 1133.5156,510.4375 Q1133.8906,510.4375 1134.125,510.7031 Q1134.3594,510.9531 1134.3594,511.5625 L1134.3594,513.0156 Q1134.3594,513.625 1134.125,513.8906 Q1133.8906,514.1563 1133.5156,514.1563 Q1133.1719,514.1563 1132.9688,513.9531 Q1132.7656,513.7656 1132.6563,513.25 Q1132.6094,512.8906 1132.4219,512.7031 Q1132.0938,512.3281 1131.4844,512.1094 Q1130.875,511.8906 1130.25,511.8906 Q1129.4844,511.8906 1128.8438,512.2188 Q1128.2188,512.5469 1127.7188,513.2969 Q1127.2344,514.0469 1127.2344,515.0781 L1127.2344,516.1719 Q1127.2344,517.4063 1128.125,518.2344 Q1129.0156,519.0469 1130.6094,519.0469 Q1131.5469,519.0469 1132.2031,518.7969 Q1132.5938,518.6406 1133.0156,518.2031 Q1133.2813,517.9375 1133.4219,517.8594 Q1133.5781,517.7813 1133.7813,517.7813 Q1134.1094,517.7813 1134.3594,518.0469 Q1134.625,518.2969 1134.625,518.6406 Q1134.625,518.9844 1134.2813,519.3906 Q1133.7813,519.9688 1132.9844,520.2969 Q1131.9063,520.75 1130.6094,520.75 Q1129.0938,520.75 1127.8906,520.125 Q1126.9063,519.625 1126.2188,518.5625 Q1125.5313,517.4844 1125.5313,516.2031 L1125.5313,515.0469 Q1125.5313,513.7188 1126.1406,512.5781 Q1126.7656,511.4219 1127.8594,510.8125 Q1128.9531,510.1875 1130.1875,510.1875 Q1130.9219,510.1875 1131.5625,510.3594 Q1132.2188,510.5156 1132.7656,510.875 Z " fill="#000000"/><text fill="#000000" font-family="sans-serif" font-size="14" lengthAdjust="spacing" textLength="32" x="1144" y="520.7285">Gara</text><line style="stroke:#181818;stroke-width:0.5;" x1="1116" x2="1178" y1="531" y2="531"/><line style="stroke:#181818;stroke-width:0.5;" x1="1116" x2="1178" y1="539" y2="539"/></g><!--class Utente--><g id="elem_Utente"><rect codeLine="43" fill="#F1F1F1" height="48" id="Utente" rx="2.5" ry="2.5" style="stroke:#181818;stroke-width:0.5;" width="73" x="989.5" y="655"/><ellipse cx="1004.5" cy="671" fill="#ADD1B2" rx="11" ry="11" style="stroke:#181818;stroke-width:1.0;"/><path d="M1007.2656,666.875 Q1007.4219,666.6563 1007.6094,666.5469 Q1007.7969,666.4375 1008.0156,666.4375 Q1008.3906,666.4375 1008.625,666.7031 Q1008.8594,666.9531 1008.8594,667.5625 L1008.8594,669.0156 Q1008.8594,669.625 1008.625,669.8906 Q1008.3906,670.1563 1008.0156,670.1563 Q1007.6719,670.1563 1007.4688,669.9531 Q1007.2656,669.7656 1007.1563,669.25 Q1007.1094,668.8906 1006.9219,668.7031 Q1006.5938,668.3281 1005.9844,668.1094 Q1005.375,667.8906 1004.75,667.8906 Q1003.9844,667.8906 1003.3438,668.2188 Q1002.7188,668.5469 1002.2188,669.2969 Q1001.7344,670.0469 1001.7344,671.0781 L1001.7344,672.1719 Q1001.7344,673.4063 1002.625,674.2344 Q1003.5156,675.0469 1005.1094,675.0469 Q1006.0469,675.0469 1006.7031,674.7969 Q1007.0938,674.6406 1007.5156,674.2031 Q1007.7813,673.9375 1007.9219,673.8594 Q1008.0781,673.7813 1008.2813,673.7813 Q1008.6094,673.7813 1008.8594,674.0469 Q1009.125,674.2969 1009.125,674.6406 Q1009.125,674.9844 1008.7813,675.3906 Q1008.2813,675.9688 1007.4844,676.2969 Q1006.4063,676.75 1005.1094,676.75 Q1003.5938,676.75 1002.3906,676.125 Q1001.4063,675.625 1000.7188,674.5625 Q1000.0313,673.4844 1000.0313,672.2031 L1000.0313,671.0469 Q1000.0313,669.7188 1000.6406,668.5781 Q1001.2656,667.4219 1002.3594,666.8125 Q1003.4531,666.1875 1004.6875,666.1875 Q1005.4219,666.1875 1006.0625,666.3594 Q1006.7188,666.5156 1007.2656,666.875 Z " fill="#000000"/><text fill="#000000" font-family="sans-serif" font-size="14" lengthAdjust="spacing" textLength="41" x="1018.5" y="676.7285">Utente</text><line style="stroke:#181818;stroke-width:0.5;" x1="990.5" x2="1061.5" y1="687" y2="687"/><line style="stroke:#181818;stroke-width:0.5;" x1="990.5" x2="1061.5" y1="695" y2="695"/></g><!--class StatoGara--><g id="elem_StatoGara"><rect codeLine="47" fill="#F1F1F1" height="48" id="StatoGara" rx="2.5" ry="2.5" style="stroke:#181818;stroke-width:0.5;" width="97" x="1770.5" y="499"/><ellipse cx="1785.5" cy="515" fill="#ADD1B2" rx="11" ry="11" style="stroke:#181818;stroke-width:1.0;"/><path d="M1788.2656,510.875 Q1788.4219,510.6563 1788.6094,510.5469 Q1788.7969,510.4375 1789.0156,510.4375 Q1789.3906,510.4375 1789.625,510.7031 Q1789.8594,510.9531 1789.8594,511.5625 L1789.8594,513.0156 Q1789.8594,513.625 1789.625,513.8906 Q1789.3906,514.1563 1789.0156,514.1563 Q1788.6719,514.1563 1788.4688,513.9531 Q1788.2656,513.7656 1788.1563,513.25 Q1788.1094,512.8906 1787.9219,512.7031 Q1787.5938,512.3281 1786.9844,512.1094 Q1786.375,511.8906 1785.75,511.8906 Q1784.9844,511.8906 1784.3438,512.2188 Q1783.7188,512.5469 1783.2188,513.2969 Q1782.7344,514.0469 1782.7344,515.0781 L1782.7344,516.1719 Q1782.7344,517.4063 1783.625,518.2344 Q1784.5156,519.0469 1786.1094,519.0469 Q1787.0469,519.0469 1787.7031,518.7969 Q1788.0938,518.6406 1788.5156,518.2031 Q1788.7813,517.9375 1788.9219,517.8594 Q1789.0781,517.7813 1789.2813,517.7813 Q1789.6094,517.7813 1789.8594,518.0469 Q1790.125,518.2969 1790.125,518.6406 Q1790.125,518.9844 1789.7813,519.3906 Q1789.2813,519.9688 1788.4844,520.2969 Q1787.4063,520.75 1786.1094,520.75 Q1784.5938,520.75 1783.3906,520.125 Q1782.4063,519.625 1781.7188,518.5625 Q1781.0313,517.4844 1781.0313,516.2031 L1781.0313,515.0469 Q1781.0313,513.7188 1781.6406,512.5781 Q1782.2656,511.4219 1783.3594,510.8125 Q1784.4531,510.1875 1785.6875,510.1875 Q1786.4219,510.1875 1787.0625,510.3594 Q1787.7188,510.5156 1788.2656,510.875 Z " fill="#000000"/><text fill="#000000" font-family="sans-serif" font-size="14" lengthAdjust="spacing" textLength="65" x="1799.5" y="520.7285">StatoGara</text><line style="stroke:#181818;stroke-width:0.5;" x1="1771.5" x2="1866.5" y1="531" y2="531"/><line style="stroke:#181818;stroke-width:0.5;" x1="1771.5" x2="1866.5" y1="539" y2="539"/></g><!--class TipologiaGara--><g id="elem_TipologiaGara"><rect codeLine="48" fill="#F1F1F1" height="48" id="TipologiaGara" rx="2.5" ry="2.5" style="stroke:#181818;stroke-width:0.5;" width="122" x="1613" y="499"/><ellipse cx="1628" cy="515" fill="#ADD1B2" rx="11" ry="11" style="stroke:#181818;stroke-width:1.0;"/><path d="M1630.7656,510.875 Q1630.9219,510.6563 1631.1094,510.5469 Q1631.2969,510.4375 1631.5156,510.4375 Q1631.8906,510.4375 1632.125,510.7031 Q1632.3594,510.9531 1632.3594,511.5625 L1632.3594,513.0156 Q1632.3594,513.625 1632.125,513.8906 Q1631.8906,514.1563 1631.5156,514.1563 Q1631.1719,514.1563 1630.9688,513.9531 Q1630.7656,513.7656 1630.6563,513.25 Q1630.6094,512.8906 1630.4219,512.7031 Q1630.0938,512.3281 1629.4844,512.1094 Q1628.875,511.8906 1628.25,511.8906 Q1627.4844,511.8906 1626.8438,512.2188 Q1626.2188,512.5469 1625.7188,513.2969 Q1625.2344,514.0469 1625.2344,515.0781 L1625.2344,516.1719 Q1625.2344,517.4063 1626.125,518.2344 Q1627.0156,519.0469 1628.6094,519.0469 Q1629.5469,519.0469 1630.2031,518.7969 Q1630.5938,518.6406 1631.0156,518.2031 Q1631.2813,517.9375 1631.4219,517.8594 Q1631.5781,517.7813 1631.7813,517.7813 Q1632.1094,517.7813 1632.3594,518.0469 Q1632.625,518.2969 1632.625,518.6406 Q1632.625,518.9844 1632.2813,519.3906 Q1631.7813,519.9688 1630.9844,520.2969 Q1629.9063,520.75 1628.6094,520.75 Q1627.0938,520.75 1625.8906,520.125 Q1624.9063,519.625 1624.2188,518.5625 Q1623.5313,517.4844 1623.5313,516.2031 L1623.5313,515.0469 Q1623.5313,513.7188 1624.1406,512.5781 Q1624.7656,511.4219 1625.8594,510.8125 Q1626.9531,510.1875 1628.1875,510.1875 Q1628.9219,510.1875 1629.5625,510.3594 Q1630.2188,510.5156 1630.7656,510.875 Z " fill="#000000"/><text fill="#000000" font-family="sans-serif" font-size="14" lengthAdjust="spacing" textLength="90" x="1642" y="520.7285">TipologiaGara</text><line style="stroke:#181818;stroke-width:0.5;" x1="1614" x2="1734" y1="531" y2="531"/><line style="stroke:#181818;stroke-width:0.5;" x1="1614" x2="1734" y1="539" y2="539"/></g><!--class ProponenteIF--><g id="elem_ProponenteIF"><rect codeLine="52" fill="#F1F1F1" height="48" id="ProponenteIF" rx="2.5" ry="2.5" style="stroke:#181818;stroke-width:0.5;" width="119" x="1386.5" y="499"/><ellipse cx="1401.5" cy="515" fill="#B4A7E5" rx="11" ry="11" style="stroke:#181818;stroke-width:1.0;"/><path d="M1402.4531,511.6406 L1402.4531,518.2969 L1404.1719,518.2969 Q1404.7813,518.2969 1405.0469,518.5313 Q1405.3125,518.7656 1405.3125,519.1563 Q1405.3125,519.5313 1405.0469,519.7656 Q1404.7813,520 1404.1719,520 L1399.0313,520 Q1398.4219,520 1398.1563,519.7656 Q1397.8906,519.5313 1397.8906,519.1406 Q1397.8906,518.7656 1398.1563,518.5313 Q1398.4219,518.2969 1399.0313,518.2969 L1400.75,518.2969 L1400.75,511.6406 L1399.0313,511.6406 Q1398.4219,511.6406 1398.1563,511.4063 Q1397.8906,511.1719 1397.8906,510.7813 Q1397.8906,510.4063 1398.1563,510.1719 Q1398.4219,509.9375 1399.0313,509.9375 L1404.1719,509.9375 Q1404.7813,509.9375 1405.0469,510.1719 Q1405.3125,510.4063 1405.3125,510.7813 Q1405.3125,511.1719 1405.0469,511.4063 Q1404.7813,511.6406 1404.1719,511.6406 L1402.4531,511.6406 Z " fill="#000000"/><text fill="#000000" font-family="sans-serif" font-size="14" font-style="italic" lengthAdjust="spacing" textLength="87" x="1415.5" y="520.7285">ProponenteIF</text><line style="stroke:#181818;stroke-width:0.5;" x1="1387.5" x2="1504.5" y1="531" y2="531"/><line style="stroke:#181818;stroke-width:0.5;" x1="1387.5" x2="1504.5" y1="539" y2="539"/></g><!--class SoggettoIF--><g id="elem_SoggettoIF"><rect codeLine="53" fill="#F1F1F1" height="48" id="SoggettoIF" rx="2.5" ry="2.5" style="stroke:#181818;stroke-width:0.5;" width="102" x="1249" y="499"/><ellipse cx="1264" cy="515" fill="#B4A7E5" rx="11" ry="11" style="stroke:#181818;stroke-width:1.0;"/><path d="M1264.9531,511.6406 L1264.9531,518.2969 L1266.6719,518.2969 Q1267.2813,518.2969 1267.5469,518.5313 Q1267.8125,518.7656 1267.8125,519.1563 Q1267.8125,519.5313 1267.5469,519.7656 Q1267.2813,520 1266.6719,520 L1261.5313,520 Q1260.9219,520 1260.6563,519.7656 Q1260.3906,519.5313 1260.3906,519.1406 Q1260.3906,518.7656 1260.6563,518.5313 Q1260.9219,518.2969 1261.5313,518.2969 L1263.25,518.2969 L1263.25,511.6406 L1261.5313,511.6406 Q1260.9219,511.6406 1260.6563,511.4063 Q1260.3906,511.1719 1260.3906,510.7813 Q1260.3906,510.4063 1260.6563,510.1719 Q1260.9219,509.9375 1261.5313,509.9375 L1266.6719,509.9375 Q1267.2813,509.9375 1267.5469,510.1719 Q1267.8125,510.4063 1267.8125,510.7813 Q1267.8125,511.1719 1267.5469,511.4063 Q1267.2813,511.6406 1266.6719,511.6406 L1264.9531,511.6406 Z " fill="#000000"/><text fill="#000000" font-family="sans-serif" font-size="14" font-style="italic" lengthAdjust="spacing" textLength="70" x="1278" y="520.7285">SoggettoIF</text><line style="stroke:#181818;stroke-width:0.5;" x1="1250" x2="1350" y1="531" y2="531"/><line style="stroke:#181818;stroke-width:0.5;" x1="1250" x2="1350" y1="539" y2="539"/></g><!--class SQLiteConnectionManager--><g id="elem_SQLiteConnectionManager"><rect codeLine="63" fill="#F1F1F1" height="48" id="SQLiteConnectionManager" rx="2.5" ry="2.5" style="stroke:#181818;stroke-width:0.5;" width="203" x="2190.5" y="499"/><ellipse cx="2205.5" cy="515" fill="#ADD1B2" rx="11" ry="11" style="stroke:#181818;stroke-width:1.0;"/><path d="M2208.2656,510.875 Q2208.4219,510.6563 2208.6094,510.5469 Q2208.7969,510.4375 2209.0156,510.4375 Q2209.3906,510.4375 2209.625,510.7031 Q2209.8594,510.9531 2209.8594,511.5625 L2209.8594,513.0156 Q2209.8594,513.625 2209.625,513.8906 Q2209.3906,514.1563 2209.0156,514.1563 Q2208.6719,514.1563 2208.4688,513.9531 Q2208.2656,513.7656 2208.1563,513.25 Q2208.1094,512.8906 2207.9219,512.7031 Q2207.5938,512.3281 2206.9844,512.1094 Q2206.375,511.8906 2205.75,511.8906 Q2204.9844,511.8906 2204.3438,512.2188 Q2203.7188,512.5469 2203.2188,513.2969 Q2202.7344,514.0469 2202.7344,515.0781 L2202.7344,516.1719 Q2202.7344,517.4063 2203.625,518.2344 Q2204.5156,519.0469 2206.1094,519.0469 Q2207.0469,519.0469 2207.7031,518.7969 Q2208.0938,518.6406 2208.5156,518.2031 Q2208.7813,517.9375 2208.9219,517.8594 Q2209.0781,517.7813 2209.2813,517.7813 Q2209.6094,517.7813 2209.8594,518.0469 Q2210.125,518.2969 2210.125,518.6406 Q2210.125,518.9844 2209.7813,519.3906 Q2209.2813,519.9688 2208.4844,520.2969 Q2207.4063,520.75 2206.1094,520.75 Q2204.5938,520.75 2203.3906,520.125 Q2202.4063,519.625 2201.7188,518.5625 Q2201.0313,517.4844 2201.0313,516.2031 L2201.0313,515.0469 Q2201.0313,513.7188 2201.6406,512.5781 Q2202.2656,511.4219 2203.3594,510.8125 Q2204.4531,510.1875 2205.6875,510.1875 Q2206.4219,510.1875 2207.0625,510.3594 Q2207.7188,510.5156 2208.2656,510.875 Z " fill="#000000"/><text fill="#000000" font-family="sans-serif" font-size="14" lengthAdjust="spacing" textLength="171" x="2219.5" y="520.7285">SQLiteConnectionManager</text><line style="stroke:#181818;stroke-width:0.5;" x1="2191.5" x2="2392.5" y1="531" y2="531"/><line style="stroke:#181818;stroke-width:0.5;" x1="2191.5" x2="2392.5" y1="539" y2="539"/></g><!--class GenerateTooqCode--><g id="elem_GenerateTooqCode"><rect codeLine="64" fill="#F1F1F1" height="48" id="GenerateTooqCode" rx="2.5" ry="2.5" style="stroke:#181818;stroke-width:0.5;" width="159" x="1996.5" y="499"/><ellipse cx="2011.5" cy="515" fill="#ADD1B2" rx="11" ry="11" style="stroke:#181818;stroke-width:1.0;"/><path d="M2014.2656,510.875 Q2014.4219,510.6563 2014.6094,510.5469 Q2014.7969,510.4375 2015.0156,510.4375 Q2015.3906,510.4375 2015.625,510.7031 Q2015.8594,510.9531 2015.8594,511.5625 L2015.8594,513.0156 Q2015.8594,513.625 2015.625,513.8906 Q2015.3906,514.1563 2015.0156,514.1563 Q2014.6719,514.1563 2014.4688,513.9531 Q2014.2656,513.7656 2014.1563,513.25 Q2014.1094,512.8906 2013.9219,512.7031 Q2013.5938,512.3281 2012.9844,512.1094 Q2012.375,511.8906 2011.75,511.8906 Q2010.9844,511.8906 2010.3438,512.2188 Q2009.7188,512.5469 2009.2188,513.2969 Q2008.7344,514.0469 2008.7344,515.0781 L2008.7344,516.1719 Q2008.7344,517.4063 2009.625,518.2344 Q2010.5156,519.0469 2012.1094,519.0469 Q2013.0469,519.0469 2013.7031,518.7969 Q2014.0938,518.6406 2014.5156,518.2031 Q2014.7813,517.9375 2014.9219,517.8594 Q2015.0781,517.7813 2015.2813,517.7813 Q2015.6094,517.7813 2015.8594,518.0469 Q2016.125,518.2969 2016.125,518.6406 Q2016.125,518.9844 2015.7813,519.3906 Q2015.2813,519.9688 2014.4844,520.2969 Q2013.4063,520.75 2012.1094,520.75 Q2010.5938,520.75 2009.3906,520.125 Q2008.4063,519.625 2007.7188,518.5625 Q2007.0313,517.4844 2007.0313,516.2031 L2007.0313,515.0469 Q2007.0313,513.7188 2007.6406,512.5781 Q2008.2656,511.4219 2009.3594,510.8125 Q2010.4531,510.1875 2011.6875,510.1875 Q2012.4219,510.1875 2013.0625,510.3594 Q2013.7188,510.5156 2014.2656,510.875 Z " fill="#000000"/><text fill="#000000" font-family="sans-serif" font-size="14" lengthAdjust="spacing" textLength="127" x="2025.5" y="520.7285">GenerateTooqCode</text><line style="stroke:#181818;stroke-width:0.5;" x1="1997.5" x2="2154.5" y1="531" y2="531"/><line style="stroke:#181818;stroke-width:0.5;" x1="1997.5" x2="2154.5" y1="539" y2="539"/></g><!--class CampionatoDAO--><g id="elem_CampionatoDAO"><rect codeLine="57" fill="#F1F1F1" height="48" id="CampionatoDAO" rx="2.5" ry="2.5" style="stroke:#181818;stroke-width:0.5;" width="138" x="2442" y="499"/><ellipse cx="2457" cy="515" fill="#ADD1B2" rx="11" ry="11" style="stroke:#181818;stroke-width:1.0;"/><path d="M2459.7656,510.875 Q2459.9219,510.6563 2460.1094,510.5469 Q2460.2969,510.4375 2460.5156,510.4375 Q2460.8906,510.4375 2461.125,510.7031 Q2461.3594,510.9531 2461.3594,511.5625 L2461.3594,513.0156 Q2461.3594,513.625 2461.125,513.8906 Q2460.8906,514.1563 2460.5156,514.1563 Q2460.1719,514.1563 2459.9688,513.9531 Q2459.7656,513.7656 2459.6563,513.25 Q2459.6094,512.8906 2459.4219,512.7031 Q2459.0938,512.3281 2458.4844,512.1094 Q2457.875,511.8906 2457.25,511.8906 Q2456.4844,511.8906 2455.8438,512.2188 Q2455.2188,512.5469 2454.7188,513.2969 Q2454.2344,514.0469 2454.2344,515.0781 L2454.2344,516.1719 Q2454.2344,517.4063 2455.125,518.2344 Q2456.0156,519.0469 2457.6094,519.0469 Q2458.5469,519.0469 2459.2031,518.7969 Q2459.5938,518.6406 2460.0156,518.2031 Q2460.2813,517.9375 2460.4219,517.8594 Q2460.5781,517.7813 2460.7813,517.7813 Q2461.1094,517.7813 2461.3594,518.0469 Q2461.625,518.2969 2461.625,518.6406 Q2461.625,518.9844 2461.2813,519.3906 Q2460.7813,519.9688 2459.9844,520.2969 Q2458.9063,520.75 2457.6094,520.75 Q2456.0938,520.75 2454.8906,520.125 Q2453.9063,519.625 2453.2188,518.5625 Q2452.5313,517.4844 2452.5313,516.2031 L2452.5313,515.0469 Q2452.5313,513.7188 2453.1406,512.5781 Q2453.7656,511.4219 2454.8594,510.8125 Q2455.9531,510.1875 2457.1875,510.1875 Q2457.9219,510.1875 2458.5625,510.3594 Q2459.2188,510.5156 2459.7656,510.875 Z " fill="#000000"/><text fill="#000000" font-family="sans-serif" font-size="14" lengthAdjust="spacing" textLength="106" x="2471" y="520.7285">CampionatoDAO</text><line style="stroke:#181818;stroke-width:0.5;" x1="2443" x2="2579" y1="531" y2="531"/><line style="stroke:#181818;stroke-width:0.5;" x1="2443" x2="2579" y1="539" y2="539"/></g><!--class GaraDAO--><g id="elem_GaraDAO"><rect codeLine="58" fill="#F1F1F1" height="48" id="GaraDAO" rx="2.5" ry="2.5" style="stroke:#181818;stroke-width:0.5;" width="94" x="2615" y="499"/><ellipse cx="2630" cy="515" fill="#ADD1B2" rx="11" ry="11" style="stroke:#181818;stroke-width:1.0;"/><path d="M2632.7656,510.875 Q2632.9219,510.6563 2633.1094,510.5469 Q2633.2969,510.4375 2633.5156,510.4375 Q2633.8906,510.4375 2634.125,510.7031 Q2634.3594,510.9531 2634.3594,511.5625 L2634.3594,513.0156 Q2634.3594,513.625 2634.125,513.8906 Q2633.8906,514.1563 2633.5156,514.1563 Q2633.1719,514.1563 2632.9688,513.9531 Q2632.7656,513.7656 2632.6563,513.25 Q2632.6094,512.8906 2632.4219,512.7031 Q2632.0938,512.3281 2631.4844,512.1094 Q2630.875,511.8906 2630.25,511.8906 Q2629.4844,511.8906 2628.8438,512.2188 Q2628.2188,512.5469 2627.7188,513.2969 Q2627.2344,514.0469 2627.2344,515.0781 L2627.2344,516.1719 Q2627.2344,517.4063 2628.125,518.2344 Q2629.0156,519.0469 2630.6094,519.0469 Q2631.5469,519.0469 2632.2031,518.7969 Q2632.5938,518.6406 2633.0156,518.2031 Q2633.2813,517.9375 2633.4219,517.8594 Q2633.5781,517.7813 2633.7813,517.7813 Q2634.1094,517.7813 2634.3594,518.0469 Q2634.625,518.2969 2634.625,518.6406 Q2634.625,518.9844 2634.2813,519.3906 Q2633.7813,519.9688 2632.9844,520.2969 Q2631.9063,520.75 2630.6094,520.75 Q2629.0938,520.75 2627.8906,520.125 Q2626.9063,519.625 2626.2188,518.5625 Q2625.5313,517.4844 2625.5313,516.2031 L2625.5313,515.0469 Q2625.5313,513.7188 2626.1406,512.5781 Q2626.7656,511.4219 2627.8594,510.8125 Q2628.9531,510.1875 2630.1875,510.1875 Q2630.9219,510.1875 2631.5625,510.3594 Q2632.2188,510.5156 2632.7656,510.875 Z " fill="#000000"/><text fill="#000000" font-family="sans-serif" font-size="14" lengthAdjust="spacing" textLength="62" x="2644" y="520.7285">GaraDAO</text><line style="stroke:#181818;stroke-width:0.5;" x1="2616" x2="2708" y1="531" y2="531"/><line style="stroke:#181818;stroke-width:0.5;" x1="2616" x2="2708" y1="539" y2="539"/></g><!--class UtenteDAO--><g id="elem_UtenteDAO"><rect codeLine="59" fill="#F1F1F1" height="48" id="UtenteDAO" rx="2.5" ry="2.5" style="stroke:#181818;stroke-width:0.5;" width="103" x="2459.5" y="655"/><ellipse cx="2474.5" cy="671" fill="#ADD1B2" rx="11" ry="11" style="stroke:#181818;stroke-width:1.0;"/><path d="M2477.2656,666.875 Q2477.4219,666.6563 2477.6094,666.5469 Q2477.7969,666.4375 2478.0156,666.4375 Q2478.3906,666.4375 2478.625,666.7031 Q2478.8594,666.9531 2478.8594,667.5625 L2478.8594,669.0156 Q2478.8594,669.625 2478.625,669.8906 Q2478.3906,670.1563 2478.0156,670.1563 Q2477.6719,670.1563 2477.4688,669.9531 Q2477.2656,669.7656 2477.1563,669.25 Q2477.1094,668.8906 2476.9219,668.7031 Q2476.5938,668.3281 2475.9844,668.1094 Q2475.375,667.8906 2474.75,667.8906 Q2473.9844,667.8906 2473.3438,668.2188 Q2472.7188,668.5469 2472.2188,669.2969 Q2471.7344,670.0469 2471.7344,671.0781 L2471.7344,672.1719 Q2471.7344,673.4063 2472.625,674.2344 Q2473.5156,675.0469 2475.1094,675.0469 Q2476.0469,675.0469 2476.7031,674.7969 Q2477.0938,674.6406 2477.5156,674.2031 Q2477.7813,673.9375 2477.9219,673.8594 Q2478.0781,673.7813 2478.2813,673.7813 Q2478.6094,673.7813 2478.8594,674.0469 Q2479.125,674.2969 2479.125,674.6406 Q2479.125,674.9844 2478.7813,675.3906 Q2478.2813,675.9688 2477.4844,676.2969 Q2476.4063,676.75 2475.1094,676.75 Q2473.5938,676.75 2472.3906,676.125 Q2471.4063,675.625 2470.7188,674.5625 Q2470.0313,673.4844 2470.0313,672.2031 L2470.0313,671.0469 Q2470.0313,669.7188 2470.6406,668.5781 Q2471.2656,667.4219 2472.3594,666.8125 Q2473.4531,666.1875 2474.6875,666.1875 Q2475.4219,666.1875 2476.0625,666.3594 Q2476.7188,666.5156 2477.2656,666.875 Z " fill="#000000"/><text fill="#000000" font-family="sans-serif" font-size="14" lengthAdjust="spacing" textLength="71" x="2488.5" y="676.7285">UtenteDAO</text><line style="stroke:#181818;stroke-width:0.5;" x1="2460.5" x2="2561.5" y1="687" y2="687"/><line style="stroke:#181818;stroke-width:0.5;" x1="2460.5" x2="2561.5" y1="695" y2="695"/></g><!--class DBException--><g id="elem_DBException"><rect codeLine="68" fill="#F1F1F1" height="48" id="DBException" rx="2.5" ry="2.5" style="stroke:#181818;stroke-width:0.5;" width="112" x="3042" y="655"/><ellipse cx="3057" cy="671" fill="#ADD1B2" rx="11" ry="11" style="stroke:#181818;stroke-width:1.0;"/><path d="M3059.7656,666.875 Q3059.9219,666.6563 3060.1094,666.5469 Q3060.2969,666.4375 3060.5156,666.4375 Q3060.8906,666.4375 3061.125,666.7031 Q3061.3594,666.9531 3061.3594,667.5625 L3061.3594,669.0156 Q3061.3594,669.625 3061.125,669.8906 Q3060.8906,670.1563 3060.5156,670.1563 Q3060.1719,670.1563 3059.9688,669.9531 Q3059.7656,669.7656 3059.6563,669.25 Q3059.6094,668.8906 3059.4219,668.7031 Q3059.0938,668.3281 3058.4844,668.1094 Q3057.875,667.8906 3057.25,667.8906 Q3056.4844,667.8906 3055.8438,668.2188 Q3055.2188,668.5469 3054.7188,669.2969 Q3054.2344,670.0469 3054.2344,671.0781 L3054.2344,672.1719 Q3054.2344,673.4063 3055.125,674.2344 Q3056.0156,675.0469 3057.6094,675.0469 Q3058.5469,675.0469 3059.2031,674.7969 Q3059.5938,674.6406 3060.0156,674.2031 Q3060.2813,673.9375 3060.4219,673.8594 Q3060.5781,673.7813 3060.7813,673.7813 Q3061.1094,673.7813 3061.3594,674.0469 Q3061.625,674.2969 3061.625,674.6406 Q3061.625,674.9844 3061.2813,675.3906 Q3060.7813,675.9688 3059.9844,676.2969 Q3058.9063,676.75 3057.6094,676.75 Q3056.0938,676.75 3054.8906,676.125 Q3053.9063,675.625 3053.2188,674.5625 Q3052.5313,673.4844 3052.5313,672.2031 L3052.5313,671.0469 Q3052.5313,669.7188 3053.1406,668.5781 Q3053.7656,667.4219 3054.8594,666.8125 Q3055.9531,666.1875 3057.1875,666.1875 Q3057.9219,666.1875 3058.5625,666.3594 Q3059.2188,666.5156 3059.7656,666.875 Z " fill="#000000"/><text fill="#000000" font-family="sans-serif" font-size="14" lengthAdjust="spacing" textLength="80" x="3071" y="676.7285">DBException</text><line style="stroke:#181818;stroke-width:0.5;" x1="3043" x2="3153" y1="687" y2="687"/><line style="stroke:#181818;stroke-width:0.5;" x1="3043" x2="3153" y1="695" y2="695"/></g><!--class CampionatoEccezione--><g id="elem_CampionatoEccezione"><rect codeLine="69" fill="#F1F1F1" height="48" id="CampionatoEccezione" rx="2.5" ry="2.5" style="stroke:#181818;stroke-width:0.5;" width="172" x="2835" y="655"/><ellipse cx="2850" cy="671" fill="#ADD1B2" rx="11" ry="11" style="stroke:#181818;stroke-width:1.0;"/><path d="M2852.7656,666.875 Q2852.9219,666.6563 2853.1094,666.5469 Q2853.2969,666.4375 2853.5156,666.4375 Q2853.8906,666.4375 2854.125,666.7031 Q2854.3594,666.9531 2854.3594,667.5625 L2854.3594,669.0156 Q2854.3594,669.625 2854.125,669.8906 Q2853.8906,670.1563 2853.5156,670.1563 Q2853.1719,670.1563 2852.9688,669.9531 Q2852.7656,669.7656 2852.6563,669.25 Q2852.6094,668.8906 2852.4219,668.7031 Q2852.0938,668.3281 2851.4844,668.1094 Q2850.875,667.8906 2850.25,667.8906 Q2849.4844,667.8906 2848.8438,668.2188 Q2848.2188,668.5469 2847.7188,669.2969 Q2847.2344,670.0469 2847.2344,671.0781 L2847.2344,672.1719 Q2847.2344,673.4063 2848.125,674.2344 Q2849.0156,675.0469 2850.6094,675.0469 Q2851.5469,675.0469 2852.2031,674.7969 Q2852.5938,674.6406 2853.0156,674.2031 Q2853.2813,673.9375 2853.4219,673.8594 Q2853.5781,673.7813 2853.7813,673.7813 Q2854.1094,673.7813 2854.3594,674.0469 Q2854.625,674.2969 2854.625,674.6406 Q2854.625,674.9844 2854.2813,675.3906 Q2853.7813,675.9688 2852.9844,676.2969 Q2851.9063,676.75 2850.6094,676.75 Q2849.0938,676.75 2847.8906,676.125 Q2846.9063,675.625 2846.2188,674.5625 Q2845.5313,673.4844 2845.5313,672.2031 L2845.5313,671.0469 Q2845.5313,669.7188 2846.1406,668.5781 Q2846.7656,667.4219 2847.8594,666.8125 Q2848.9531,666.1875 2850.1875,666.1875 Q2850.9219,666.1875 2851.5625,666.3594 Q2852.2188,666.5156 2852.7656,666.875 Z " fill="#000000"/><text fill="#000000" font-family="sans-serif" font-size="14" lengthAdjust="spacing" textLength="140" x="2864" y="676.7285">CampionatoEccezione</text><line style="stroke:#181818;stroke-width:0.5;" x1="2836" x2="3006" y1="687" y2="687"/><line style="stroke:#181818;stroke-width:0.5;" x1="2836" x2="3006" y1="695" y2="695"/></g><!--class Alerter--><g id="elem_Alerter"><rect codeLine="73" fill="#F1F1F1" height="48" id="Alerter" rx="2.5" ry="2.5" style="stroke:#181818;stroke-width:0.5;" width="74" x="1055" y="283"/><ellipse cx="1070" cy="299" fill="#ADD1B2" rx="11" ry="11" style="stroke:#181818;stroke-width:1.0;"/><path d="M1072.7656,294.875 Q1072.9219,294.6563 1073.1094,294.5469 Q1073.2969,294.4375 1073.5156,294.4375 Q1073.8906,294.4375 1074.125,294.7031 Q1074.3594,294.9531 1074.3594,295.5625 L1074.3594,297.0156 Q1074.3594,297.625 1074.125,297.8906 Q1073.8906,298.1563 1073.5156,298.1563 Q1073.1719,298.1563 1072.9688,297.9531 Q1072.7656,297.7656 1072.6563,297.25 Q1072.6094,296.8906 1072.4219,296.7031 Q1072.0938,296.3281 1071.4844,296.1094 Q1070.875,295.8906 1070.25,295.8906 Q1069.4844,295.8906 1068.8438,296.2188 Q1068.2188,296.5469 1067.7188,297.2969 Q1067.2344,298.0469 1067.2344,299.0781 L1067.2344,300.1719 Q1067.2344,301.4063 1068.125,302.2344 Q1069.0156,303.0469 1070.6094,303.0469 Q1071.5469,303.0469 1072.2031,302.7969 Q1072.5938,302.6406 1073.0156,302.2031 Q1073.2813,301.9375 1073.4219,301.8594 Q1073.5781,301.7813 1073.7813,301.7813 Q1074.1094,301.7813 1074.3594,302.0469 Q1074.625,302.2969 1074.625,302.6406 Q1074.625,302.9844 1074.2813,303.3906 Q1073.7813,303.9688 1072.9844,304.2969 Q1071.9063,304.75 1070.6094,304.75 Q1069.0938,304.75 1067.8906,304.125 Q1066.9063,303.625 1066.2188,302.5625 Q1065.5313,301.4844 1065.5313,300.2031 L1065.5313,299.0469 Q1065.5313,297.7188 1066.1406,296.5781 Q1066.7656,295.4219 1067.8594,294.8125 Q1068.9531,294.1875 1070.1875,294.1875 Q1070.9219,294.1875 1071.5625,294.3594 Q1072.2188,294.5156 1072.7656,294.875 Z " fill="#000000"/><text fill="#000000" font-family="sans-serif" font-size="14" lengthAdjust="spacing" textLength="42" x="1084" y="304.7285">Alerter</text><line style="stroke:#181818;stroke-width:0.5;" x1="1056" x2="1128" y1="315" y2="315"/><line style="stroke:#181818;stroke-width:0.5;" x1="1056" x2="1128" y1="323" y2="323"/></g><!--link home to service--><g id="link_home_service"><path codeLine="76" d="M1478.4263,85 C1477.8069,85 1477.1556,85 1476.4731,85 C1475.108,85 1473.6181,85 1472.0078,85 C1468.7872,85 1465.0854,85 1460.9395,85 C1444.3555,85 1420.6641,85 1392.2344,85 C1335.375,85 1259.5625,85 1183.75,85 C1032.125,85 880.5,85 880.5,85 C880.5,85 880.5,138.78 880.5,193.4 C880.5,220.71 880.5,248.23 880.5,269.3425 C880.5,271.9816 880.5,274.5205 880.5,276.9464 C880.5,277.2496 880.5,271.5511 880.5,271.8508 " fill="none" id="home-to-service" style="stroke:#181818;stroke-width:1.0;stroke-dasharray:7.0,7.0;"/><polygon fill="#181818" points="880.5,277.8508,884.5,268.8508,880.5,272.8508,876.5,268.8508,880.5,277.8508" style="stroke:#181818;stroke-width:1.0;"/></g><!--link proposte to service--><g id="link_proposte_service"><path codeLine="77" d="M47,175.0027 C47,175.2931 47,175.5842 47,175.8759 C47,176.4595 47,177.0457 47,177.6346 C47,179.9902 47,182.3875 47,184.8174 C47,194.5367 47,204.7756 47,214.9375 C47,255.585 47,295 47,295 C47,295 900,295 900,295 C900,295 900,307 900,307 C900,307 896.1,307 891.8338,307 C891.3005,307 890.7615,307 890.2236,307 C889.9547,307 889.6861,307 889.4187,307 C889.2849,307 895.1515,307 895.0184,307 " fill="none" id="proposte-to-service" style="stroke:#181818;stroke-width:1.0;stroke-dasharray:7.0,7.0;"/><polygon fill="#181818" points="889.0184,307,898.0184,311,894.0184,307,898.0184,303,889.0184,307" style="stroke:#181818;stroke-width:1.0;"/></g><!--link reglog to service--><g id="link_reglog_service"><path codeLine="78" d="M499,175.6506 C499,176.2633 499,176.8793 499,177.4984 C499,178.7366 499,179.9873 499,181.2492 C499,183.7729 499,186.3415 499,188.9448 C499,199.3582 499,210.3284 499,221.2163 C499,232.1041 499,242.9095 499,252.9931 C499,258.035 499,262.8964 499,267.4975 C499,269.798 499,272.0335 499,274.1939 C499,275.2741 499,276.3355 499,277.3769 C499,277.6373 499,277.8964 499,278.1542 C499,278.2831 499,272.4117 499,272.54 " fill="none" id="reglog-to-service" style="stroke:#181818;stroke-width:1.0;stroke-dasharray:7.0,7.0;"/><polygon fill="#181818" points="499,278.54,503,269.54,499,273.54,495,269.54,499,278.54" style="stroke:#181818;stroke-width:1.0;"/></g><!--link ricerche to service--><g id="link_ricerche_service"><path codeLine="79" d="M942.985,127 C942.6383,127 942.2826,127 941.9184,127 C940.4615,127 938.8684,127 937.1684,127 C930.3688,127 921.8612,127 913.54,127 C896.8975,127 881,127 881,127 C881,127 881,169.2325 881,212.7838 C881,234.5594 881,256.6647 881,273.9855 C881,275.068 881,276.1319 881,277.1758 C881,277.4368 881,271.6965 881,271.955 " fill="none" id="ricerche-to-service" style="stroke:#181818;stroke-width:1.0;stroke-dasharray:7.0,7.0;"/><polygon fill="#181818" points="881,277.955,885,268.955,881,272.955,877,268.955,881,277.955" style="stroke:#181818;stroke-width:1.0;"/></g><!--link home to utils--><g id="link_home_utils"><path codeLine="81" d="M1487,175.0762 C1487,175.2828 1487,175.4896 1487,175.6965 C1487,176.1103 1487,176.5247 1487,176.9395 C1487,180.2579 1487,183.6052 1487,186.9338 C1487,213.5625 1487,239 1487,239 C1487,239 1370.25,239 1253.5,239 C1224.3125,239 1195.125,239 1167.7617,239 C1164.3413,239 1160.9494,239 1157.5896,239 C1156.7496,239 1161.9116,239 1161.0757,239 " fill="none" id="home-to-utils" style="stroke:#181818;stroke-width:1.0;stroke-dasharray:7.0,7.0;"/><polygon fill="#181818" points="1155.0757,239,1164.0757,243,1160.0757,239,1164.0757,235,1155.0757,239" style="stroke:#181818;stroke-width:1.0;"/></g><!--link ricerche to utils--><g id="link_ricerche_utils"><path codeLine="82" d="M951,175.002 C951,175.3084 951,175.6156 951,175.9237 C951,176.5399 951,177.1593 951,177.7819 C951,179.027 951,180.2846 951,181.5535 C951,184.0913 951,186.6742 951,189.292 C951,199.7633 951,210.7944 951,221.7425 C951,265.535 951,308 951,308 C951,308 967.715,308 984.6913,308 C993.1794,308 1001.7328,308 1008.2948,308 C1009.1151,308 1009.9042,308 1010.6582,308 C1011.0352,308 1005.4035,308 1005.7624,308 " fill="none" id="ricerche-to-utils" style="stroke:#181818;stroke-width:1.0;stroke-dasharray:7.0,7.0;"/><polygon fill="#181818" points="1011.7624,308,1002.7624,304,1006.7624,308,1002.7624,312,1011.7624,308" style="stroke:#181818;stroke-width:1.0;"/></g><!--link service to model--><g id="link_service_model"><path codeLine="84" d="M889.0708,523 C893.7534,523 900.0606,523 906.5588,523 C913.0569,523 919.7459,523 925.1923,523 C925.8731,523 926.5345,523 927.1737,523 C927.4933,523 927.8073,523 928.1154,523 C928.2695,523 928.4221,523 928.5732,523 C928.6487,523 928.7238,523 928.7986,523 C928.836,523 922.8733,523 922.9105,523 " fill="none" id="service-to-model" style="stroke:#181818;stroke-width:1.0;stroke-dasharray:7.0,7.0;"/><polygon fill="#181818" points="928.9105,523,919.9105,519,923.9105,523,919.9105,527,928.9105,523" style="stroke:#181818;stroke-width:1.0;"/></g><!--link service to enums--><g id="link_service_enums"><path codeLine="85" d="M889.4868,601 C889.8246,601 890.1716,601 890.5277,601 C891.2399,601 891.9887,601 892.7735,601 C894.3429,601 896.056,601 897.9075,601 C901.6103,601 905.8665,601 910.6334,601 C929.701,601 956.9405,601 989.6278,601 C1055.0025,601 1142.1688,601 1229.335,601 C1403.6675,601 1578,601 1578,601 C1578,601 1578,596.5713 1578,589.8244 C1578,586.4509 1578,582.498 1578,578.2293 C1578,576.095 1578,573.8817 1578,571.6225 C1578,571.4813 1578,577.3399 1578,577.1984 " fill="none" id="service-to-enums" style="stroke:#181818;stroke-width:1.0;stroke-dasharray:7.0,7.0;"/><polygon fill="#181818" points="1578,571.1984,1574,580.1984,1578,576.1984,1582,580.1984,1578,571.1984" style="stroke:#181818;stroke-width:1.0;"/></g><!--link service to interfaces--><g id="link_service_interfaces"><path codeLine="86" d="M889.0187,307 C889.0757,307 889.1328,307 889.1902,307 C889.3049,307 889.4203,307 889.5366,307 C889.769,307 890.0045,307 890.2427,307 C890.7191,307 891.2065,307 891.7032,307 C892.6965,307 893.7265,307 894.7783,307 C896.882,307 899.0731,307 901.2325,307 C909.87,307 918,307 918,307 C918,307 918,415 918,415 C918,415 1214,415 1214,415 C1214,415 1214,421.1319 1214,430.4734 C1214,435.1442 1214,440.6174 1214,446.5278 C1214,448.0054 1214,449.5103 1214,451.0368 C1214,451.8001 1214,452.5687 1214,453.3421 C1214,453.7288 1214,448.1166 1214,448.5055 " fill="none" id="service-to-interfaces" style="stroke:#181818;stroke-width:1.0;stroke-dasharray:7.0,7.0;"/><polygon fill="#181818" points="1214,454.5055,1218,445.5055,1214,449.5055,1210,445.5055,1214,454.5055" style="stroke:#181818;stroke-width:1.0;"/></g><!--link service to repository--><g id="link_service_repository"><path codeLine="87" d="M881.5,278.3224 C881.5,277.9409 881.5,277.5573 881.5,277.1715 C881.5,276.3999 881.5,275.6197 881.5,274.8318 C881.5,273.256 881.5,271.6492 881.5,270.0181 C881.5,263.4934 881.5,256.5778 881.5,249.6888 C881.5,222.1325 881.5,195 881.5,195 C881.5,195 2744,195 2744,195 C2744,195 2744,273.2025 2744,353.2375 C2744,373.2463 2744,393.3695 2744,412.4141 C2744,421.9363 2744,431.1889 2744,440.0226 C2744,444.4395 2744,448.7517 2744,452.9405 C2744,453.4641 2744,447.9857 2744,448.5054 " fill="none" id="service-to-repository" style="stroke:#181818;stroke-width:1.0;stroke-dasharray:7.0,7.0;"/><polygon fill="#181818" points="2744,454.5054,2748,445.5054,2744,449.5054,2740,445.5054,2744,454.5054" style="stroke:#181818;stroke-width:1.0;"/></g><!--link service to exception--><g id="link_service_exception"><path codeLine="88" d="M880.93,308 C874.93,308 491,308 491,308 C491,308 491,358.4425 491,410.4613 C491,423.4659 491,436.5691 491,449.0073 C491,450.5621 491,452.1065 491,453.639 C491,454.0221 491,448.4045 491,448.7861 " fill="none" id="service-to-exception" style="stroke:#181818;stroke-width:1.0;stroke-dasharray:7.0,7.0;"/><polygon fill="#181818" points="491,454.7861,495,445.7861,491,449.7861,487,445.7861,491,454.7861" style="stroke:#181818;stroke-width:1.0;"/></g><!--link repository to db--><g id="link_repository_db"><path codeLine="90" d="M2752.7548,523 C2753.023,523 2753.2969,523 2753.5766,523 C2758.0514,523 2763.9937,523 2771.1879,523 C2785.5764,523 2804.9724,523 2827.6517,523 C2873.0103,523 2931.5019,523 2989.3312,523 C3104.99,523 3218,523 3218,523 C3218,523 3218,663.4 3218,672.55 " fill="none" id="repository-to-db" style="stroke:#181818;stroke-width:1.0;stroke-dasharray:7.0,7.0;"/><polygon fill="#181818" points="3218,678.55,3222,669.55,3218,673.55,3214,669.55,3218,678.55" style="stroke:#181818;stroke-width:1.0;"/></g><!--link repository to exception--><g id="link_repository_exception"><path codeLine="91" d="M2752.0087,679 C2752.0831,679 2752.1579,679 2752.2331,679 C2752.3834,679 2752.5353,679 2752.6887,679 C2752.9956,679 2753.3084,679 2753.6269,679 C2754.264,679 2754.9238,679 2755.6035,679 C2756.9628,679 2758.4018,679 2759.8978,679 C2762.8899,679 2766.1103,679 2769.3788,679 C2775.9156,679 2782.6447,679 2788.1239,679 C2789.4937,679 2784.7854,679 2785.9764,679 " fill="none" id="repository-to-exception" style="stroke:#181818;stroke-width:1.0;stroke-dasharray:7.0,7.0;"/><polygon fill="#181818" points="2791.9764,679,2782.9764,675,2786.9764,679,2782.9764,683,2791.9764,679" style="stroke:#181818;stroke-width:1.0;"/></g><!--SRC=[XLDjJiCm3FsVK_G4FGBIs60WWVZeE438l2vQ6eVKGmp4tN7RjKlQLFpqU_QpdJpN1ssTzBBAd5G7MK919mEP1qNIbWP4FIGORO5E3ZBqj4SXpWMPT2xx4LccZAphx55gkt1E_5uI55hoQ0puV8yL1Cbt72u7Te0NLQMjhibBGW-ZfBImy-Ymfb3ykO6iNlFmYHuhs76FRuqMDaTlzOokXz9W6QW-OAbjGkyLodRYLl7VSRrMuDK-7FUrXUJCk6TsAIk7evIWGmt-anD7BrnqQBp268pcdv1TznwUTipXIu4ZhXtrlb4AMicu-mKEj2hSWWdgcsKvXqqmGCtgG_16O6cga8CzLdMWKn1BH9KRxP2_LRUlFHNGBEjtKa6dCeHdIpLTxsyZei2o129aE53RlhD_s9QQRNnABhPQF4MxXN6tNeD4ak5YBm-Q6hDPFbSMV9IMSowcMOC5lY7O87uiURFHRAa_MrtVz6XYtEIt7KcRyBaNR4hgV3c-_3o_wXqZKiSxmv-FS8xjRodaawtRIMTBErRqDzH0hHscIEUm17unJaH6FeYOoVa84PkcAq-2GT4V]--></g></svg>