<svg xmlns="http://www.w3.org/2000/svg" xmlns:xlink="http://www.w3.org/1999/xlink" contentStyleType="text/css" data-diagram-type="STATE" height="1535px" preserveAspectRatio="none" style="width:1663px;height:1535px;background:#FFFFFF;" version="1.1" viewBox="0 0 1663 1535" width="1663px" zoomAndPan="magnify"><title>Ciclo di vita di una gara di pesca</title><defs/><g><g class="title" data-source-line="1"><text fill="#000000" font-family="sans-serif" font-size="14" font-weight="bold" lengthAdjust="spacing" textLength="257.2295" x="693.0731" y="22.9951">Ciclo di vita di una gara di pesca</text></g><!--cluster InValutazione--><g class="cluster" data-entity="InValutazione" data-source-line="16" data-uid="ent0003" id="cluster_InValutazione"><path d="M91.74,245.5669 L202.74,245.5669 A12.5,12.5 0 0 1 215.24,258.0669 L215.24,266.8638 L79.24,266.8638 L79.24,258.0669 A12.5,12.5 0 0 1 91.74,245.5669" fill="#F1F1F1"/><rect fill="none" height="437.63" rx="12.5" ry="12.5" style="stroke:#181818;stroke-width:0.5;" width="136" x="79.24" y="245.5669"/><line style="stroke:#181818;stroke-width:0.5;" x1="79.24" x2="215.24" y1="266.8638" y2="266.8638"/><text fill="#000000" font-family="sans-serif" font-size="14" lengthAdjust="spacing" textLength="118.5283" x="87.9758" y="262.562">Valutazione gara</text></g><ellipse cx="143.24" cy="298.5669" fill="#222222" rx="10" ry="10" style="stroke:#222222;stroke-width:1;"/><g id="InValutazione.InEsame"><rect fill="#F1F1F1" height="50" rx="12.5" ry="12.5" style="stroke:#181818;stroke-width:0.5;" width="79.9717" x="103.25" y="609.1969"/><line style="stroke:#181818;stroke-width:0.5;" x1="103.25" x2="183.2217" y1="635.4938" y2="635.4938"/><text fill="#000000" font-family="sans-serif" font-size="14" lengthAdjust="spacing" textLength="59.9717" x="113.25" y="627.192">InEsame</text></g><g id="Proposta"><rect fill="#F1F1F1" height="50.2656" rx="12.5" ry="12.5" style="stroke:#181818;stroke-width:0.5;" width="202.666" x="105.9" y="124.2969"/><line style="stroke:#181818;stroke-width:0.5;" x1="105.9" x2="308.566" y1="150.5938" y2="150.5938"/><text fill="#000000" font-family="sans-serif" font-size="14" lengthAdjust="spacing" textLength="61.5781" x="176.4439" y="142.292">Proposta</text><text fill="#000000" font-family="sans-serif" font-size="12" lengthAdjust="spacing" textLength="182.666" x="110.9" y="166.7324">entry / raccogliDatiBaseGara()</text></g><g id="Rifiutata"><rect fill="#F1F1F1" height="50.2656" rx="12.5" ry="12.5" style="stroke:#181818;stroke-width:0.5;" width="200.4746" x="7" y="965.6469"/><line style="stroke:#181818;stroke-width:0.5;" x1="7" x2="207.4746" y1="991.9437" y2="991.9437"/><text fill="#000000" font-family="sans-serif" font-size="14" lengthAdjust="spacing" textLength="59.4453" x="77.5146" y="983.642">Rifiutata</text><text fill="#000000" font-family="sans-serif" font-size="12" lengthAdjust="spacing" textLength="180.4746" x="12" y="1008.0824">entry / notificaRifiutoSocieta()</text></g><g id="Programmata"><rect fill="#F1F1F1" height="92.1719" rx="12.5" ry="12.5" style="stroke:#181818;stroke-width:0.5;" width="193.7656" x="365.35" y="944.6869"/><line style="stroke:#181818;stroke-width:0.5;" x1="365.35" x2="559.1156" y1="970.9838" y2="970.9838"/><text fill="#000000" font-family="sans-serif" font-size="14" lengthAdjust="spacing" textLength="95.9082" x="414.2787" y="962.682">Programmata</text><text fill="#000000" font-family="sans-serif" font-size="12" lengthAdjust="spacing" textLength="173.7656" x="370.35" y="987.1224">entry / definisciCampoGara()</text><text fill="#000000" font-family="sans-serif" font-size="12" lengthAdjust="spacing" textLength="143.6543" x="370.35" y="1001.0912">entry / assegnaArbitro()</text><text fill="#000000" font-family="sans-serif" font-size="12" lengthAdjust="spacing" textLength="164.7891" x="370.35" y="1015.0599">entry / inviaEmailComune()</text><text fill="#000000" font-family="sans-serif" font-size="12" lengthAdjust="spacing" textLength="165.5391" x="370.35" y="1029.0287">exit  / pubblicaBandoGara()</text></g><g id="IscrizioniAperte"><rect fill="#F1F1F1" height="64.2344" rx="12.5" ry="12.5" style="stroke:#181818;stroke-width:0.5;" width="201.0723" x="845.7" y="1113.8669"/><line style="stroke:#181818;stroke-width:0.5;" x1="845.7" x2="1046.7723" y1="1140.1638" y2="1140.1638"/><text fill="#000000" font-family="sans-serif" font-size="14" lengthAdjust="spacing" textLength="108.2676" x="892.1023" y="1131.862">IscrizioniAperte</text><text fill="#000000" font-family="sans-serif" font-size="12" lengthAdjust="spacing" textLength="181.0723" x="850.7" y="1156.3024">entry / abilitaIscrizioniOnline()</text><text fill="#000000" font-family="sans-serif" font-size="12" lengthAdjust="spacing" textLength="132.6914" x="850.7" y="1170.2712">do    / riceviIscrizioni()</text></g><g id="Confermata"><rect fill="#F1F1F1" height="50.2656" rx="12.5" ry="12.5" style="stroke:#181818;stroke-width:0.5;" width="246.8867" x="1004.79" y="273.4269"/><line style="stroke:#181818;stroke-width:0.5;" x1="1004.79" x2="1251.6767" y1="299.7237" y2="299.7237"/><text fill="#000000" font-family="sans-serif" font-size="14" lengthAdjust="spacing" textLength="82.7969" x="1086.8349" y="291.422">Confermata</text><text fill="#000000" font-family="sans-serif" font-size="12" lengthAdjust="spacing" textLength="226.8867" x="1009.79" y="315.8624">entry / inviaPromemoriaPartecipanti()</text></g><g id="Rinviata"><rect fill="#F1F1F1" height="64.2344" rx="12.5" ry="12.5" style="stroke:#181818;stroke-width:0.5;" width="197.9199" x="447.28" y="602.0769"/><line style="stroke:#181818;stroke-width:0.5;" x1="447.28" x2="645.1999" y1="628.3738" y2="628.3738"/><text fill="#000000" font-family="sans-serif" font-size="14" lengthAdjust="spacing" textLength="57.3125" x="517.5837" y="620.072">Rinviata</text><text fill="#000000" font-family="sans-serif" font-size="12" lengthAdjust="spacing" textLength="177.9199" x="452.28" y="644.5124">entry / comunicaNuovaData()</text><text fill="#000000" font-family="sans-serif" font-size="12" lengthAdjust="spacing" textLength="170.5547" x="452.28" y="658.4812">entry / aggiornaCalendario()</text></g><path d="M1434.6,400.6969 L1637.8756,400.6969 A12.5,12.5 0 0 1 1650.3756,413.1969 L1650.3756,445.9625 L1422.1,445.9625 L1422.1,413.1969 A12.5,12.5 0 0 1 1434.6,400.6969" fill="#F1F1F1"/><rect fill="none" height="466.9956" rx="12.5" ry="12.5" style="stroke:#181818;stroke-width:0.5;" width="228.2756" x="1422.1" y="400.6969"/><line style="stroke:#181818;stroke-width:0.5;" x1="1422.1" x2="1650.3756" y1="445.9625" y2="445.9625"/><line style="stroke:#181818;stroke-width:0.5;" x1="1422.1" x2="1650.3756" y1="426.9937" y2="426.9937"/><text fill="#000000" font-family="sans-serif" font-size="14" lengthAdjust="spacing" textLength="100.584" x="1485.9458" y="418.692">InSvolgimento</text><text fill="#000000" font-family="sans-serif" font-size="12" lengthAdjust="spacing" textLength="167.25" x="1427.1" y="438.1324">entry / avviaGestioneGara()</text><g id="InSvolgimento.Preparazione"><rect fill="#F1F1F1" height="64.2344" rx="12.5" ry="12.5" style="stroke:#181818;stroke-width:0.5;" width="169.707" x="1447.76" y="513.9625"/><line style="stroke:#181818;stroke-width:0.5;" x1="1447.76" x2="1617.467" y1="540.2594" y2="540.2594"/><text fill="#000000" font-family="sans-serif" font-size="14" lengthAdjust="spacing" textLength="91.9023" x="1486.6623" y="531.9576">Preparazione</text><text fill="#000000" font-family="sans-serif" font-size="12" lengthAdjust="spacing" textLength="139.9746" x="1452.76" y="556.398">entry / preparaSettori()</text><text fill="#000000" font-family="sans-serif" font-size="12" lengthAdjust="spacing" textLength="149.707" x="1452.76" y="570.3668">entry / sorteggiaGruppi()</text></g><g id="InSvolgimento.GaraAttiva"><rect fill="#F1F1F1" height="64.2344" rx="12.5" ry="12.5" style="stroke:#181818;stroke-width:0.5;" width="197.0234" x="1434.1" y="631.1925"/><line style="stroke:#181818;stroke-width:0.5;" x1="1434.1" x2="1631.1234" y1="657.4894" y2="657.4894"/><text fill="#000000" font-family="sans-serif" font-size="14" lengthAdjust="spacing" textLength="75.0723" x="1495.0756" y="649.1876">GaraAttiva</text><text fill="#000000" font-family="sans-serif" font-size="12" lengthAdjust="spacing" textLength="168.8438" x="1439.1" y="673.628">entry / registraCattureLive()</text><text fill="#000000" font-family="sans-serif" font-size="12" lengthAdjust="spacing" textLength="177.0234" x="1439.1" y="687.5968">do    / gestisciPenalizzazioni()</text></g><g id="InSvolgimento.FineOperazioni"><rect fill="#F1F1F1" height="50.2656" rx="12.5" ry="12.5" style="stroke:#181818;stroke-width:0.5;" width="180.1777" x="1442.52" y="748.4225"/><line style="stroke:#181818;stroke-width:0.5;" x1="1442.52" x2="1622.6977" y1="774.7194" y2="774.7194"/><text fill="#000000" font-family="sans-serif" font-size="14" lengthAdjust="spacing" textLength="104.8496" x="1480.1841" y="766.4176">FineOperazioni</text><text fill="#000000" font-family="sans-serif" font-size="12" lengthAdjust="spacing" textLength="160.1777" x="1447.52" y="790.858">entry / chiudiCampoGara()</text></g><ellipse cx="1532.61" cy="466.9625" fill="#222222" rx="10" ry="10" style="stroke:#222222;stroke-width:1;"/><ellipse cx="1532.61" cy="846.6925" fill="none" rx="11" ry="11" style="stroke:#222222;stroke-width:1;"/><ellipse cx="1532.61" cy="846.6925" fill="#222222" rx="6" ry="6" style="stroke:#222222;stroke-width:1;"/><!--link *start*InSvolgimento to Preparazione--><g class="link" data-entity-1=".start.InSvolgimento" data-entity-2="Preparazione" data-source-line="81" data-uid="lnk20" id="link_.start.InSvolgimento_Preparazione"><path d="M1532.61,477.4125 C1532.61,486.4225 1532.61,494.5025 1532.61,507.4825" fill="none" id="*start*InSvolgimento-to-Preparazione" style="stroke:#181818;stroke-width:1;"/><polygon fill="#181818" points="1532.61,513.4825,1536.61,504.4825,1532.61,508.4825,1528.61,504.4825,1532.61,513.4825" style="stroke:#181818;stroke-width:1;"/></g><!--link Preparazione to GaraAttiva--><g class="link" data-entity-1="Preparazione" data-entity-2="GaraAttiva" data-source-line="87" data-uid="lnk21" id="link_Preparazione_GaraAttiva"><path d="M1532.61,578.5625 C1532.61,594.8225 1532.61,608.6025 1532.61,624.8625" fill="none" id="Preparazione-to-GaraAttiva" style="stroke:#181818;stroke-width:1;"/><polygon fill="#181818" points="1532.61,630.8625,1536.61,621.8625,1532.61,625.8625,1528.61,621.8625,1532.61,630.8625" style="stroke:#181818;stroke-width:1;"/><text fill="#000000" font-family="sans-serif" font-size="13" lengthAdjust="spacing" textLength="73.7979" x="1533.61" y="609.2594">startTurni()</text></g><!--link GaraAttiva to FineOperazioni--><g class="link" data-entity-1="GaraAttiva" data-entity-2="FineOperazioni" data-source-line="93" data-uid="lnk22" id="link_GaraAttiva_FineOperazioni"><path d="M1532.61,695.9125 C1532.61,712.5125 1532.61,726.5525 1532.61,741.9725" fill="none" id="GaraAttiva-to-FineOperazioni" style="stroke:#181818;stroke-width:1;"/><polygon fill="#181818" points="1532.61,747.9725,1536.61,738.9725,1532.61,742.9725,1528.61,738.9725,1532.61,747.9725" style="stroke:#181818;stroke-width:1;"/><text fill="#000000" font-family="sans-serif" font-size="13" lengthAdjust="spacing" textLength="101.7656" x="1533.61" y="726.4894">fineTuttiITurni()</text></g><!--link FineOperazioni to *end*InSvolgimento--><g class="link" data-entity-1="FineOperazioni" data-entity-2=".end.InSvolgimento" data-source-line="98" data-uid="lnk24" id="link_FineOperazioni_.end.InSvolgimento"><path d="M1532.61,799.0425 C1532.61,811.4125 1532.61,819.7825 1532.61,829.2725" fill="none" id="FineOperazioni-to-*end*InSvolgimento" style="stroke:#181818;stroke-width:1;"/><polygon fill="#181818" points="1532.61,835.2725,1536.61,826.2725,1532.61,830.2725,1528.61,826.2725,1532.61,835.2725" style="stroke:#181818;stroke-width:1;"/></g><g id="Conclusa"><rect fill="#F1F1F1" height="78.2031" rx="12.5" ry="12.5" style="stroke:#181818;stroke-width:0.5;" width="190.5313" x="1431.97" y="951.6769"/><line style="stroke:#181818;stroke-width:0.5;" x1="1431.97" x2="1622.5013" y1="977.9738" y2="977.9738"/><text fill="#000000" font-family="sans-serif" font-size="14" lengthAdjust="spacing" textLength="63.5469" x="1495.4622" y="969.672">Conclusa</text><text fill="#000000" font-family="sans-serif" font-size="12" lengthAdjust="spacing" textLength="158.7246" x="1436.97" y="994.1124">entry / calcolaClassifiche()</text><text fill="#000000" font-family="sans-serif" font-size="12" lengthAdjust="spacing" textLength="170.5313" x="1436.97" y="1008.0812">entry / generaPdfClassifica()</text><text fill="#000000" font-family="sans-serif" font-size="12" lengthAdjust="spacing" textLength="134.9941" x="1436.97" y="1022.0499">entry / inviaNotifiche()</text></g><g id="Annullata"><rect fill="#F1F1F1" height="64.2344" rx="12.5" ry="12.5" style="stroke:#181818;stroke-width:0.5;" width="201.0313" x="845.72" y="1255.0969"/><line style="stroke:#181818;stroke-width:0.5;" x1="845.72" x2="1046.7513" y1="1281.3938" y2="1281.3938"/><text fill="#000000" font-family="sans-serif" font-size="14" lengthAdjust="spacing" textLength="66.623" x="912.9241" y="1273.092">Annullata</text><text fill="#000000" font-family="sans-serif" font-size="12" lengthAdjust="spacing" textLength="137.8477" x="850.72" y="1297.5324">entry / avviaRimborsi()</text><text fill="#000000" font-family="sans-serif" font-size="12" lengthAdjust="spacing" textLength="181.0313" x="850.72" y="1311.5012">entry / notificaAnnullamento()</text></g><g id="Archiviata"><rect fill="#F1F1F1" height="50.2656" rx="12.5" ry="12.5" style="stroke:#181818;stroke-width:0.5;" width="196.7598" x="847.86" y="1396.3269"/><line style="stroke:#181818;stroke-width:0.5;" x1="847.86" x2="1044.6198" y1="1422.6238" y2="1422.6238"/><text fill="#000000" font-family="sans-serif" font-size="14" lengthAdjust="spacing" textLength="70.6152" x="910.9323" y="1414.322">Archiviata</text><text fill="#000000" font-family="sans-serif" font-size="12" lengthAdjust="spacing" textLength="176.7598" x="852.86" y="1438.7624">entry / aggiornaStoricoGare()</text></g><ellipse cx="207.24" cy="53.2969" fill="#222222" rx="10" ry="10" style="stroke:#222222;stroke-width:1;"/><ellipse cx="946.24" cy="1518.5969" fill="none" rx="11" ry="11" style="stroke:#222222;stroke-width:1;"/><ellipse cx="946.24" cy="1518.5969" fill="#222222" rx="6" ry="6" style="stroke:#222222;stroke-width:1;"/><!--link *start* to Proposta--><g class="link" data-entity-1=".start." data-entity-2="Proposta" data-source-line="3" data-uid="lnk3" id="link_.start._Proposta"><path d="M207.24,63.6669 C207.24,77.6169 207.24,98.3169 207.24,118.0469" fill="none" id="*start*-to-Proposta" style="stroke:#181818;stroke-width:1;"/><polygon fill="#181818" points="207.24,124.0469,211.24,115.0469,207.24,119.0469,203.24,115.0469,207.24,124.0469" style="stroke:#181818;stroke-width:1;"/></g><!--link Proposta to InValutazione--><g class="link" data-entity-1="Proposta" data-entity-2="InValutazione" data-source-line="11" data-uid="lnk4" id="link_Proposta_InValutazione"><path d="M207.24,175.0569 C207.24,185.3644 207.24,198.0181 207.24,211.2391 C207.24,217.8495 207.24,224.6018 207.24,231.2735 C207.24,234.6093 207.24,237.925 207.24,241.1928 C207.24,242.0097 207.24,242.8236 207.24,243.6341 C207.24,244.0394 207.24,244.4438 207.24,244.8473 C207.24,245.049 207.24,239.2505 207.24,239.4518" fill="none" id="Proposta-to-InValutazione" style="stroke:#181818;stroke-width:1;"/><polygon fill="#181818" points="207.24,245.4518,211.24,236.4518,207.24,240.4518,203.24,236.4518,207.24,245.4518" style="stroke:#181818;stroke-width:1;"/><text fill="#000000" font-family="sans-serif" font-size="13" lengthAdjust="spacing" textLength="107.415" x="208.24" y="217.6338">nuovaProposta()</text></g><!--link *start*InValutazione to InEsame--><g class="link" data-entity-1=".start.InValutazione" data-entity-2="InEsame" data-source-line="17" data-uid="lnk7" id="link_.start.InValutazione_InEsame"><path d="M143.24,308.8369 C143.24,352.8269 143.24,535.1769 143.24,602.8569" fill="none" id="*start*InValutazione-to-InEsame" style="stroke:#181818;stroke-width:1;"/><polygon fill="#181818" points="143.24,608.8569,147.24,599.8569,143.24,603.8569,139.24,599.8569,143.24,608.8569" style="stroke:#181818;stroke-width:1;"/></g><!--link InEsame to Programmata--><g class="link" data-entity-1="InEsame" data-entity-2="Programmata" data-source-line="18" data-uid="lnk8" id="link_InEsame_Programmata"><path d="M144.59,659.4869 C148.89,713.0969 166.64,842.5369 239.24,914.6869 C272.77,948.0269 315.7324,965.1804 359.1424,975.4904" fill="none" id="InEsame-to-Programmata" style="stroke:#181818;stroke-width:1;"/><polygon fill="#181818" points="364.98,976.8769,357.1479,970.9055,360.1153,975.7215,355.2993,978.6889,364.98,976.8769" style="stroke:#181818;stroke-width:1;"/><text fill="#000000" font-family="sans-serif" font-size="13" lengthAdjust="spacing" textLength="120.7515" x="240.24" y="910.7538">approvaProposta()</text></g><!--link InEsame to Rifiutata--><g class="link" data-entity-1="InEsame" data-entity-2="Rifiutata" data-source-line="19" data-uid="lnk9" id="link_InEsame_Rifiutata"><path d="M133.5,659.6469 C115.84,705.4369 79.17,807.6669 66.24,897.6869 C62.73,922.1169 72.1441,942.6067 84.3541,960.5467" fill="none" id="InEsame-to-Rifiutata" style="stroke:#181818;stroke-width:1;"/><polygon fill="#181818" points="87.73,965.5069,85.9729,955.816,84.9167,961.3734,79.3594,960.3172,87.73,965.5069" style="stroke:#181818;stroke-width:1;"/><text fill="#000000" font-family="sans-serif" font-size="13" lengthAdjust="spacing" textLength="105.771" x="67.24" y="910.7538">rifiutaProposta()</text></g><!--link Programmata to IscrizioniAperte--><g class="link" data-entity-1="Programmata" data-entity-2="IscrizioniAperte" data-source-line="37" data-uid="lnk10" id="link_Programmata_IscrizioniAperte"><path d="M559.6,1022.5969 C642.97,1048.9869 756.7797,1085.0063 840.8197,1111.6063" fill="none" id="Programmata-to-IscrizioniAperte" style="stroke:#181818;stroke-width:1;"/><polygon fill="#181818" points="846.54,1113.4169,839.1666,1106.8875,841.7731,1111.9081,836.7525,1114.5146,846.54,1113.4169" style="stroke:#181818;stroke-width:1;"/><text fill="#000000" font-family="sans-serif" font-size="13" lengthAdjust="spacing" textLength="92.2695" x="748.24" y="1079.9338">apriIscrizioni()</text></g><!--link IscrizioniAperte to IscrizioniAperte--><g class="link" data-entity-1="IscrizioniAperte" data-entity-2="IscrizioniAperte" data-source-line="46" data-uid="lnk11" id="link_IscrizioniAperte_IscrizioniAperte"><path d="M1047.02,1133.2669 C1067.29,1134.6769 1081.77,1138.9069 1081.77,1145.9769 C1081.77,1153.0469 1073.2755,1156.8705 1053.0055,1158.2805" fill="none" id="IscrizioniAperte-to-IscrizioniAperte" style="stroke:#181818;stroke-width:1;"/><polygon fill="#181818" points="1047.02,1158.6969,1056.2759,1162.0627,1052.0079,1158.3499,1055.7207,1154.082,1047.02,1158.6969" style="stroke:#181818;stroke-width:1;"/><text fill="#000000" font-family="sans-serif" font-size="13" lengthAdjust="spacing" textLength="111.5728" x="1087.77" y="1150.5438">nuovaIscrizione()</text></g><!--link IscrizioniAperte to Confermata--><g class="link" data-entity-1="IscrizioniAperte" data-entity-2="Confermata" data-source-line="49" data-uid="lnk12" id="link_IscrizioniAperte_Confermata"><path d="M945.7,1113.6969 C944.97,1069.3969 943.7,985.8569 943.24,914.6869 C943.19,907.1369 942.11,905.1569 943.24,897.6869 C977.99,667.6969 1081.5899,409.7859 1115.4099,329.5359" fill="none" id="IscrizioniAperte-to-Confermata" style="stroke:#181818;stroke-width:1;"/><polygon fill="#181818" points="1117.74,324.0069,1110.5588,330.747,1115.7982,328.6144,1117.9308,333.8539,1117.74,324.0069" style="stroke:#181818;stroke-width:1;"/><text fill="#000000" font-family="sans-serif" font-size="13" lengthAdjust="spacing" textLength="322.8672" x="944.24" y="910.7538">chiudiIscrizioni() [numIscritti &gt;= minPartecipanti]</text></g><!--link IscrizioniAperte to Confermata--><g class="link" data-entity-1="IscrizioniAperte" data-entity-2="Confermata" data-source-line="53" data-uid="lnk14" id="link_IscrizioniAperte_Confermata"><path d="M1028,1113.4169 C1106.53,1078.1569 1220.5,1012.8269 1271.24,914.6869 C1380.25,703.8369 1205.9377,414.6628 1148.5277,328.9028" fill="none" id="IscrizioniAperte-to-Confermata-1" style="stroke:#181818;stroke-width:1;"/><polygon fill="#181818" points="1145.19,323.9169,1146.8726,333.6209,1147.9714,328.0718,1153.5205,329.1706,1145.19,323.9169" style="stroke:#181818;stroke-width:1;"/><text fill="#000000" font-family="sans-serif" font-size="13" lengthAdjust="spacing" textLength="244.6006" x="1277.24" y="910.7538">raggiuntoMaxIscritti() [raggiuntoMax]</text></g><!--link IscrizioniAperte to Annullata--><g class="link" data-entity-1="IscrizioniAperte" data-entity-2="Annullata" data-source-line="50" data-uid="lnk13" id="link_IscrizioniAperte_Annullata"><path d="M946.24,1178.5769 C946.24,1201.3569 946.24,1225.9869 946.24,1248.7469" fill="none" id="IscrizioniAperte-to-Annullata" style="stroke:#181818;stroke-width:1;"/><polygon fill="#181818" points="946.24,1254.7469,950.24,1245.7469,946.24,1249.7469,942.24,1245.7469,946.24,1254.7469" style="stroke:#181818;stroke-width:1;"/><text fill="#000000" font-family="sans-serif" font-size="13" lengthAdjust="spacing" textLength="311.9746" x="947.24" y="1221.1638">chiudiIscrizioni() [numIscritti &lt; minPartecipanti]</text></g><!--link Programmata to Rinviata--><g class="link" data-entity-1="Programmata" data-entity-2="Rinviata" data-source-line="62" data-uid="lnk15" id="link_Programmata_Rinviata"><path d="M493.38,944.3469 C498.73,934.8869 503.7,924.7269 507.24,914.6869 C537.65,828.5269 544.2853,725.5646 545.7353,672.7546" fill="none" id="Programmata-to-Rinviata" style="stroke:#181818;stroke-width:1;"/><polygon fill="#181818" points="545.9,666.7569,541.6545,675.6437,545.7628,671.755,549.6515,675.8633,545.9,666.7569" style="stroke:#181818;stroke-width:1;"/><text fill="#000000" font-family="sans-serif" font-size="13" lengthAdjust="spacing" textLength="358.9854" x="512.24" y="910.7538">rinviaGara() [meteoPericoloso || campoNonDisponibile]</text></g><!--link Rinviata to Programmata--><g class="link" data-entity-1="Rinviata" data-entity-2="Programmata" data-source-line="72" data-uid="lnk17" id="link_Rinviata_Programmata"><path d="M515.98,666.6869 C473.89,712.9069 399.65,803.8569 371.24,897.6869 C365.9,915.3269 369.1938,926.7514 381.7438,940.0614" fill="none" id="Rinviata-to-Programmata" style="stroke:#181818;stroke-width:1;"/><polygon fill="#181818" points="385.86,944.4269,382.596,935.1346,382.4299,940.789,376.7754,940.6228,385.86,944.4269" style="stroke:#181818;stroke-width:1;"/><text fill="#000000" font-family="sans-serif" font-size="13" lengthAdjust="spacing" textLength="126.8579" x="372.24" y="910.7538">riprogrammaGara()</text></g><!--link Confermata to Rinviata--><g class="link" data-entity-1="Confermata" data-entity-2="Rinviata" data-source-line="63" data-uid="lnk16" id="link_Confermata_Rinviata"><path d="M1004.31,302.9269 C846.44,308.4769 590.29,322.2569 560.24,353.6969 C495.94,420.9469 518.3889,538.21 534.5889,595.94" fill="none" id="Confermata-to-Rinviata" style="stroke:#181818;stroke-width:1;"/><polygon fill="#181818" points="536.21,601.7169,537.6296,591.9709,534.8591,596.9028,529.9271,594.1323,536.21,601.7169" style="stroke:#181818;stroke-width:1;"/><text fill="#000000" font-family="sans-serif" font-size="13" lengthAdjust="spacing" textLength="358.9854" x="561.24" y="366.7638">rinviaGara() [meteoPericoloso || campoNonDisponibile]</text></g><!--link Confermata to InSvolgimento--><g class="link" data-entity-1="Confermata" data-entity-2="InSvolgimento" data-source-line="77" data-uid="lnk18" id="link_Confermata_InSvolgimento"><path d="M1252.03,316.8669 C1281.36,324.8669 1311.33,336.5769 1336.24,353.6969 C1368.2,375.6669 1393.0553,399.833 1417.9753,430.623" fill="none" id="Confermata-to-InSvolgimento" style="stroke:#181818;stroke-width:1;"/><polygon fill="#181818" points="1421.75,435.2869,1419.1972,425.7746,1418.6044,431.4003,1412.9787,430.8076,1421.75,435.2869" style="stroke:#181818;stroke-width:1;"/><text fill="#000000" font-family="sans-serif" font-size="13" lengthAdjust="spacing" textLength="75.3467" x="1359.24" y="366.7638">inizioGara()</text></g><!--link InSvolgimento to Conclusa--><g class="link" data-entity-1="InSvolgimento" data-entity-2="Conclusa" data-source-line="101" data-uid="lnk25" id="link_InSvolgimento_Conclusa"><path d="M1563.07,867.9369 C1562.03,883.8069 1560.16,899.5169 1557.24,914.6869 C1554.88,926.9569 1552.785,934.2168 1548.125,945.7068" fill="none" id="InSvolgimento-to-Conclusa" style="stroke:#181818;stroke-width:1;"/><polygon fill="#181818" points="1545.87,951.2669,1552.9593,944.43,1547.7492,946.6334,1545.5458,941.4234,1545.87,951.2669" style="stroke:#181818;stroke-width:1;"/><text fill="#000000" font-family="sans-serif" font-size="13" lengthAdjust="spacing" textLength="65.9204" x="1560.24" y="910.7538">fineGara()</text></g><!--link Rifiutata to Archiviata--><g class="link" data-entity-1="Rifiutata" data-entity-2="Archiviata" data-source-line="124" data-uid="lnk26" id="link_Rifiutata_Archiviata"><path d="M155.36,1016.3669 C303.26,1091.9369 744.7171,1317.4968 892.7071,1393.1168" fill="none" id="Rifiutata-to-Archiviata" style="stroke:#181818;stroke-width:1;"/><polygon fill="#181818" points="898.05,1395.8469,891.8557,1388.1898,893.5976,1393.5718,888.2156,1395.3136,898.05,1395.8469" style="stroke:#181818;stroke-width:1;"/><text fill="#000000" font-family="sans-serif" font-size="13" lengthAdjust="spacing" textLength="93.0757" x="556.24" y="1221.1638">archiviaGara()</text></g><!--link Conclusa to Archiviata--><g class="link" data-entity-1="Conclusa" data-entity-2="Archiviata" data-source-line="125" data-uid="lnk27" id="link_Conclusa_Archiviata"><path d="M1488.39,1030.1769 C1438.97,1078.1769 1350.08,1161.7069 1267.24,1225.0969 C1175.55,1295.2469 1148.88,1308.0269 1049.24,1366.3269 C1031.89,1376.4769 1017.7946,1384.1513 1000.5246,1393.1213" fill="none" id="Conclusa-to-Archiviata" style="stroke:#181818;stroke-width:1;"/><polygon fill="#181818" points="995.2,1395.8869,1005.0306,1395.2882,999.6372,1393.5822,1001.3432,1388.1887,995.2,1395.8869" style="stroke:#181818;stroke-width:1;"/><text fill="#000000" font-family="sans-serif" font-size="13" lengthAdjust="spacing" textLength="93.0757" x="1288.24" y="1221.1638">archiviaGara()</text></g><!--link Annullata to Archiviata--><g class="link" data-entity-1="Annullata" data-entity-2="Archiviata" data-source-line="126" data-uid="lnk28" id="link_Annullata_Archiviata"><path d="M946.24,1319.5569 C946.24,1342.9269 946.24,1368.4069 946.24,1389.9569" fill="none" id="Annullata-to-Archiviata" style="stroke:#181818;stroke-width:1;"/><polygon fill="#181818" points="946.24,1395.9569,950.24,1386.9569,946.24,1390.9569,942.24,1386.9569,946.24,1395.9569" style="stroke:#181818;stroke-width:1;"/><text fill="#000000" font-family="sans-serif" font-size="13" lengthAdjust="spacing" textLength="93.0757" x="947.24" y="1362.3938">archiviaGara()</text></g><!--link Archiviata to *end*--><g class="link" data-entity-1="Archiviata" data-entity-2=".end." data-source-line="128" data-uid="lnk30" id="link_Archiviata_.end."><path d="M946.24,1446.9669 C946.24,1466.5669 946.24,1487.0569 946.24,1501.3769" fill="none" id="Archiviata-to-*end*" style="stroke:#181818;stroke-width:1;"/><polygon fill="#181818" points="946.24,1507.3769,950.24,1498.3769,946.24,1502.3769,942.24,1498.3769,946.24,1507.3769" style="stroke:#181818;stroke-width:1;"/></g><!--SRC=[hLTBRzGm4Bxlhx2uK90gxWYGoXPG9IYh5d6fUfZDJjEH_8XiPmK5_ZippilPfCqYqKlZoJUJRzxUI56ZMbEXdTgHsbC4-LzRK2Nuz5nXA62rkdbvgqvFtwcDTvKBaINFJn_xMpqVO4-W-7N40TazgDSARVG_rIlbeIXSgUaS8hs7W9-OqycBrG0LHXVsE-WwmWCvYwniQxU73Y7e9udckidb4w7bLE4C6w3eNYoxyEpGo3C5uO3NhvLINGmlx8S01bdIFdMHBJqO0oa4K5L-xCSOVKLtnCOPgnZjcrE6_hFWTw-_xDu07JuwvCYwoD82cdVksXM4HyGzy_Qe6kd1up1rB7PuHvP2GMlWlBLrCW-54B2qSEQt5Brx54PsJ_310EcrCxN5AV07HSN0gjvkDGVWFTYToogqXwQKXyAJL0ATLUWZfWnx6iIB0Jkqi1orYSOCYJueMzBS_0FYgzMKd9vHsZakEcbFAd1_uCC4_eZtgKjxEIRtLN5FTQYv2QbNuFdZrKx2gCdGd1FoWRMpT-ZRn8YLtOYMkh6rIO8OIRrxgmpP3R1oGHNOIBVpLi-ihRLEFRPizStKQEwHIEG56nEFF9GbrROamnbmod1Had57EDSgHlS5VdJV5Ygv_7QXb0Q3oqMKOKSyHct2rMxGECzFMG2Qd7f1kEIq0HsHsrFnqRkjHaEga7vDGtFICrV9TkDrUcoQIzqOZEWsoENdj0jE_VxTcBbqzfn2nT7ZQiRRdF3_CRWqKXlpnqpK5fanwW9QoBJXSN8f3SABJyR934pIxRo5DMYqE_0aasm0JXUAfwexTqFgwNbZh_TETmNwJrinYtkpxd9BhxbafCGx4ksi6c5-fMKtrkeTtqlYC4GP6wsHORLkF5OiIpDbnV9kVsHIDJfcbgj6V8qnSYadiuyWW-CgvmJ09rzNLIhq0wnm4N9dt9vx2JyJyV5RxMsBReWD41QDyFqL24iAqNEUOwmzVgOz9cOZS3UGImaBBy4DMj3qy03zM1uf2BcFFDs_SbCs4BR1-nE_rGoucB0SOrayKUwBDmt9V0TFqV9rJfVSKCOvRcTTeUi0BQ6ZAhNJEMgODSZiCprrqDpziDOoYlb2Sozndi6LQDcLpUwkHy8yCBNYPNCxkiT5B_fbi-p601qsr463N97PEXyaZNEOxjBMlalnNsReERtDU3cHvAIV2qTSZmUzLMPYEigkfUqAAHniPbbtsKoxEDU4zj2MHn_yHUGGYoLaJhMjsBy0]--></g></svg>